ISO-10303-21;
HEADER;
FILE_DESCRIPTION(('HEAT SINK PLATE, SERVO DRIVE','Faceted model for quoting'),'2;1');
FILE_NAME('FR-2290_heatsink.step','2026-09-01T08:00:00',('lfischer'),(''),'RFQ Router demo','Onshape','');
FILE_SCHEMA(('AUTOMOTIVE_DESIGN { 1 0 10303 214 1 1 1 1 }'));
ENDSEC;
DATA;
#1=APPLICATION_CONTEXT('core data for automotive mechanical design processes');
#2=APPLICATION_PROTOCOL_DEFINITION('international standard','automotive_design',2000,#1);
#3=PRODUCT_CONTEXT('',#1,'mechanical');
#4=PRODUCT('FR-2290','HEAT SINK PLATE, SERVO DRIVE','Rev A',(#3));
#5=PRODUCT_DEFINITION_FORMATION('A','',#4);
#6=PRODUCT_DEFINITION_CONTEXT('part definition',#1,'design');
#7=PRODUCT_DEFINITION('design','',#5,#6);
#8=PRODUCT_DEFINITION_SHAPE('','',#7);
#9=(LENGTH_UNIT()NAMED_UNIT(*)SI_UNIT(.MILLI.,.METRE.));
#10=LENGTH_MEASURE_WITH_UNIT(LENGTH_MEASURE(25.4),#9);
#11=DIMENSIONAL_EXPONENTS(1.,0.,0.,0.,0.,0.,0.);
#12=(CONVERSION_BASED_UNIT('INCH',#10)LENGTH_UNIT()NAMED_UNIT(#11));
#13=(NAMED_UNIT(*)PLANE_ANGLE_UNIT()SI_UNIT($,.RADIAN.));
#14=(NAMED_UNIT(*)SI_UNIT($,.STERADIAN.)SOLID_ANGLE_UNIT());
#15=UNCERTAINTY_MEASURE_WITH_UNIT(LENGTH_MEASURE(1.E-05),#12,'distance_accuracy_value','confusion accuracy');
#16=(GEOMETRIC_REPRESENTATION_CONTEXT(3)GLOBAL_UNCERTAINTY_ASSIGNED_CONTEXT((#15))GLOBAL_UNIT_ASSIGNED_CONTEXT((#12,#13,#14))REPRESENTATION_CONTEXT('Context3D','3D'));
#17=CARTESIAN_POINT('',(0.00000,0.00000,0.00000));
#18=CARTESIAN_POINT('',(5.50000,0.00000,0.00000));
#19=CARTESIAN_POINT('',(5.50000,3.25000,0.00000));
#20=CARTESIAN_POINT('',(0.00000,3.25000,0.00000));
#21=CARTESIAN_POINT('',(0.00000,0.00000,0.28000));
#22=CARTESIAN_POINT('',(5.50000,0.00000,0.28000));
#23=CARTESIAN_POINT('',(5.50000,3.25000,0.28000));
#24=CARTESIAN_POINT('',(0.00000,3.25000,0.28000));
#25=CARTESIAN_POINT('',(0.11786,0.00000,0.28000));
#26=CARTESIAN_POINT('',(0.27500,0.00000,0.28000));
#27=CARTESIAN_POINT('',(0.27500,3.25000,0.28000));
#28=CARTESIAN_POINT('',(0.11786,3.25000,0.28000));
#29=CARTESIAN_POINT('',(0.11786,0.00000,1.00000));
#30=CARTESIAN_POINT('',(0.27500,0.00000,1.00000));
#31=CARTESIAN_POINT('',(0.27500,3.25000,1.00000));
#32=CARTESIAN_POINT('',(0.11786,3.25000,1.00000));
#33=CARTESIAN_POINT('',(0.51071,0.00000,0.28000));
#34=CARTESIAN_POINT('',(0.66786,0.00000,0.28000));
#35=CARTESIAN_POINT('',(0.66786,3.25000,0.28000));
#36=CARTESIAN_POINT('',(0.51071,3.25000,0.28000));
#37=CARTESIAN_POINT('',(0.51071,0.00000,1.00000));
#38=CARTESIAN_POINT('',(0.66786,0.00000,1.00000));
#39=CARTESIAN_POINT('',(0.66786,3.25000,1.00000));
#40=CARTESIAN_POINT('',(0.51071,3.25000,1.00000));
#41=CARTESIAN_POINT('',(0.90357,0.00000,0.28000));
#42=CARTESIAN_POINT('',(1.06071,0.00000,0.28000));
#43=CARTESIAN_POINT('',(1.06071,3.25000,0.28000));
#44=CARTESIAN_POINT('',(0.90357,3.25000,0.28000));
#45=CARTESIAN_POINT('',(0.90357,0.00000,1.00000));
#46=CARTESIAN_POINT('',(1.06071,0.00000,1.00000));
#47=CARTESIAN_POINT('',(1.06071,3.25000,1.00000));
#48=CARTESIAN_POINT('',(0.90357,3.25000,1.00000));
#49=CARTESIAN_POINT('',(1.29643,0.00000,0.28000));
#50=CARTESIAN_POINT('',(1.45357,0.00000,0.28000));
#51=CARTESIAN_POINT('',(1.45357,3.25000,0.28000));
#52=CARTESIAN_POINT('',(1.29643,3.25000,0.28000));
#53=CARTESIAN_POINT('',(1.29643,0.00000,1.00000));
#54=CARTESIAN_POINT('',(1.45357,0.00000,1.00000));
#55=CARTESIAN_POINT('',(1.45357,3.25000,1.00000));
#56=CARTESIAN_POINT('',(1.29643,3.25000,1.00000));
#57=CARTESIAN_POINT('',(1.68929,0.00000,0.28000));
#58=CARTESIAN_POINT('',(1.84643,0.00000,0.28000));
#59=CARTESIAN_POINT('',(1.84643,3.25000,0.28000));
#60=CARTESIAN_POINT('',(1.68929,3.25000,0.28000));
#61=CARTESIAN_POINT('',(1.68929,0.00000,1.00000));
#62=CARTESIAN_POINT('',(1.84643,0.00000,1.00000));
#63=CARTESIAN_POINT('',(1.84643,3.25000,1.00000));
#64=CARTESIAN_POINT('',(1.68929,3.25000,1.00000));
#65=CARTESIAN_POINT('',(2.08214,0.00000,0.28000));
#66=CARTESIAN_POINT('',(2.23929,0.00000,0.28000));
#67=CARTESIAN_POINT('',(2.23929,3.25000,0.28000));
#68=CARTESIAN_POINT('',(2.08214,3.25000,0.28000));
#69=CARTESIAN_POINT('',(2.08214,0.00000,1.00000));
#70=CARTESIAN_POINT('',(2.23929,0.00000,1.00000));
#71=CARTESIAN_POINT('',(2.23929,3.25000,1.00000));
#72=CARTESIAN_POINT('',(2.08214,3.25000,1.00000));
#73=CARTESIAN_POINT('',(2.47500,0.00000,0.28000));
#74=CARTESIAN_POINT('',(2.63214,0.00000,0.28000));
#75=CARTESIAN_POINT('',(2.63214,3.25000,0.28000));
#76=CARTESIAN_POINT('',(2.47500,3.25000,0.28000));
#77=CARTESIAN_POINT('',(2.47500,0.00000,1.00000));
#78=CARTESIAN_POINT('',(2.63214,0.00000,1.00000));
#79=CARTESIAN_POINT('',(2.63214,3.25000,1.00000));
#80=CARTESIAN_POINT('',(2.47500,3.25000,1.00000));
#81=CARTESIAN_POINT('',(2.86786,0.00000,0.28000));
#82=CARTESIAN_POINT('',(3.02500,0.00000,0.28000));
#83=CARTESIAN_POINT('',(3.02500,3.25000,0.28000));
#84=CARTESIAN_POINT('',(2.86786,3.25000,0.28000));
#85=CARTESIAN_POINT('',(2.86786,0.00000,1.00000));
#86=CARTESIAN_POINT('',(3.02500,0.00000,1.00000));
#87=CARTESIAN_POINT('',(3.02500,3.25000,1.00000));
#88=CARTESIAN_POINT('',(2.86786,3.25000,1.00000));
#89=CARTESIAN_POINT('',(3.26071,0.00000,0.28000));
#90=CARTESIAN_POINT('',(3.41786,0.00000,0.28000));
#91=CARTESIAN_POINT('',(3.41786,3.25000,0.28000));
#92=CARTESIAN_POINT('',(3.26071,3.25000,0.28000));
#93=CARTESIAN_POINT('',(3.26071,0.00000,1.00000));
#94=CARTESIAN_POINT('',(3.41786,0.00000,1.00000));
#95=CARTESIAN_POINT('',(3.41786,3.25000,1.00000));
#96=CARTESIAN_POINT('',(3.26071,3.25000,1.00000));
#97=CARTESIAN_POINT('',(3.65357,0.00000,0.28000));
#98=CARTESIAN_POINT('',(3.81071,0.00000,0.28000));
#99=CARTESIAN_POINT('',(3.81071,3.25000,0.28000));
#100=CARTESIAN_POINT('',(3.65357,3.25000,0.28000));
#101=CARTESIAN_POINT('',(3.65357,0.00000,1.00000));
#102=CARTESIAN_POINT('',(3.81071,0.00000,1.00000));
#103=CARTESIAN_POINT('',(3.81071,3.25000,1.00000));
#104=CARTESIAN_POINT('',(3.65357,3.25000,1.00000));
#105=CARTESIAN_POINT('',(4.04643,0.00000,0.28000));
#106=CARTESIAN_POINT('',(4.20357,0.00000,0.28000));
#107=CARTESIAN_POINT('',(4.20357,3.25000,0.28000));
#108=CARTESIAN_POINT('',(4.04643,3.25000,0.28000));
#109=CARTESIAN_POINT('',(4.04643,0.00000,1.00000));
#110=CARTESIAN_POINT('',(4.20357,0.00000,1.00000));
#111=CARTESIAN_POINT('',(4.20357,3.25000,1.00000));
#112=CARTESIAN_POINT('',(4.04643,3.25000,1.00000));
#113=CARTESIAN_POINT('',(4.43929,0.00000,0.28000));
#114=CARTESIAN_POINT('',(4.59643,0.00000,0.28000));
#115=CARTESIAN_POINT('',(4.59643,3.25000,0.28000));
#116=CARTESIAN_POINT('',(4.43929,3.25000,0.28000));
#117=CARTESIAN_POINT('',(4.43929,0.00000,1.00000));
#118=CARTESIAN_POINT('',(4.59643,0.00000,1.00000));
#119=CARTESIAN_POINT('',(4.59643,3.25000,1.00000));
#120=CARTESIAN_POINT('',(4.43929,3.25000,1.00000));
#121=CARTESIAN_POINT('',(4.83214,0.00000,0.28000));
#122=CARTESIAN_POINT('',(4.98929,0.00000,0.28000));
#123=CARTESIAN_POINT('',(4.98929,3.25000,0.28000));
#124=CARTESIAN_POINT('',(4.83214,3.25000,0.28000));
#125=CARTESIAN_POINT('',(4.83214,0.00000,1.00000));
#126=CARTESIAN_POINT('',(4.98929,0.00000,1.00000));
#127=CARTESIAN_POINT('',(4.98929,3.25000,1.00000));
#128=CARTESIAN_POINT('',(4.83214,3.25000,1.00000));
#129=CARTESIAN_POINT('',(5.22500,0.00000,0.28000));
#130=CARTESIAN_POINT('',(5.38214,0.00000,0.28000));
#131=CARTESIAN_POINT('',(5.38214,3.25000,0.28000));
#132=CARTESIAN_POINT('',(5.22500,3.25000,0.28000));
#133=CARTESIAN_POINT('',(5.22500,0.00000,1.00000));
#134=CARTESIAN_POINT('',(5.38214,0.00000,1.00000));
#135=CARTESIAN_POINT('',(5.38214,3.25000,1.00000));
#136=CARTESIAN_POINT('',(5.22500,3.25000,1.00000));
#137=POLY_LOOP('',(#17,#20,#19,#18));
#138=FACE_OUTER_BOUND('',#137,.T.);
#139=FACE('',(#138));
#140=POLY_LOOP('',(#21,#22,#23,#24));
#141=FACE_OUTER_BOUND('',#140,.T.);
#142=FACE('',(#141));
#143=POLY_LOOP('',(#17,#18,#22,#21));
#144=FACE_OUTER_BOUND('',#143,.T.);
#145=FACE('',(#144));
#146=POLY_LOOP('',(#18,#19,#23,#22));
#147=FACE_OUTER_BOUND('',#146,.T.);
#148=FACE('',(#147));
#149=POLY_LOOP('',(#19,#20,#24,#23));
#150=FACE_OUTER_BOUND('',#149,.T.);
#151=FACE('',(#150));
#152=POLY_LOOP('',(#20,#17,#21,#24));
#153=FACE_OUTER_BOUND('',#152,.T.);
#154=FACE('',(#153));
#155=POLY_LOOP('',(#25,#28,#27,#26));
#156=FACE_OUTER_BOUND('',#155,.T.);
#157=FACE('',(#156));
#158=POLY_LOOP('',(#29,#30,#31,#32));
#159=FACE_OUTER_BOUND('',#158,.T.);
#160=FACE('',(#159));
#161=POLY_LOOP('',(#25,#26,#30,#29));
#162=FACE_OUTER_BOUND('',#161,.T.);
#163=FACE('',(#162));
#164=POLY_LOOP('',(#26,#27,#31,#30));
#165=FACE_OUTER_BOUND('',#164,.T.);
#166=FACE('',(#165));
#167=POLY_LOOP('',(#27,#28,#32,#31));
#168=FACE_OUTER_BOUND('',#167,.T.);
#169=FACE('',(#168));
#170=POLY_LOOP('',(#28,#25,#29,#32));
#171=FACE_OUTER_BOUND('',#170,.T.);
#172=FACE('',(#171));
#173=POLY_LOOP('',(#33,#36,#35,#34));
#174=FACE_OUTER_BOUND('',#173,.T.);
#175=FACE('',(#174));
#176=POLY_LOOP('',(#37,#38,#39,#40));
#177=FACE_OUTER_BOUND('',#176,.T.);
#178=FACE('',(#177));
#179=POLY_LOOP('',(#33,#34,#38,#37));
#180=FACE_OUTER_BOUND('',#179,.T.);
#181=FACE('',(#180));
#182=POLY_LOOP('',(#34,#35,#39,#38));
#183=FACE_OUTER_BOUND('',#182,.T.);
#184=FACE('',(#183));
#185=POLY_LOOP('',(#35,#36,#40,#39));
#186=FACE_OUTER_BOUND('',#185,.T.);
#187=FACE('',(#186));
#188=POLY_LOOP('',(#36,#33,#37,#40));
#189=FACE_OUTER_BOUND('',#188,.T.);
#190=FACE('',(#189));
#191=POLY_LOOP('',(#41,#44,#43,#42));
#192=FACE_OUTER_BOUND('',#191,.T.);
#193=FACE('',(#192));
#194=POLY_LOOP('',(#45,#46,#47,#48));
#195=FACE_OUTER_BOUND('',#194,.T.);
#196=FACE('',(#195));
#197=POLY_LOOP('',(#41,#42,#46,#45));
#198=FACE_OUTER_BOUND('',#197,.T.);
#199=FACE('',(#198));
#200=POLY_LOOP('',(#42,#43,#47,#46));
#201=FACE_OUTER_BOUND('',#200,.T.);
#202=FACE('',(#201));
#203=POLY_LOOP('',(#43,#44,#48,#47));
#204=FACE_OUTER_BOUND('',#203,.T.);
#205=FACE('',(#204));
#206=POLY_LOOP('',(#44,#41,#45,#48));
#207=FACE_OUTER_BOUND('',#206,.T.);
#208=FACE('',(#207));
#209=POLY_LOOP('',(#49,#52,#51,#50));
#210=FACE_OUTER_BOUND('',#209,.T.);
#211=FACE('',(#210));
#212=POLY_LOOP('',(#53,#54,#55,#56));
#213=FACE_OUTER_BOUND('',#212,.T.);
#214=FACE('',(#213));
#215=POLY_LOOP('',(#49,#50,#54,#53));
#216=FACE_OUTER_BOUND('',#215,.T.);
#217=FACE('',(#216));
#218=POLY_LOOP('',(#50,#51,#55,#54));
#219=FACE_OUTER_BOUND('',#218,.T.);
#220=FACE('',(#219));
#221=POLY_LOOP('',(#51,#52,#56,#55));
#222=FACE_OUTER_BOUND('',#221,.T.);
#223=FACE('',(#222));
#224=POLY_LOOP('',(#52,#49,#53,#56));
#225=FACE_OUTER_BOUND('',#224,.T.);
#226=FACE('',(#225));
#227=POLY_LOOP('',(#57,#60,#59,#58));
#228=FACE_OUTER_BOUND('',#227,.T.);
#229=FACE('',(#228));
#230=POLY_LOOP('',(#61,#62,#63,#64));
#231=FACE_OUTER_BOUND('',#230,.T.);
#232=FACE('',(#231));
#233=POLY_LOOP('',(#57,#58,#62,#61));
#234=FACE_OUTER_BOUND('',#233,.T.);
#235=FACE('',(#234));
#236=POLY_LOOP('',(#58,#59,#63,#62));
#237=FACE_OUTER_BOUND('',#236,.T.);
#238=FACE('',(#237));
#239=POLY_LOOP('',(#59,#60,#64,#63));
#240=FACE_OUTER_BOUND('',#239,.T.);
#241=FACE('',(#240));
#242=POLY_LOOP('',(#60,#57,#61,#64));
#243=FACE_OUTER_BOUND('',#242,.T.);
#244=FACE('',(#243));
#245=POLY_LOOP('',(#65,#68,#67,#66));
#246=FACE_OUTER_BOUND('',#245,.T.);
#247=FACE('',(#246));
#248=POLY_LOOP('',(#69,#70,#71,#72));
#249=FACE_OUTER_BOUND('',#248,.T.);
#250=FACE('',(#249));
#251=POLY_LOOP('',(#65,#66,#70,#69));
#252=FACE_OUTER_BOUND('',#251,.T.);
#253=FACE('',(#252));
#254=POLY_LOOP('',(#66,#67,#71,#70));
#255=FACE_OUTER_BOUND('',#254,.T.);
#256=FACE('',(#255));
#257=POLY_LOOP('',(#67,#68,#72,#71));
#258=FACE_OUTER_BOUND('',#257,.T.);
#259=FACE('',(#258));
#260=POLY_LOOP('',(#68,#65,#69,#72));
#261=FACE_OUTER_BOUND('',#260,.T.);
#262=FACE('',(#261));
#263=POLY_LOOP('',(#73,#76,#75,#74));
#264=FACE_OUTER_BOUND('',#263,.T.);
#265=FACE('',(#264));
#266=POLY_LOOP('',(#77,#78,#79,#80));
#267=FACE_OUTER_BOUND('',#266,.T.);
#268=FACE('',(#267));
#269=POLY_LOOP('',(#73,#74,#78,#77));
#270=FACE_OUTER_BOUND('',#269,.T.);
#271=FACE('',(#270));
#272=POLY_LOOP('',(#74,#75,#79,#78));
#273=FACE_OUTER_BOUND('',#272,.T.);
#274=FACE('',(#273));
#275=POLY_LOOP('',(#75,#76,#80,#79));
#276=FACE_OUTER_BOUND('',#275,.T.);
#277=FACE('',(#276));
#278=POLY_LOOP('',(#76,#73,#77,#80));
#279=FACE_OUTER_BOUND('',#278,.T.);
#280=FACE('',(#279));
#281=POLY_LOOP('',(#81,#84,#83,#82));
#282=FACE_OUTER_BOUND('',#281,.T.);
#283=FACE('',(#282));
#284=POLY_LOOP('',(#85,#86,#87,#88));
#285=FACE_OUTER_BOUND('',#284,.T.);
#286=FACE('',(#285));
#287=POLY_LOOP('',(#81,#82,#86,#85));
#288=FACE_OUTER_BOUND('',#287,.T.);
#289=FACE('',(#288));
#290=POLY_LOOP('',(#82,#83,#87,#86));
#291=FACE_OUTER_BOUND('',#290,.T.);
#292=FACE('',(#291));
#293=POLY_LOOP('',(#83,#84,#88,#87));
#294=FACE_OUTER_BOUND('',#293,.T.);
#295=FACE('',(#294));
#296=POLY_LOOP('',(#84,#81,#85,#88));
#297=FACE_OUTER_BOUND('',#296,.T.);
#298=FACE('',(#297));
#299=POLY_LOOP('',(#89,#92,#91,#90));
#300=FACE_OUTER_BOUND('',#299,.T.);
#301=FACE('',(#300));
#302=POLY_LOOP('',(#93,#94,#95,#96));
#303=FACE_OUTER_BOUND('',#302,.T.);
#304=FACE('',(#303));
#305=POLY_LOOP('',(#89,#90,#94,#93));
#306=FACE_OUTER_BOUND('',#305,.T.);
#307=FACE('',(#306));
#308=POLY_LOOP('',(#90,#91,#95,#94));
#309=FACE_OUTER_BOUND('',#308,.T.);
#310=FACE('',(#309));
#311=POLY_LOOP('',(#91,#92,#96,#95));
#312=FACE_OUTER_BOUND('',#311,.T.);
#313=FACE('',(#312));
#314=POLY_LOOP('',(#92,#89,#93,#96));
#315=FACE_OUTER_BOUND('',#314,.T.);
#316=FACE('',(#315));
#317=POLY_LOOP('',(#97,#100,#99,#98));
#318=FACE_OUTER_BOUND('',#317,.T.);
#319=FACE('',(#318));
#320=POLY_LOOP('',(#101,#102,#103,#104));
#321=FACE_OUTER_BOUND('',#320,.T.);
#322=FACE('',(#321));
#323=POLY_LOOP('',(#97,#98,#102,#101));
#324=FACE_OUTER_BOUND('',#323,.T.);
#325=FACE('',(#324));
#326=POLY_LOOP('',(#98,#99,#103,#102));
#327=FACE_OUTER_BOUND('',#326,.T.);
#328=FACE('',(#327));
#329=POLY_LOOP('',(#99,#100,#104,#103));
#330=FACE_OUTER_BOUND('',#329,.T.);
#331=FACE('',(#330));
#332=POLY_LOOP('',(#100,#97,#101,#104));
#333=FACE_OUTER_BOUND('',#332,.T.);
#334=FACE('',(#333));
#335=POLY_LOOP('',(#105,#108,#107,#106));
#336=FACE_OUTER_BOUND('',#335,.T.);
#337=FACE('',(#336));
#338=POLY_LOOP('',(#109,#110,#111,#112));
#339=FACE_OUTER_BOUND('',#338,.T.);
#340=FACE('',(#339));
#341=POLY_LOOP('',(#105,#106,#110,#109));
#342=FACE_OUTER_BOUND('',#341,.T.);
#343=FACE('',(#342));
#344=POLY_LOOP('',(#106,#107,#111,#110));
#345=FACE_OUTER_BOUND('',#344,.T.);
#346=FACE('',(#345));
#347=POLY_LOOP('',(#107,#108,#112,#111));
#348=FACE_OUTER_BOUND('',#347,.T.);
#349=FACE('',(#348));
#350=POLY_LOOP('',(#108,#105,#109,#112));
#351=FACE_OUTER_BOUND('',#350,.T.);
#352=FACE('',(#351));
#353=POLY_LOOP('',(#113,#116,#115,#114));
#354=FACE_OUTER_BOUND('',#353,.T.);
#355=FACE('',(#354));
#356=POLY_LOOP('',(#117,#118,#119,#120));
#357=FACE_OUTER_BOUND('',#356,.T.);
#358=FACE('',(#357));
#359=POLY_LOOP('',(#113,#114,#118,#117));
#360=FACE_OUTER_BOUND('',#359,.T.);
#361=FACE('',(#360));
#362=POLY_LOOP('',(#114,#115,#119,#118));
#363=FACE_OUTER_BOUND('',#362,.T.);
#364=FACE('',(#363));
#365=POLY_LOOP('',(#115,#116,#120,#119));
#366=FACE_OUTER_BOUND('',#365,.T.);
#367=FACE('',(#366));
#368=POLY_LOOP('',(#116,#113,#117,#120));
#369=FACE_OUTER_BOUND('',#368,.T.);
#370=FACE('',(#369));
#371=POLY_LOOP('',(#121,#124,#123,#122));
#372=FACE_OUTER_BOUND('',#371,.T.);
#373=FACE('',(#372));
#374=POLY_LOOP('',(#125,#126,#127,#128));
#375=FACE_OUTER_BOUND('',#374,.T.);
#376=FACE('',(#375));
#377=POLY_LOOP('',(#121,#122,#126,#125));
#378=FACE_OUTER_BOUND('',#377,.T.);
#379=FACE('',(#378));
#380=POLY_LOOP('',(#122,#123,#127,#126));
#381=FACE_OUTER_BOUND('',#380,.T.);
#382=FACE('',(#381));
#383=POLY_LOOP('',(#123,#124,#128,#127));
#384=FACE_OUTER_BOUND('',#383,.T.);
#385=FACE('',(#384));
#386=POLY_LOOP('',(#124,#121,#125,#128));
#387=FACE_OUTER_BOUND('',#386,.T.);
#388=FACE('',(#387));
#389=POLY_LOOP('',(#129,#132,#131,#130));
#390=FACE_OUTER_BOUND('',#389,.T.);
#391=FACE('',(#390));
#392=POLY_LOOP('',(#133,#134,#135,#136));
#393=FACE_OUTER_BOUND('',#392,.T.);
#394=FACE('',(#393));
#395=POLY_LOOP('',(#129,#130,#134,#133));
#396=FACE_OUTER_BOUND('',#395,.T.);
#397=FACE('',(#396));
#398=POLY_LOOP('',(#130,#131,#135,#134));
#399=FACE_OUTER_BOUND('',#398,.T.);
#400=FACE('',(#399));
#401=POLY_LOOP('',(#131,#132,#136,#135));
#402=FACE_OUTER_BOUND('',#401,.T.);
#403=FACE('',(#402));
#404=POLY_LOOP('',(#132,#129,#133,#136));
#405=FACE_OUTER_BOUND('',#404,.T.);
#406=FACE('',(#405));
#407=CLOSED_SHELL('',(#139,#142,#145,#148,#151,#154,#157,#160,#163,#166,#169,#172,#175,#178,#181,#184,#187,#190,#193,#196,#199,#202,#205,#208,#211,#214,#217,#220,#223,#226,#229,#232,#235,#238,#241,#244,#247,#250,#253,#256,#259,#262,#265,#268,#271,#274,#277,#280,#283,#286,#289,#292,#295,#298,#301,#304,#307,#310,#313,#316,#319,#322,#325,#328,#331,#334,#337,#340,#343,#346,#349,#352,#355,#358,#361,#364,#367,#370,#373,#376,#379,#382,#385,#388,#391,#394,#397,#400,#403,#406));
#408=FACETED_BREP('FR-2290',#407);
#409=CARTESIAN_POINT('',(0.,0.,0.));
#410=DIRECTION('',(0.,0.,1.));
#411=DIRECTION('',(1.,0.,0.));
#412=AXIS2_PLACEMENT_3D('',#409,#410,#411);
#413=FACETED_BREP_SHAPE_REPRESENTATION('FR-2290',(#412,#408),#16);
#414=SHAPE_DEFINITION_REPRESENTATION(#8,#413);
ENDSEC;
END-ISO-10303-21;
