ISO-10303-21;
HEADER;
FILE_DESCRIPTION(('BRACKET, SENSOR MOUNTING','Faceted model for quoting'),'2;1');
FILE_NAME('QA-41127_RevB.step','2026-09-01T08:00:00',('apineda'),(''),'RFQ Router demo','Siemens NX 2406','');
FILE_SCHEMA(('AP242_MANAGED_MODEL_BASED_3D_ENGINEERING_MIM_LF { 1 0 10303 442 1 1 4 }'));
ENDSEC;
DATA;
#1=APPLICATION_CONTEXT('core data for automotive mechanical design processes');
#2=APPLICATION_PROTOCOL_DEFINITION('international standard','ap242_managed_model_based_3d_engineering',2014,#1);
#3=PRODUCT_CONTEXT('',#1,'mechanical');
#4=PRODUCT('QA-41127','BRACKET, SENSOR MOUNTING','Rev B',(#3));
#5=PRODUCT_RELATED_PRODUCT_CATEGORY('part',$,(#4));
#6=PRODUCT_DEFINITION_FORMATION('B','',#4);
#7=PRODUCT_DEFINITION_CONTEXT('part definition',#1,'design');
#8=PRODUCT_DEFINITION('design','',#6,#7);
#9=PRODUCT_DEFINITION_SHAPE('','',#8);
#10=(LENGTH_UNIT()NAMED_UNIT(*)SI_UNIT(.MILLI.,.METRE.));
#11=LENGTH_MEASURE_WITH_UNIT(LENGTH_MEASURE(25.4),#10);
#12=DIMENSIONAL_EXPONENTS(1.,0.,0.,0.,0.,0.,0.);
#13=(CONVERSION_BASED_UNIT('INCH',#11)LENGTH_UNIT()NAMED_UNIT(#12));
#14=(NAMED_UNIT(*)PLANE_ANGLE_UNIT()SI_UNIT($,.RADIAN.));
#15=(NAMED_UNIT(*)SI_UNIT($,.STERADIAN.)SOLID_ANGLE_UNIT());
#16=UNCERTAINTY_MEASURE_WITH_UNIT(LENGTH_MEASURE(1.E-05),#13,'distance_accuracy_value','confusion accuracy');
#17=(GEOMETRIC_REPRESENTATION_CONTEXT(3)GLOBAL_UNCERTAINTY_ASSIGNED_CONTEXT((#16))GLOBAL_UNIT_ASSIGNED_CONTEXT((#13,#14,#15))REPRESENTATION_CONTEXT('Context3D','3D'));
#18=CARTESIAN_POINT('',(0.00000,0.00000,0.30000));
#19=CARTESIAN_POINT('',(1.62794,0.00000,0.30000));
#20=CARTESIAN_POINT('',(1.87206,0.00000,0.30000));
#21=CARTESIAN_POINT('',(3.50000,0.00000,0.30000));
#22=CARTESIAN_POINT('',(3.50000,0.10294,0.30000));
#23=CARTESIAN_POINT('',(1.87206,0.10294,0.30000));
#24=CARTESIAN_POINT('',(1.80878,0.10294,0.30000));
#25=CARTESIAN_POINT('',(1.75000,0.10294,0.30000));
#26=CARTESIAN_POINT('',(1.69122,0.10294,0.30000));
#27=CARTESIAN_POINT('',(1.62794,0.10294,0.30000));
#28=CARTESIAN_POINT('',(0.00000,0.10294,0.30000));
#29=CARTESIAN_POINT('',(0.00000,0.10294,0.00000));
#30=CARTESIAN_POINT('',(1.62794,0.10294,0.00000));
#31=CARTESIAN_POINT('',(1.69122,0.10294,0.00000));
#32=CARTESIAN_POINT('',(1.75000,0.10294,0.00000));
#33=CARTESIAN_POINT('',(1.80878,0.10294,0.00000));
#34=CARTESIAN_POINT('',(1.87206,0.10294,0.00000));
#35=CARTESIAN_POINT('',(3.50000,0.10294,0.00000));
#36=CARTESIAN_POINT('',(3.50000,0.00000,0.00000));
#37=CARTESIAN_POINT('',(1.87206,0.00000,0.00000));
#38=CARTESIAN_POINT('',(1.62794,0.00000,0.00000));
#39=CARTESIAN_POINT('',(0.00000,0.00000,0.00000));
#40=CARTESIAN_POINT('',(1.62794,0.12766,0.30000));
#41=CARTESIAN_POINT('',(1.62794,0.19714,0.30000));
#42=CARTESIAN_POINT('',(1.62794,0.25286,0.30000));
#43=CARTESIAN_POINT('',(1.62794,0.32234,0.30000));
#44=CARTESIAN_POINT('',(1.62794,0.34706,0.30000));
#45=CARTESIAN_POINT('',(0.00000,0.34706,0.30000));
#46=CARTESIAN_POINT('',(3.50000,0.34706,0.30000));
#47=CARTESIAN_POINT('',(1.87206,0.34706,0.30000));
#48=CARTESIAN_POINT('',(1.87206,0.32234,0.30000));
#49=CARTESIAN_POINT('',(1.87206,0.25286,0.30000));
#50=CARTESIAN_POINT('',(1.87206,0.19714,0.30000));
#51=CARTESIAN_POINT('',(1.87206,0.12766,0.30000));
#52=CARTESIAN_POINT('',(0.00000,0.34706,0.00000));
#53=CARTESIAN_POINT('',(1.62794,0.34706,0.00000));
#54=CARTESIAN_POINT('',(1.62794,0.32234,0.00000));
#55=CARTESIAN_POINT('',(1.62794,0.25286,0.00000));
#56=CARTESIAN_POINT('',(1.62794,0.19714,0.00000));
#57=CARTESIAN_POINT('',(1.62794,0.12766,0.00000));
#58=CARTESIAN_POINT('',(1.87206,0.12766,0.00000));
#59=CARTESIAN_POINT('',(1.87206,0.19714,0.00000));
#60=CARTESIAN_POINT('',(1.87206,0.25286,0.00000));
#61=CARTESIAN_POINT('',(1.87206,0.32234,0.00000));
#62=CARTESIAN_POINT('',(1.87206,0.34706,0.00000));
#63=CARTESIAN_POINT('',(3.50000,0.34706,0.00000));
#64=CARTESIAN_POINT('',(1.69122,0.34706,0.30000));
#65=CARTESIAN_POINT('',(1.75000,0.34706,0.30000));
#66=CARTESIAN_POINT('',(1.80878,0.34706,0.30000));
#67=CARTESIAN_POINT('',(3.50000,1.90294,0.30000));
#68=CARTESIAN_POINT('',(1.87206,1.90294,0.30000));
#69=CARTESIAN_POINT('',(1.80878,1.90294,0.30000));
#70=CARTESIAN_POINT('',(1.75000,1.90294,0.30000));
#71=CARTESIAN_POINT('',(1.69122,1.90294,0.30000));
#72=CARTESIAN_POINT('',(1.62794,1.90294,0.30000));
#73=CARTESIAN_POINT('',(0.00000,1.90294,0.30000));
#74=CARTESIAN_POINT('',(0.00000,1.90294,0.00000));
#75=CARTESIAN_POINT('',(1.62794,1.90294,0.00000));
#76=CARTESIAN_POINT('',(1.69122,1.90294,0.00000));
#77=CARTESIAN_POINT('',(1.75000,1.90294,0.00000));
#78=CARTESIAN_POINT('',(1.80878,1.90294,0.00000));
#79=CARTESIAN_POINT('',(1.87206,1.90294,0.00000));
#80=CARTESIAN_POINT('',(3.50000,1.90294,0.00000));
#81=CARTESIAN_POINT('',(1.80878,0.34706,0.00000));
#82=CARTESIAN_POINT('',(1.75000,0.34706,0.00000));
#83=CARTESIAN_POINT('',(1.69122,0.34706,0.00000));
#84=CARTESIAN_POINT('',(1.62794,1.92766,0.30000));
#85=CARTESIAN_POINT('',(1.62794,1.99714,0.30000));
#86=CARTESIAN_POINT('',(1.62794,2.05286,0.30000));
#87=CARTESIAN_POINT('',(1.62794,2.12234,0.30000));
#88=CARTESIAN_POINT('',(1.62794,2.14706,0.30000));
#89=CARTESIAN_POINT('',(0.00000,2.14706,0.30000));
#90=CARTESIAN_POINT('',(3.50000,2.14706,0.30000));
#91=CARTESIAN_POINT('',(1.87206,2.14706,0.30000));
#92=CARTESIAN_POINT('',(1.87206,2.12234,0.30000));
#93=CARTESIAN_POINT('',(1.87206,2.05286,0.30000));
#94=CARTESIAN_POINT('',(1.87206,1.99714,0.30000));
#95=CARTESIAN_POINT('',(1.87206,1.92766,0.30000));
#96=CARTESIAN_POINT('',(0.00000,2.14706,0.00000));
#97=CARTESIAN_POINT('',(1.62794,2.14706,0.00000));
#98=CARTESIAN_POINT('',(1.62794,2.12234,0.00000));
#99=CARTESIAN_POINT('',(1.62794,2.05286,0.00000));
#100=CARTESIAN_POINT('',(1.62794,1.99714,0.00000));
#101=CARTESIAN_POINT('',(1.62794,1.92766,0.00000));
#102=CARTESIAN_POINT('',(1.87206,1.92766,0.00000));
#103=CARTESIAN_POINT('',(1.87206,1.99714,0.00000));
#104=CARTESIAN_POINT('',(1.87206,2.05286,0.00000));
#105=CARTESIAN_POINT('',(1.87206,2.12234,0.00000));
#106=CARTESIAN_POINT('',(1.87206,2.14706,0.00000));
#107=CARTESIAN_POINT('',(3.50000,2.14706,0.00000));
#108=CARTESIAN_POINT('',(1.69122,2.14706,0.30000));
#109=CARTESIAN_POINT('',(1.75000,2.14706,0.30000));
#110=CARTESIAN_POINT('',(1.80878,2.14706,0.30000));
#111=CARTESIAN_POINT('',(3.50000,2.25000,0.30000));
#112=CARTESIAN_POINT('',(1.87206,2.25000,0.30000));
#113=CARTESIAN_POINT('',(1.62794,2.25000,0.30000));
#114=CARTESIAN_POINT('',(0.00000,2.25000,0.30000));
#115=CARTESIAN_POINT('',(0.00000,2.25000,0.00000));
#116=CARTESIAN_POINT('',(1.62794,2.25000,0.00000));
#117=CARTESIAN_POINT('',(1.87206,2.25000,0.00000));
#118=CARTESIAN_POINT('',(3.50000,2.25000,0.00000));
#119=CARTESIAN_POINT('',(1.80878,2.14706,0.00000));
#120=CARTESIAN_POINT('',(1.75000,2.14706,0.00000));
#121=CARTESIAN_POINT('',(1.69122,2.14706,0.00000));
#122=CARTESIAN_POINT('',(1.81157,0.27410,0.30000));
#123=CARTESIAN_POINT('',(1.82678,0.24252,0.30000));
#124=CARTESIAN_POINT('',(1.80568,0.28068,0.30000));
#125=CARTESIAN_POINT('',(1.78417,0.29595,0.30000));
#126=CARTESIAN_POINT('',(1.75000,0.30375,0.30000));
#127=CARTESIAN_POINT('',(1.71583,0.29595,0.30000));
#128=CARTESIAN_POINT('',(1.69432,0.28068,0.30000));
#129=CARTESIAN_POINT('',(1.68843,0.27410,0.30000));
#130=CARTESIAN_POINT('',(1.67322,0.24252,0.30000));
#131=CARTESIAN_POINT('',(1.67322,0.20748,0.30000));
#132=CARTESIAN_POINT('',(1.68843,0.17590,0.30000));
#133=CARTESIAN_POINT('',(1.69432,0.16932,0.30000));
#134=CARTESIAN_POINT('',(1.71583,0.15405,0.30000));
#135=CARTESIAN_POINT('',(1.75000,0.14625,0.30000));
#136=CARTESIAN_POINT('',(1.78417,0.15405,0.30000));
#137=CARTESIAN_POINT('',(1.80568,0.16932,0.30000));
#138=CARTESIAN_POINT('',(1.81157,0.17590,0.30000));
#139=CARTESIAN_POINT('',(1.82678,0.20748,0.30000));
#140=CARTESIAN_POINT('',(1.81157,0.27410,0.00000));
#141=CARTESIAN_POINT('',(1.82678,0.24252,0.00000));
#142=CARTESIAN_POINT('',(1.80568,0.28068,0.00000));
#143=CARTESIAN_POINT('',(1.78417,0.29595,0.00000));
#144=CARTESIAN_POINT('',(1.75000,0.30375,0.00000));
#145=CARTESIAN_POINT('',(1.71583,0.29595,0.00000));
#146=CARTESIAN_POINT('',(1.69432,0.28068,0.00000));
#147=CARTESIAN_POINT('',(1.68843,0.27410,0.00000));
#148=CARTESIAN_POINT('',(1.67322,0.24252,0.00000));
#149=CARTESIAN_POINT('',(1.67322,0.20748,0.00000));
#150=CARTESIAN_POINT('',(1.68843,0.17590,0.00000));
#151=CARTESIAN_POINT('',(1.69432,0.16932,0.00000));
#152=CARTESIAN_POINT('',(1.71583,0.15405,0.00000));
#153=CARTESIAN_POINT('',(1.75000,0.14625,0.00000));
#154=CARTESIAN_POINT('',(1.78417,0.15405,0.00000));
#155=CARTESIAN_POINT('',(1.80568,0.16932,0.00000));
#156=CARTESIAN_POINT('',(1.81157,0.17590,0.00000));
#157=CARTESIAN_POINT('',(1.82678,0.20748,0.00000));
#158=CARTESIAN_POINT('',(1.81157,2.07410,0.30000));
#159=CARTESIAN_POINT('',(1.82678,2.04252,0.30000));
#160=CARTESIAN_POINT('',(1.80568,2.08068,0.30000));
#161=CARTESIAN_POINT('',(1.78417,2.09595,0.30000));
#162=CARTESIAN_POINT('',(1.75000,2.10375,0.30000));
#163=CARTESIAN_POINT('',(1.71583,2.09595,0.30000));
#164=CARTESIAN_POINT('',(1.69432,2.08068,0.30000));
#165=CARTESIAN_POINT('',(1.68843,2.07410,0.30000));
#166=CARTESIAN_POINT('',(1.67322,2.04252,0.30000));
#167=CARTESIAN_POINT('',(1.67322,2.00748,0.30000));
#168=CARTESIAN_POINT('',(1.68843,1.97590,0.30000));
#169=CARTESIAN_POINT('',(1.69432,1.96932,0.30000));
#170=CARTESIAN_POINT('',(1.71583,1.95405,0.30000));
#171=CARTESIAN_POINT('',(1.75000,1.94625,0.30000));
#172=CARTESIAN_POINT('',(1.78417,1.95405,0.30000));
#173=CARTESIAN_POINT('',(1.80568,1.96932,0.30000));
#174=CARTESIAN_POINT('',(1.81157,1.97590,0.30000));
#175=CARTESIAN_POINT('',(1.82678,2.00748,0.30000));
#176=CARTESIAN_POINT('',(1.81157,2.07410,0.00000));
#177=CARTESIAN_POINT('',(1.82678,2.04252,0.00000));
#178=CARTESIAN_POINT('',(1.80568,2.08068,0.00000));
#179=CARTESIAN_POINT('',(1.78417,2.09595,0.00000));
#180=CARTESIAN_POINT('',(1.75000,2.10375,0.00000));
#181=CARTESIAN_POINT('',(1.71583,2.09595,0.00000));
#182=CARTESIAN_POINT('',(1.69432,2.08068,0.00000));
#183=CARTESIAN_POINT('',(1.68843,2.07410,0.00000));
#184=CARTESIAN_POINT('',(1.67322,2.04252,0.00000));
#185=CARTESIAN_POINT('',(1.67322,2.00748,0.00000));
#186=CARTESIAN_POINT('',(1.68843,1.97590,0.00000));
#187=CARTESIAN_POINT('',(1.69432,1.96932,0.00000));
#188=CARTESIAN_POINT('',(1.71583,1.95405,0.00000));
#189=CARTESIAN_POINT('',(1.75000,1.94625,0.00000));
#190=CARTESIAN_POINT('',(1.78417,1.95405,0.00000));
#191=CARTESIAN_POINT('',(1.80568,1.96932,0.00000));
#192=CARTESIAN_POINT('',(1.81157,1.97590,0.00000));
#193=CARTESIAN_POINT('',(1.82678,2.00748,0.00000));
#194=CARTESIAN_POINT('',(0.00000,0.00000,0.30000));
#195=CARTESIAN_POINT('',(0.00000,0.02794,0.30000));
#196=CARTESIAN_POINT('',(0.00000,0.27206,0.30000));
#197=CARTESIAN_POINT('',(0.00000,1.97794,0.30000));
#198=CARTESIAN_POINT('',(0.00000,2.22206,0.30000));
#199=CARTESIAN_POINT('',(0.00000,2.25000,0.30000));
#200=CARTESIAN_POINT('',(0.00000,2.25000,0.62794));
#201=CARTESIAN_POINT('',(0.00000,2.22206,0.62794));
#202=CARTESIAN_POINT('',(0.00000,2.15878,0.62794));
#203=CARTESIAN_POINT('',(0.00000,2.10000,0.62794));
#204=CARTESIAN_POINT('',(0.00000,2.04122,0.62794));
#205=CARTESIAN_POINT('',(0.00000,1.97794,0.62794));
#206=CARTESIAN_POINT('',(0.00000,0.27206,0.62794));
#207=CARTESIAN_POINT('',(0.00000,0.20878,0.62794));
#208=CARTESIAN_POINT('',(0.00000,0.15000,0.62794));
#209=CARTESIAN_POINT('',(0.00000,0.09122,0.62794));
#210=CARTESIAN_POINT('',(0.00000,0.02794,0.62794));
#211=CARTESIAN_POINT('',(0.00000,0.00000,0.62794));
#212=CARTESIAN_POINT('',(0.34500,0.00000,0.62794));
#213=CARTESIAN_POINT('',(0.34500,0.02794,0.62794));
#214=CARTESIAN_POINT('',(0.34500,0.09122,0.62794));
#215=CARTESIAN_POINT('',(0.34500,0.15000,0.62794));
#216=CARTESIAN_POINT('',(0.34500,0.20878,0.62794));
#217=CARTESIAN_POINT('',(0.34500,0.27206,0.62794));
#218=CARTESIAN_POINT('',(0.34500,1.97794,0.62794));
#219=CARTESIAN_POINT('',(0.34500,2.04122,0.62794));
#220=CARTESIAN_POINT('',(0.34500,2.10000,0.62794));
#221=CARTESIAN_POINT('',(0.34500,2.15878,0.62794));
#222=CARTESIAN_POINT('',(0.34500,2.22206,0.62794));
#223=CARTESIAN_POINT('',(0.34500,2.25000,0.62794));
#224=CARTESIAN_POINT('',(0.34500,2.25000,0.30000));
#225=CARTESIAN_POINT('',(0.34500,2.22206,0.30000));
#226=CARTESIAN_POINT('',(0.34500,1.97794,0.30000));
#227=CARTESIAN_POINT('',(0.34500,0.27206,0.30000));
#228=CARTESIAN_POINT('',(0.34500,0.02794,0.30000));
#229=CARTESIAN_POINT('',(0.34500,0.00000,0.30000));
#230=CARTESIAN_POINT('',(0.00000,0.02794,0.65266));
#231=CARTESIAN_POINT('',(0.00000,0.02794,0.72214));
#232=CARTESIAN_POINT('',(0.00000,0.02794,0.77786));
#233=CARTESIAN_POINT('',(0.00000,0.02794,0.84734));
#234=CARTESIAN_POINT('',(0.00000,0.02794,0.87206));
#235=CARTESIAN_POINT('',(0.00000,0.00000,0.87206));
#236=CARTESIAN_POINT('',(0.00000,1.97794,0.65266));
#237=CARTESIAN_POINT('',(0.00000,1.97794,0.72214));
#238=CARTESIAN_POINT('',(0.00000,1.97794,0.77786));
#239=CARTESIAN_POINT('',(0.00000,1.97794,0.84734));
#240=CARTESIAN_POINT('',(0.00000,1.97794,0.87206));
#241=CARTESIAN_POINT('',(0.00000,0.27206,0.87206));
#242=CARTESIAN_POINT('',(0.00000,0.27206,0.84734));
#243=CARTESIAN_POINT('',(0.00000,0.27206,0.77786));
#244=CARTESIAN_POINT('',(0.00000,0.27206,0.72214));
#245=CARTESIAN_POINT('',(0.00000,0.27206,0.65266));
#246=CARTESIAN_POINT('',(0.00000,2.25000,0.87206));
#247=CARTESIAN_POINT('',(0.00000,2.22206,0.87206));
#248=CARTESIAN_POINT('',(0.00000,2.22206,0.84734));
#249=CARTESIAN_POINT('',(0.00000,2.22206,0.77786));
#250=CARTESIAN_POINT('',(0.00000,2.22206,0.72214));
#251=CARTESIAN_POINT('',(0.00000,2.22206,0.65266));
#252=CARTESIAN_POINT('',(0.34500,0.00000,0.87206));
#253=CARTESIAN_POINT('',(0.34500,0.02794,0.87206));
#254=CARTESIAN_POINT('',(0.34500,0.02794,0.84734));
#255=CARTESIAN_POINT('',(0.34500,0.02794,0.77786));
#256=CARTESIAN_POINT('',(0.34500,0.02794,0.72214));
#257=CARTESIAN_POINT('',(0.34500,0.02794,0.65266));
#258=CARTESIAN_POINT('',(0.34500,0.27206,0.65266));
#259=CARTESIAN_POINT('',(0.34500,0.27206,0.72214));
#260=CARTESIAN_POINT('',(0.34500,0.27206,0.77786));
#261=CARTESIAN_POINT('',(0.34500,0.27206,0.84734));
#262=CARTESIAN_POINT('',(0.34500,0.27206,0.87206));
#263=CARTESIAN_POINT('',(0.34500,1.97794,0.87206));
#264=CARTESIAN_POINT('',(0.34500,1.97794,0.84734));
#265=CARTESIAN_POINT('',(0.34500,1.97794,0.77786));
#266=CARTESIAN_POINT('',(0.34500,1.97794,0.72214));
#267=CARTESIAN_POINT('',(0.34500,1.97794,0.65266));
#268=CARTESIAN_POINT('',(0.34500,2.22206,0.65266));
#269=CARTESIAN_POINT('',(0.34500,2.22206,0.72214));
#270=CARTESIAN_POINT('',(0.34500,2.22206,0.77786));
#271=CARTESIAN_POINT('',(0.34500,2.22206,0.84734));
#272=CARTESIAN_POINT('',(0.34500,2.22206,0.87206));
#273=CARTESIAN_POINT('',(0.34500,2.25000,0.87206));
#274=CARTESIAN_POINT('',(0.00000,0.09122,0.87206));
#275=CARTESIAN_POINT('',(0.00000,0.15000,0.87206));
#276=CARTESIAN_POINT('',(0.00000,0.20878,0.87206));
#277=CARTESIAN_POINT('',(0.00000,2.04122,0.87206));
#278=CARTESIAN_POINT('',(0.00000,2.10000,0.87206));
#279=CARTESIAN_POINT('',(0.00000,2.15878,0.87206));
#280=CARTESIAN_POINT('',(0.00000,2.25000,1.50000));
#281=CARTESIAN_POINT('',(0.00000,2.22206,1.50000));
#282=CARTESIAN_POINT('',(0.00000,1.97794,1.50000));
#283=CARTESIAN_POINT('',(0.00000,0.27206,1.50000));
#284=CARTESIAN_POINT('',(0.00000,0.02794,1.50000));
#285=CARTESIAN_POINT('',(0.00000,0.00000,1.50000));
#286=CARTESIAN_POINT('',(0.34500,0.00000,1.50000));
#287=CARTESIAN_POINT('',(0.34500,0.02794,1.50000));
#288=CARTESIAN_POINT('',(0.34500,0.27206,1.50000));
#289=CARTESIAN_POINT('',(0.34500,1.97794,1.50000));
#290=CARTESIAN_POINT('',(0.34500,2.22206,1.50000));
#291=CARTESIAN_POINT('',(0.34500,2.25000,1.50000));
#292=CARTESIAN_POINT('',(0.34500,2.15878,0.87206));
#293=CARTESIAN_POINT('',(0.34500,2.10000,0.87206));
#294=CARTESIAN_POINT('',(0.34500,2.04122,0.87206));
#295=CARTESIAN_POINT('',(0.34500,0.20878,0.87206));
#296=CARTESIAN_POINT('',(0.34500,0.15000,0.87206));
#297=CARTESIAN_POINT('',(0.34500,0.09122,0.87206));
#298=CARTESIAN_POINT('',(0.00000,0.21157,0.79910));
#299=CARTESIAN_POINT('',(0.00000,0.22678,0.76752));
#300=CARTESIAN_POINT('',(0.00000,0.20568,0.80568));
#301=CARTESIAN_POINT('',(0.00000,0.18417,0.82095));
#302=CARTESIAN_POINT('',(0.00000,0.15000,0.82875));
#303=CARTESIAN_POINT('',(0.00000,0.11583,0.82095));
#304=CARTESIAN_POINT('',(0.00000,0.09432,0.80568));
#305=CARTESIAN_POINT('',(0.00000,0.08843,0.79910));
#306=CARTESIAN_POINT('',(0.00000,0.07322,0.76752));
#307=CARTESIAN_POINT('',(0.00000,0.07322,0.73248));
#308=CARTESIAN_POINT('',(0.00000,0.08843,0.70090));
#309=CARTESIAN_POINT('',(0.00000,0.09432,0.69432));
#310=CARTESIAN_POINT('',(0.00000,0.11583,0.67905));
#311=CARTESIAN_POINT('',(0.00000,0.15000,0.67125));
#312=CARTESIAN_POINT('',(0.00000,0.18417,0.67905));
#313=CARTESIAN_POINT('',(0.00000,0.20568,0.69432));
#314=CARTESIAN_POINT('',(0.00000,0.21157,0.70090));
#315=CARTESIAN_POINT('',(0.00000,0.22678,0.73248));
#316=CARTESIAN_POINT('',(0.34500,0.21157,0.79910));
#317=CARTESIAN_POINT('',(0.34500,0.22678,0.76752));
#318=CARTESIAN_POINT('',(0.34500,0.20568,0.80568));
#319=CARTESIAN_POINT('',(0.34500,0.18417,0.82095));
#320=CARTESIAN_POINT('',(0.34500,0.15000,0.82875));
#321=CARTESIAN_POINT('',(0.34500,0.11583,0.82095));
#322=CARTESIAN_POINT('',(0.34500,0.09432,0.80568));
#323=CARTESIAN_POINT('',(0.34500,0.08843,0.79910));
#324=CARTESIAN_POINT('',(0.34500,0.07322,0.76752));
#325=CARTESIAN_POINT('',(0.34500,0.07322,0.73248));
#326=CARTESIAN_POINT('',(0.34500,0.08843,0.70090));
#327=CARTESIAN_POINT('',(0.34500,0.09432,0.69432));
#328=CARTESIAN_POINT('',(0.34500,0.11583,0.67905));
#329=CARTESIAN_POINT('',(0.34500,0.15000,0.67125));
#330=CARTESIAN_POINT('',(0.34500,0.18417,0.67905));
#331=CARTESIAN_POINT('',(0.34500,0.20568,0.69432));
#332=CARTESIAN_POINT('',(0.34500,0.21157,0.70090));
#333=CARTESIAN_POINT('',(0.34500,0.22678,0.73248));
#334=CARTESIAN_POINT('',(0.00000,2.16157,0.79910));
#335=CARTESIAN_POINT('',(0.00000,2.17678,0.76752));
#336=CARTESIAN_POINT('',(0.00000,2.15568,0.80568));
#337=CARTESIAN_POINT('',(0.00000,2.13417,0.82095));
#338=CARTESIAN_POINT('',(0.00000,2.10000,0.82875));
#339=CARTESIAN_POINT('',(0.00000,2.06583,0.82095));
#340=CARTESIAN_POINT('',(0.00000,2.04432,0.80568));
#341=CARTESIAN_POINT('',(0.00000,2.03843,0.79910));
#342=CARTESIAN_POINT('',(0.00000,2.02322,0.76752));
#343=CARTESIAN_POINT('',(0.00000,2.02322,0.73248));
#344=CARTESIAN_POINT('',(0.00000,2.03843,0.70090));
#345=CARTESIAN_POINT('',(0.00000,2.04432,0.69432));
#346=CARTESIAN_POINT('',(0.00000,2.06583,0.67905));
#347=CARTESIAN_POINT('',(0.00000,2.10000,0.67125));
#348=CARTESIAN_POINT('',(0.00000,2.13417,0.67905));
#349=CARTESIAN_POINT('',(0.00000,2.15568,0.69432));
#350=CARTESIAN_POINT('',(0.00000,2.16157,0.70090));
#351=CARTESIAN_POINT('',(0.00000,2.17678,0.73248));
#352=CARTESIAN_POINT('',(0.34500,2.16157,0.79910));
#353=CARTESIAN_POINT('',(0.34500,2.17678,0.76752));
#354=CARTESIAN_POINT('',(0.34500,2.15568,0.80568));
#355=CARTESIAN_POINT('',(0.34500,2.13417,0.82095));
#356=CARTESIAN_POINT('',(0.34500,2.10000,0.82875));
#357=CARTESIAN_POINT('',(0.34500,2.06583,0.82095));
#358=CARTESIAN_POINT('',(0.34500,2.04432,0.80568));
#359=CARTESIAN_POINT('',(0.34500,2.03843,0.79910));
#360=CARTESIAN_POINT('',(0.34500,2.02322,0.76752));
#361=CARTESIAN_POINT('',(0.34500,2.02322,0.73248));
#362=CARTESIAN_POINT('',(0.34500,2.03843,0.70090));
#363=CARTESIAN_POINT('',(0.34500,2.04432,0.69432));
#364=CARTESIAN_POINT('',(0.34500,2.06583,0.67905));
#365=CARTESIAN_POINT('',(0.34500,2.10000,0.67125));
#366=CARTESIAN_POINT('',(0.34500,2.13417,0.67905));
#367=CARTESIAN_POINT('',(0.34500,2.15568,0.69432));
#368=CARTESIAN_POINT('',(0.34500,2.16157,0.70090));
#369=CARTESIAN_POINT('',(0.34500,2.17678,0.73248));
#370=POLY_LOOP('',(#18,#19,#20,#21,#22,#23,#24,#25,#26,#27,#28));
#371=FACE_OUTER_BOUND('',#370,.T.);
#372=FACE('',(#371));
#373=POLY_LOOP('',(#29,#30,#31,#32,#33,#34,#35,#36,#37,#38,#39));
#374=FACE_OUTER_BOUND('',#373,.T.);
#375=FACE('',(#374));
#376=POLY_LOOP('',(#28,#27,#40,#41,#42,#43,#44,#45));
#377=FACE_OUTER_BOUND('',#376,.T.);
#378=FACE('',(#377));
#379=POLY_LOOP('',(#23,#22,#46,#47,#48,#49,#50,#51));
#380=FACE_OUTER_BOUND('',#379,.T.);
#381=FACE('',(#380));
#382=POLY_LOOP('',(#52,#53,#54,#55,#56,#57,#30,#29));
#383=FACE_OUTER_BOUND('',#382,.T.);
#384=FACE('',(#383));
#385=POLY_LOOP('',(#58,#59,#60,#61,#62,#63,#35,#34));
#386=FACE_OUTER_BOUND('',#385,.T.);
#387=FACE('',(#386));
#388=POLY_LOOP('',(#45,#44,#64,#65,#66,#47,#46,#67,#68,#69,#70,#71,#72,#73));
#389=FACE_OUTER_BOUND('',#388,.T.);
#390=FACE('',(#389));
#391=POLY_LOOP('',(#74,#75,#76,#77,#78,#79,#80,#63,#62,#81,#82,#83,#53,#52));
#392=FACE_OUTER_BOUND('',#391,.T.);
#393=FACE('',(#392));
#394=POLY_LOOP('',(#73,#72,#84,#85,#86,#87,#88,#89));
#395=FACE_OUTER_BOUND('',#394,.T.);
#396=FACE('',(#395));
#397=POLY_LOOP('',(#68,#67,#90,#91,#92,#93,#94,#95));
#398=FACE_OUTER_BOUND('',#397,.T.);
#399=FACE('',(#398));
#400=POLY_LOOP('',(#96,#97,#98,#99,#100,#101,#75,#74));
#401=FACE_OUTER_BOUND('',#400,.T.);
#402=FACE('',(#401));
#403=POLY_LOOP('',(#102,#103,#104,#105,#106,#107,#80,#79));
#404=FACE_OUTER_BOUND('',#403,.T.);
#405=FACE('',(#404));
#406=POLY_LOOP('',(#89,#88,#108,#109,#110,#91,#90,#111,#112,#113,#114));
#407=FACE_OUTER_BOUND('',#406,.T.);
#408=FACE('',(#407));
#409=POLY_LOOP('',(#115,#116,#117,#118,#107,#106,#119,#120,#121,#97,#96));
#410=FACE_OUTER_BOUND('',#409,.T.);
#411=FACE('',(#410));
#412=POLY_LOOP('',(#39,#38,#19,#18));
#413=FACE_OUTER_BOUND('',#412,.T.);
#414=FACE('',(#413));
#415=POLY_LOOP('',(#38,#37,#20,#19));
#416=FACE_OUTER_BOUND('',#415,.T.);
#417=FACE('',(#416));
#418=POLY_LOOP('',(#37,#36,#21,#20));
#419=FACE_OUTER_BOUND('',#418,.T.);
#420=FACE('',(#419));
#421=POLY_LOOP('',(#114,#113,#116,#115));
#422=FACE_OUTER_BOUND('',#421,.T.);
#423=FACE('',(#422));
#424=POLY_LOOP('',(#113,#112,#117,#116));
#425=FACE_OUTER_BOUND('',#424,.T.);
#426=FACE('',(#425));
#427=POLY_LOOP('',(#112,#111,#118,#117));
#428=FACE_OUTER_BOUND('',#427,.T.);
#429=FACE('',(#428));
#430=POLY_LOOP('',(#18,#28,#29,#39));
#431=FACE_OUTER_BOUND('',#430,.T.);
#432=FACE('',(#431));
#433=POLY_LOOP('',(#28,#45,#52,#29));
#434=FACE_OUTER_BOUND('',#433,.T.);
#435=FACE('',(#434));
#436=POLY_LOOP('',(#45,#73,#74,#52));
#437=FACE_OUTER_BOUND('',#436,.T.);
#438=FACE('',(#437));
#439=POLY_LOOP('',(#73,#89,#96,#74));
#440=FACE_OUTER_BOUND('',#439,.T.);
#441=FACE('',(#440));
#442=POLY_LOOP('',(#89,#114,#115,#96));
#443=FACE_OUTER_BOUND('',#442,.T.);
#444=FACE('',(#443));
#445=POLY_LOOP('',(#36,#35,#22,#21));
#446=FACE_OUTER_BOUND('',#445,.T.);
#447=FACE('',(#446));
#448=POLY_LOOP('',(#35,#63,#46,#22));
#449=FACE_OUTER_BOUND('',#448,.T.);
#450=FACE('',(#449));
#451=POLY_LOOP('',(#63,#80,#67,#46));
#452=FACE_OUTER_BOUND('',#451,.T.);
#453=FACE('',(#452));
#454=POLY_LOOP('',(#80,#107,#90,#67));
#455=FACE_OUTER_BOUND('',#454,.T.);
#456=FACE('',(#455));
#457=POLY_LOOP('',(#107,#118,#111,#90));
#458=FACE_OUTER_BOUND('',#457,.T.);
#459=FACE('',(#458));
#460=POLY_LOOP('',(#49,#48,#122,#123));
#461=FACE_OUTER_BOUND('',#460,.T.);
#462=FACE('',(#461));
#463=POLY_LOOP('',(#48,#47,#124,#122));
#464=FACE_OUTER_BOUND('',#463,.T.);
#465=FACE('',(#464));
#466=POLY_LOOP('',(#47,#66,#125,#124));
#467=FACE_OUTER_BOUND('',#466,.T.);
#468=FACE('',(#467));
#469=POLY_LOOP('',(#66,#65,#126,#125));
#470=FACE_OUTER_BOUND('',#469,.T.);
#471=FACE('',(#470));
#472=POLY_LOOP('',(#65,#64,#127,#126));
#473=FACE_OUTER_BOUND('',#472,.T.);
#474=FACE('',(#473));
#475=POLY_LOOP('',(#64,#44,#128,#127));
#476=FACE_OUTER_BOUND('',#475,.T.);
#477=FACE('',(#476));
#478=POLY_LOOP('',(#44,#43,#129,#128));
#479=FACE_OUTER_BOUND('',#478,.T.);
#480=FACE('',(#479));
#481=POLY_LOOP('',(#43,#42,#130,#129));
#482=FACE_OUTER_BOUND('',#481,.T.);
#483=FACE('',(#482));
#484=POLY_LOOP('',(#42,#41,#131,#130));
#485=FACE_OUTER_BOUND('',#484,.T.);
#486=FACE('',(#485));
#487=POLY_LOOP('',(#41,#40,#132,#131));
#488=FACE_OUTER_BOUND('',#487,.T.);
#489=FACE('',(#488));
#490=POLY_LOOP('',(#40,#27,#133,#132));
#491=FACE_OUTER_BOUND('',#490,.T.);
#492=FACE('',(#491));
#493=POLY_LOOP('',(#27,#26,#134,#133));
#494=FACE_OUTER_BOUND('',#493,.T.);
#495=FACE('',(#494));
#496=POLY_LOOP('',(#26,#25,#135,#134));
#497=FACE_OUTER_BOUND('',#496,.T.);
#498=FACE('',(#497));
#499=POLY_LOOP('',(#25,#24,#136,#135));
#500=FACE_OUTER_BOUND('',#499,.T.);
#501=FACE('',(#500));
#502=POLY_LOOP('',(#24,#23,#137,#136));
#503=FACE_OUTER_BOUND('',#502,.T.);
#504=FACE('',(#503));
#505=POLY_LOOP('',(#23,#51,#138,#137));
#506=FACE_OUTER_BOUND('',#505,.T.);
#507=FACE('',(#506));
#508=POLY_LOOP('',(#51,#50,#139,#138));
#509=FACE_OUTER_BOUND('',#508,.T.);
#510=FACE('',(#509));
#511=POLY_LOOP('',(#50,#49,#123,#139));
#512=FACE_OUTER_BOUND('',#511,.T.);
#513=FACE('',(#512));
#514=POLY_LOOP('',(#123,#122,#140,#141));
#515=FACE_OUTER_BOUND('',#514,.T.);
#516=FACE('',(#515));
#517=POLY_LOOP('',(#122,#124,#142,#140));
#518=FACE_OUTER_BOUND('',#517,.T.);
#519=FACE('',(#518));
#520=POLY_LOOP('',(#124,#125,#143,#142));
#521=FACE_OUTER_BOUND('',#520,.T.);
#522=FACE('',(#521));
#523=POLY_LOOP('',(#125,#126,#144,#143));
#524=FACE_OUTER_BOUND('',#523,.T.);
#525=FACE('',(#524));
#526=POLY_LOOP('',(#126,#127,#145,#144));
#527=FACE_OUTER_BOUND('',#526,.T.);
#528=FACE('',(#527));
#529=POLY_LOOP('',(#127,#128,#146,#145));
#530=FACE_OUTER_BOUND('',#529,.T.);
#531=FACE('',(#530));
#532=POLY_LOOP('',(#128,#129,#147,#146));
#533=FACE_OUTER_BOUND('',#532,.T.);
#534=FACE('',(#533));
#535=POLY_LOOP('',(#129,#130,#148,#147));
#536=FACE_OUTER_BOUND('',#535,.T.);
#537=FACE('',(#536));
#538=POLY_LOOP('',(#130,#131,#149,#148));
#539=FACE_OUTER_BOUND('',#538,.T.);
#540=FACE('',(#539));
#541=POLY_LOOP('',(#131,#132,#150,#149));
#542=FACE_OUTER_BOUND('',#541,.T.);
#543=FACE('',(#542));
#544=POLY_LOOP('',(#132,#133,#151,#150));
#545=FACE_OUTER_BOUND('',#544,.T.);
#546=FACE('',(#545));
#547=POLY_LOOP('',(#133,#134,#152,#151));
#548=FACE_OUTER_BOUND('',#547,.T.);
#549=FACE('',(#548));
#550=POLY_LOOP('',(#134,#135,#153,#152));
#551=FACE_OUTER_BOUND('',#550,.T.);
#552=FACE('',(#551));
#553=POLY_LOOP('',(#135,#136,#154,#153));
#554=FACE_OUTER_BOUND('',#553,.T.);
#555=FACE('',(#554));
#556=POLY_LOOP('',(#136,#137,#155,#154));
#557=FACE_OUTER_BOUND('',#556,.T.);
#558=FACE('',(#557));
#559=POLY_LOOP('',(#137,#138,#156,#155));
#560=FACE_OUTER_BOUND('',#559,.T.);
#561=FACE('',(#560));
#562=POLY_LOOP('',(#138,#139,#157,#156));
#563=FACE_OUTER_BOUND('',#562,.T.);
#564=FACE('',(#563));
#565=POLY_LOOP('',(#139,#123,#141,#157));
#566=FACE_OUTER_BOUND('',#565,.T.);
#567=FACE('',(#566));
#568=POLY_LOOP('',(#141,#140,#61,#60));
#569=FACE_OUTER_BOUND('',#568,.T.);
#570=FACE('',(#569));
#571=POLY_LOOP('',(#140,#142,#62,#61));
#572=FACE_OUTER_BOUND('',#571,.T.);
#573=FACE('',(#572));
#574=POLY_LOOP('',(#142,#143,#81,#62));
#575=FACE_OUTER_BOUND('',#574,.T.);
#576=FACE('',(#575));
#577=POLY_LOOP('',(#143,#144,#82,#81));
#578=FACE_OUTER_BOUND('',#577,.T.);
#579=FACE('',(#578));
#580=POLY_LOOP('',(#144,#145,#83,#82));
#581=FACE_OUTER_BOUND('',#580,.T.);
#582=FACE('',(#581));
#583=POLY_LOOP('',(#145,#146,#53,#83));
#584=FACE_OUTER_BOUND('',#583,.T.);
#585=FACE('',(#584));
#586=POLY_LOOP('',(#146,#147,#54,#53));
#587=FACE_OUTER_BOUND('',#586,.T.);
#588=FACE('',(#587));
#589=POLY_LOOP('',(#147,#148,#55,#54));
#590=FACE_OUTER_BOUND('',#589,.T.);
#591=FACE('',(#590));
#592=POLY_LOOP('',(#148,#149,#56,#55));
#593=FACE_OUTER_BOUND('',#592,.T.);
#594=FACE('',(#593));
#595=POLY_LOOP('',(#149,#150,#57,#56));
#596=FACE_OUTER_BOUND('',#595,.T.);
#597=FACE('',(#596));
#598=POLY_LOOP('',(#150,#151,#30,#57));
#599=FACE_OUTER_BOUND('',#598,.T.);
#600=FACE('',(#599));
#601=POLY_LOOP('',(#151,#152,#31,#30));
#602=FACE_OUTER_BOUND('',#601,.T.);
#603=FACE('',(#602));
#604=POLY_LOOP('',(#152,#153,#32,#31));
#605=FACE_OUTER_BOUND('',#604,.T.);
#606=FACE('',(#605));
#607=POLY_LOOP('',(#153,#154,#33,#32));
#608=FACE_OUTER_BOUND('',#607,.T.);
#609=FACE('',(#608));
#610=POLY_LOOP('',(#154,#155,#34,#33));
#611=FACE_OUTER_BOUND('',#610,.T.);
#612=FACE('',(#611));
#613=POLY_LOOP('',(#155,#156,#58,#34));
#614=FACE_OUTER_BOUND('',#613,.T.);
#615=FACE('',(#614));
#616=POLY_LOOP('',(#156,#157,#59,#58));
#617=FACE_OUTER_BOUND('',#616,.T.);
#618=FACE('',(#617));
#619=POLY_LOOP('',(#157,#141,#60,#59));
#620=FACE_OUTER_BOUND('',#619,.T.);
#621=FACE('',(#620));
#622=POLY_LOOP('',(#93,#92,#158,#159));
#623=FACE_OUTER_BOUND('',#622,.T.);
#624=FACE('',(#623));
#625=POLY_LOOP('',(#92,#91,#160,#158));
#626=FACE_OUTER_BOUND('',#625,.T.);
#627=FACE('',(#626));
#628=POLY_LOOP('',(#91,#110,#161,#160));
#629=FACE_OUTER_BOUND('',#628,.T.);
#630=FACE('',(#629));
#631=POLY_LOOP('',(#110,#109,#162,#161));
#632=FACE_OUTER_BOUND('',#631,.T.);
#633=FACE('',(#632));
#634=POLY_LOOP('',(#109,#108,#163,#162));
#635=FACE_OUTER_BOUND('',#634,.T.);
#636=FACE('',(#635));
#637=POLY_LOOP('',(#108,#88,#164,#163));
#638=FACE_OUTER_BOUND('',#637,.T.);
#639=FACE('',(#638));
#640=POLY_LOOP('',(#88,#87,#165,#164));
#641=FACE_OUTER_BOUND('',#640,.T.);
#642=FACE('',(#641));
#643=POLY_LOOP('',(#87,#86,#166,#165));
#644=FACE_OUTER_BOUND('',#643,.T.);
#645=FACE('',(#644));
#646=POLY_LOOP('',(#86,#85,#167,#166));
#647=FACE_OUTER_BOUND('',#646,.T.);
#648=FACE('',(#647));
#649=POLY_LOOP('',(#85,#84,#168,#167));
#650=FACE_OUTER_BOUND('',#649,.T.);
#651=FACE('',(#650));
#652=POLY_LOOP('',(#84,#72,#169,#168));
#653=FACE_OUTER_BOUND('',#652,.T.);
#654=FACE('',(#653));
#655=POLY_LOOP('',(#72,#71,#170,#169));
#656=FACE_OUTER_BOUND('',#655,.T.);
#657=FACE('',(#656));
#658=POLY_LOOP('',(#71,#70,#171,#170));
#659=FACE_OUTER_BOUND('',#658,.T.);
#660=FACE('',(#659));
#661=POLY_LOOP('',(#70,#69,#172,#171));
#662=FACE_OUTER_BOUND('',#661,.T.);
#663=FACE('',(#662));
#664=POLY_LOOP('',(#69,#68,#173,#172));
#665=FACE_OUTER_BOUND('',#664,.T.);
#666=FACE('',(#665));
#667=POLY_LOOP('',(#68,#95,#174,#173));
#668=FACE_OUTER_BOUND('',#667,.T.);
#669=FACE('',(#668));
#670=POLY_LOOP('',(#95,#94,#175,#174));
#671=FACE_OUTER_BOUND('',#670,.T.);
#672=FACE('',(#671));
#673=POLY_LOOP('',(#94,#93,#159,#175));
#674=FACE_OUTER_BOUND('',#673,.T.);
#675=FACE('',(#674));
#676=POLY_LOOP('',(#159,#158,#176,#177));
#677=FACE_OUTER_BOUND('',#676,.T.);
#678=FACE('',(#677));
#679=POLY_LOOP('',(#158,#160,#178,#176));
#680=FACE_OUTER_BOUND('',#679,.T.);
#681=FACE('',(#680));
#682=POLY_LOOP('',(#160,#161,#179,#178));
#683=FACE_OUTER_BOUND('',#682,.T.);
#684=FACE('',(#683));
#685=POLY_LOOP('',(#161,#162,#180,#179));
#686=FACE_OUTER_BOUND('',#685,.T.);
#687=FACE('',(#686));
#688=POLY_LOOP('',(#162,#163,#181,#180));
#689=FACE_OUTER_BOUND('',#688,.T.);
#690=FACE('',(#689));
#691=POLY_LOOP('',(#163,#164,#182,#181));
#692=FACE_OUTER_BOUND('',#691,.T.);
#693=FACE('',(#692));
#694=POLY_LOOP('',(#164,#165,#183,#182));
#695=FACE_OUTER_BOUND('',#694,.T.);
#696=FACE('',(#695));
#697=POLY_LOOP('',(#165,#166,#184,#183));
#698=FACE_OUTER_BOUND('',#697,.T.);
#699=FACE('',(#698));
#700=POLY_LOOP('',(#166,#167,#185,#184));
#701=FACE_OUTER_BOUND('',#700,.T.);
#702=FACE('',(#701));
#703=POLY_LOOP('',(#167,#168,#186,#185));
#704=FACE_OUTER_BOUND('',#703,.T.);
#705=FACE('',(#704));
#706=POLY_LOOP('',(#168,#169,#187,#186));
#707=FACE_OUTER_BOUND('',#706,.T.);
#708=FACE('',(#707));
#709=POLY_LOOP('',(#169,#170,#188,#187));
#710=FACE_OUTER_BOUND('',#709,.T.);
#711=FACE('',(#710));
#712=POLY_LOOP('',(#170,#171,#189,#188));
#713=FACE_OUTER_BOUND('',#712,.T.);
#714=FACE('',(#713));
#715=POLY_LOOP('',(#171,#172,#190,#189));
#716=FACE_OUTER_BOUND('',#715,.T.);
#717=FACE('',(#716));
#718=POLY_LOOP('',(#172,#173,#191,#190));
#719=FACE_OUTER_BOUND('',#718,.T.);
#720=FACE('',(#719));
#721=POLY_LOOP('',(#173,#174,#192,#191));
#722=FACE_OUTER_BOUND('',#721,.T.);
#723=FACE('',(#722));
#724=POLY_LOOP('',(#174,#175,#193,#192));
#725=FACE_OUTER_BOUND('',#724,.T.);
#726=FACE('',(#725));
#727=POLY_LOOP('',(#175,#159,#177,#193));
#728=FACE_OUTER_BOUND('',#727,.T.);
#729=FACE('',(#728));
#730=POLY_LOOP('',(#177,#176,#105,#104));
#731=FACE_OUTER_BOUND('',#730,.T.);
#732=FACE('',(#731));
#733=POLY_LOOP('',(#176,#178,#106,#105));
#734=FACE_OUTER_BOUND('',#733,.T.);
#735=FACE('',(#734));
#736=POLY_LOOP('',(#178,#179,#119,#106));
#737=FACE_OUTER_BOUND('',#736,.T.);
#738=FACE('',(#737));
#739=POLY_LOOP('',(#179,#180,#120,#119));
#740=FACE_OUTER_BOUND('',#739,.T.);
#741=FACE('',(#740));
#742=POLY_LOOP('',(#180,#181,#121,#120));
#743=FACE_OUTER_BOUND('',#742,.T.);
#744=FACE('',(#743));
#745=POLY_LOOP('',(#181,#182,#97,#121));
#746=FACE_OUTER_BOUND('',#745,.T.);
#747=FACE('',(#746));
#748=POLY_LOOP('',(#182,#183,#98,#97));
#749=FACE_OUTER_BOUND('',#748,.T.);
#750=FACE('',(#749));
#751=POLY_LOOP('',(#183,#184,#99,#98));
#752=FACE_OUTER_BOUND('',#751,.T.);
#753=FACE('',(#752));
#754=POLY_LOOP('',(#184,#185,#100,#99));
#755=FACE_OUTER_BOUND('',#754,.T.);
#756=FACE('',(#755));
#757=POLY_LOOP('',(#185,#186,#101,#100));
#758=FACE_OUTER_BOUND('',#757,.T.);
#759=FACE('',(#758));
#760=POLY_LOOP('',(#186,#187,#75,#101));
#761=FACE_OUTER_BOUND('',#760,.T.);
#762=FACE('',(#761));
#763=POLY_LOOP('',(#187,#188,#76,#75));
#764=FACE_OUTER_BOUND('',#763,.T.);
#765=FACE('',(#764));
#766=POLY_LOOP('',(#188,#189,#77,#76));
#767=FACE_OUTER_BOUND('',#766,.T.);
#768=FACE('',(#767));
#769=POLY_LOOP('',(#189,#190,#78,#77));
#770=FACE_OUTER_BOUND('',#769,.T.);
#771=FACE('',(#770));
#772=POLY_LOOP('',(#190,#191,#79,#78));
#773=FACE_OUTER_BOUND('',#772,.T.);
#774=FACE('',(#773));
#775=POLY_LOOP('',(#191,#192,#102,#79));
#776=FACE_OUTER_BOUND('',#775,.T.);
#777=FACE('',(#776));
#778=POLY_LOOP('',(#192,#193,#103,#102));
#779=FACE_OUTER_BOUND('',#778,.T.);
#780=FACE('',(#779));
#781=POLY_LOOP('',(#193,#177,#104,#103));
#782=FACE_OUTER_BOUND('',#781,.T.);
#783=FACE('',(#782));
#784=CLOSED_SHELL('',(#372,#375,#378,#381,#384,#387,#390,#393,#396,#399,#402,#405,#408,#411,#414,#417,#420,#423,#426,#429,#432,#435,#438,#441,#444,#447,#450,#453,#456,#459,#462,#465,#468,#471,#474,#477,#480,#483,#486,#489,#492,#495,#498,#501,#504,#507,#510,#513,#516,#519,#522,#525,#528,#531,#534,#537,#540,#543,#546,#549,#552,#555,#558,#561,#564,#567,#570,#573,#576,#579,#582,#585,#588,#591,#594,#597,#600,#603,#606,#609,#612,#615,#618,#621,#624,#627,#630,#633,#636,#639,#642,#645,#648,#651,#654,#657,#660,#663,#666,#669,#672,#675,#678,#681,#684,#687,#690,#693,#696,#699,#702,#705,#708,#711,#714,#717,#720,#723,#726,#729,#732,#735,#738,#741,#744,#747,#750,#753,#756,#759,#762,#765,#768,#771,#774,#777,#780,#783));
#785=FACETED_BREP('QA-41127 solid 1',#784);
#786=POLY_LOOP('',(#211,#210,#209,#208,#207,#206,#205,#204,#203,#202,#201,#200,#199,#198,#197,#196,#195,#194));
#787=FACE_OUTER_BOUND('',#786,.T.);
#788=FACE('',(#787));
#789=POLY_LOOP('',(#229,#228,#227,#226,#225,#224,#223,#222,#221,#220,#219,#218,#217,#216,#215,#214,#213,#212));
#790=FACE_OUTER_BOUND('',#789,.T.);
#791=FACE('',(#790));
#792=POLY_LOOP('',(#235,#234,#233,#232,#231,#230,#210,#211));
#793=FACE_OUTER_BOUND('',#792,.T.);
#794=FACE('',(#793));
#795=POLY_LOOP('',(#245,#244,#243,#242,#241,#240,#239,#238,#237,#236,#205,#206));
#796=FACE_OUTER_BOUND('',#795,.T.);
#797=FACE('',(#796));
#798=POLY_LOOP('',(#251,#250,#249,#248,#247,#246,#200,#201));
#799=FACE_OUTER_BOUND('',#798,.T.);
#800=FACE('',(#799));
#801=POLY_LOOP('',(#212,#213,#257,#256,#255,#254,#253,#252));
#802=FACE_OUTER_BOUND('',#801,.T.);
#803=FACE('',(#802));
#804=POLY_LOOP('',(#217,#218,#267,#266,#265,#264,#263,#262,#261,#260,#259,#258));
#805=FACE_OUTER_BOUND('',#804,.T.);
#806=FACE('',(#805));
#807=POLY_LOOP('',(#222,#223,#273,#272,#271,#270,#269,#268));
#808=FACE_OUTER_BOUND('',#807,.T.);
#809=FACE('',(#808));
#810=POLY_LOOP('',(#285,#284,#283,#282,#281,#280,#246,#247,#279,#278,#277,#240,#241,#276,#275,#274,#234,#235));
#811=FACE_OUTER_BOUND('',#810,.T.);
#812=FACE('',(#811));
#813=POLY_LOOP('',(#252,#253,#297,#296,#295,#262,#263,#294,#293,#292,#272,#273,#291,#290,#289,#288,#287,#286));
#814=FACE_OUTER_BOUND('',#813,.T.);
#815=FACE('',(#814));
#816=POLY_LOOP('',(#194,#195,#228,#229));
#817=FACE_OUTER_BOUND('',#816,.T.);
#818=FACE('',(#817));
#819=POLY_LOOP('',(#195,#196,#227,#228));
#820=FACE_OUTER_BOUND('',#819,.T.);
#821=FACE('',(#820));
#822=POLY_LOOP('',(#196,#197,#226,#227));
#823=FACE_OUTER_BOUND('',#822,.T.);
#824=FACE('',(#823));
#825=POLY_LOOP('',(#197,#198,#225,#226));
#826=FACE_OUTER_BOUND('',#825,.T.);
#827=FACE('',(#826));
#828=POLY_LOOP('',(#198,#199,#224,#225));
#829=FACE_OUTER_BOUND('',#828,.T.);
#830=FACE('',(#829));
#831=POLY_LOOP('',(#286,#287,#284,#285));
#832=FACE_OUTER_BOUND('',#831,.T.);
#833=FACE('',(#832));
#834=POLY_LOOP('',(#287,#288,#283,#284));
#835=FACE_OUTER_BOUND('',#834,.T.);
#836=FACE('',(#835));
#837=POLY_LOOP('',(#288,#289,#282,#283));
#838=FACE_OUTER_BOUND('',#837,.T.);
#839=FACE('',(#838));
#840=POLY_LOOP('',(#289,#290,#281,#282));
#841=FACE_OUTER_BOUND('',#840,.T.);
#842=FACE('',(#841));
#843=POLY_LOOP('',(#290,#291,#280,#281));
#844=FACE_OUTER_BOUND('',#843,.T.);
#845=FACE('',(#844));
#846=POLY_LOOP('',(#229,#212,#211,#194));
#847=FACE_OUTER_BOUND('',#846,.T.);
#848=FACE('',(#847));
#849=POLY_LOOP('',(#212,#252,#235,#211));
#850=FACE_OUTER_BOUND('',#849,.T.);
#851=FACE('',(#850));
#852=POLY_LOOP('',(#252,#286,#285,#235));
#853=FACE_OUTER_BOUND('',#852,.T.);
#854=FACE('',(#853));
#855=POLY_LOOP('',(#199,#200,#223,#224));
#856=FACE_OUTER_BOUND('',#855,.T.);
#857=FACE('',(#856));
#858=POLY_LOOP('',(#200,#246,#273,#223));
#859=FACE_OUTER_BOUND('',#858,.T.);
#860=FACE('',(#859));
#861=POLY_LOOP('',(#246,#280,#291,#273));
#862=FACE_OUTER_BOUND('',#861,.T.);
#863=FACE('',(#862));
#864=POLY_LOOP('',(#299,#298,#242,#243));
#865=FACE_OUTER_BOUND('',#864,.T.);
#866=FACE('',(#865));
#867=POLY_LOOP('',(#298,#300,#241,#242));
#868=FACE_OUTER_BOUND('',#867,.T.);
#869=FACE('',(#868));
#870=POLY_LOOP('',(#300,#301,#276,#241));
#871=FACE_OUTER_BOUND('',#870,.T.);
#872=FACE('',(#871));
#873=POLY_LOOP('',(#301,#302,#275,#276));
#874=FACE_OUTER_BOUND('',#873,.T.);
#875=FACE('',(#874));
#876=POLY_LOOP('',(#302,#303,#274,#275));
#877=FACE_OUTER_BOUND('',#876,.T.);
#878=FACE('',(#877));
#879=POLY_LOOP('',(#303,#304,#234,#274));
#880=FACE_OUTER_BOUND('',#879,.T.);
#881=FACE('',(#880));
#882=POLY_LOOP('',(#304,#305,#233,#234));
#883=FACE_OUTER_BOUND('',#882,.T.);
#884=FACE('',(#883));
#885=POLY_LOOP('',(#305,#306,#232,#233));
#886=FACE_OUTER_BOUND('',#885,.T.);
#887=FACE('',(#886));
#888=POLY_LOOP('',(#306,#307,#231,#232));
#889=FACE_OUTER_BOUND('',#888,.T.);
#890=FACE('',(#889));
#891=POLY_LOOP('',(#307,#308,#230,#231));
#892=FACE_OUTER_BOUND('',#891,.T.);
#893=FACE('',(#892));
#894=POLY_LOOP('',(#308,#309,#210,#230));
#895=FACE_OUTER_BOUND('',#894,.T.);
#896=FACE('',(#895));
#897=POLY_LOOP('',(#309,#310,#209,#210));
#898=FACE_OUTER_BOUND('',#897,.T.);
#899=FACE('',(#898));
#900=POLY_LOOP('',(#310,#311,#208,#209));
#901=FACE_OUTER_BOUND('',#900,.T.);
#902=FACE('',(#901));
#903=POLY_LOOP('',(#311,#312,#207,#208));
#904=FACE_OUTER_BOUND('',#903,.T.);
#905=FACE('',(#904));
#906=POLY_LOOP('',(#312,#313,#206,#207));
#907=FACE_OUTER_BOUND('',#906,.T.);
#908=FACE('',(#907));
#909=POLY_LOOP('',(#313,#314,#245,#206));
#910=FACE_OUTER_BOUND('',#909,.T.);
#911=FACE('',(#910));
#912=POLY_LOOP('',(#314,#315,#244,#245));
#913=FACE_OUTER_BOUND('',#912,.T.);
#914=FACE('',(#913));
#915=POLY_LOOP('',(#315,#299,#243,#244));
#916=FACE_OUTER_BOUND('',#915,.T.);
#917=FACE('',(#916));
#918=POLY_LOOP('',(#317,#316,#298,#299));
#919=FACE_OUTER_BOUND('',#918,.T.);
#920=FACE('',(#919));
#921=POLY_LOOP('',(#316,#318,#300,#298));
#922=FACE_OUTER_BOUND('',#921,.T.);
#923=FACE('',(#922));
#924=POLY_LOOP('',(#318,#319,#301,#300));
#925=FACE_OUTER_BOUND('',#924,.T.);
#926=FACE('',(#925));
#927=POLY_LOOP('',(#319,#320,#302,#301));
#928=FACE_OUTER_BOUND('',#927,.T.);
#929=FACE('',(#928));
#930=POLY_LOOP('',(#320,#321,#303,#302));
#931=FACE_OUTER_BOUND('',#930,.T.);
#932=FACE('',(#931));
#933=POLY_LOOP('',(#321,#322,#304,#303));
#934=FACE_OUTER_BOUND('',#933,.T.);
#935=FACE('',(#934));
#936=POLY_LOOP('',(#322,#323,#305,#304));
#937=FACE_OUTER_BOUND('',#936,.T.);
#938=FACE('',(#937));
#939=POLY_LOOP('',(#323,#324,#306,#305));
#940=FACE_OUTER_BOUND('',#939,.T.);
#941=FACE('',(#940));
#942=POLY_LOOP('',(#324,#325,#307,#306));
#943=FACE_OUTER_BOUND('',#942,.T.);
#944=FACE('',(#943));
#945=POLY_LOOP('',(#325,#326,#308,#307));
#946=FACE_OUTER_BOUND('',#945,.T.);
#947=FACE('',(#946));
#948=POLY_LOOP('',(#326,#327,#309,#308));
#949=FACE_OUTER_BOUND('',#948,.T.);
#950=FACE('',(#949));
#951=POLY_LOOP('',(#327,#328,#310,#309));
#952=FACE_OUTER_BOUND('',#951,.T.);
#953=FACE('',(#952));
#954=POLY_LOOP('',(#328,#329,#311,#310));
#955=FACE_OUTER_BOUND('',#954,.T.);
#956=FACE('',(#955));
#957=POLY_LOOP('',(#329,#330,#312,#311));
#958=FACE_OUTER_BOUND('',#957,.T.);
#959=FACE('',(#958));
#960=POLY_LOOP('',(#330,#331,#313,#312));
#961=FACE_OUTER_BOUND('',#960,.T.);
#962=FACE('',(#961));
#963=POLY_LOOP('',(#331,#332,#314,#313));
#964=FACE_OUTER_BOUND('',#963,.T.);
#965=FACE('',(#964));
#966=POLY_LOOP('',(#332,#333,#315,#314));
#967=FACE_OUTER_BOUND('',#966,.T.);
#968=FACE('',(#967));
#969=POLY_LOOP('',(#333,#317,#299,#315));
#970=FACE_OUTER_BOUND('',#969,.T.);
#971=FACE('',(#970));
#972=POLY_LOOP('',(#260,#261,#316,#317));
#973=FACE_OUTER_BOUND('',#972,.T.);
#974=FACE('',(#973));
#975=POLY_LOOP('',(#261,#262,#318,#316));
#976=FACE_OUTER_BOUND('',#975,.T.);
#977=FACE('',(#976));
#978=POLY_LOOP('',(#262,#295,#319,#318));
#979=FACE_OUTER_BOUND('',#978,.T.);
#980=FACE('',(#979));
#981=POLY_LOOP('',(#295,#296,#320,#319));
#982=FACE_OUTER_BOUND('',#981,.T.);
#983=FACE('',(#982));
#984=POLY_LOOP('',(#296,#297,#321,#320));
#985=FACE_OUTER_BOUND('',#984,.T.);
#986=FACE('',(#985));
#987=POLY_LOOP('',(#297,#253,#322,#321));
#988=FACE_OUTER_BOUND('',#987,.T.);
#989=FACE('',(#988));
#990=POLY_LOOP('',(#253,#254,#323,#322));
#991=FACE_OUTER_BOUND('',#990,.T.);
#992=FACE('',(#991));
#993=POLY_LOOP('',(#254,#255,#324,#323));
#994=FACE_OUTER_BOUND('',#993,.T.);
#995=FACE('',(#994));
#996=POLY_LOOP('',(#255,#256,#325,#324));
#997=FACE_OUTER_BOUND('',#996,.T.);
#998=FACE('',(#997));
#999=POLY_LOOP('',(#256,#257,#326,#325));
#1000=FACE_OUTER_BOUND('',#999,.T.);
#1001=FACE('',(#1000));
#1002=POLY_LOOP('',(#257,#213,#327,#326));
#1003=FACE_OUTER_BOUND('',#1002,.T.);
#1004=FACE('',(#1003));
#1005=POLY_LOOP('',(#213,#214,#328,#327));
#1006=FACE_OUTER_BOUND('',#1005,.T.);
#1007=FACE('',(#1006));
#1008=POLY_LOOP('',(#214,#215,#329,#328));
#1009=FACE_OUTER_BOUND('',#1008,.T.);
#1010=FACE('',(#1009));
#1011=POLY_LOOP('',(#215,#216,#330,#329));
#1012=FACE_OUTER_BOUND('',#1011,.T.);
#1013=FACE('',(#1012));
#1014=POLY_LOOP('',(#216,#217,#331,#330));
#1015=FACE_OUTER_BOUND('',#1014,.T.);
#1016=FACE('',(#1015));
#1017=POLY_LOOP('',(#217,#258,#332,#331));
#1018=FACE_OUTER_BOUND('',#1017,.T.);
#1019=FACE('',(#1018));
#1020=POLY_LOOP('',(#258,#259,#333,#332));
#1021=FACE_OUTER_BOUND('',#1020,.T.);
#1022=FACE('',(#1021));
#1023=POLY_LOOP('',(#259,#260,#317,#333));
#1024=FACE_OUTER_BOUND('',#1023,.T.);
#1025=FACE('',(#1024));
#1026=POLY_LOOP('',(#335,#334,#248,#249));
#1027=FACE_OUTER_BOUND('',#1026,.T.);
#1028=FACE('',(#1027));
#1029=POLY_LOOP('',(#334,#336,#247,#248));
#1030=FACE_OUTER_BOUND('',#1029,.T.);
#1031=FACE('',(#1030));
#1032=POLY_LOOP('',(#336,#337,#279,#247));
#1033=FACE_OUTER_BOUND('',#1032,.T.);
#1034=FACE('',(#1033));
#1035=POLY_LOOP('',(#337,#338,#278,#279));
#1036=FACE_OUTER_BOUND('',#1035,.T.);
#1037=FACE('',(#1036));
#1038=POLY_LOOP('',(#338,#339,#277,#278));
#1039=FACE_OUTER_BOUND('',#1038,.T.);
#1040=FACE('',(#1039));
#1041=POLY_LOOP('',(#339,#340,#240,#277));
#1042=FACE_OUTER_BOUND('',#1041,.T.);
#1043=FACE('',(#1042));
#1044=POLY_LOOP('',(#340,#341,#239,#240));
#1045=FACE_OUTER_BOUND('',#1044,.T.);
#1046=FACE('',(#1045));
#1047=POLY_LOOP('',(#341,#342,#238,#239));
#1048=FACE_OUTER_BOUND('',#1047,.T.);
#1049=FACE('',(#1048));
#1050=POLY_LOOP('',(#342,#343,#237,#238));
#1051=FACE_OUTER_BOUND('',#1050,.T.);
#1052=FACE('',(#1051));
#1053=POLY_LOOP('',(#343,#344,#236,#237));
#1054=FACE_OUTER_BOUND('',#1053,.T.);
#1055=FACE('',(#1054));
#1056=POLY_LOOP('',(#344,#345,#205,#236));
#1057=FACE_OUTER_BOUND('',#1056,.T.);
#1058=FACE('',(#1057));
#1059=POLY_LOOP('',(#345,#346,#204,#205));
#1060=FACE_OUTER_BOUND('',#1059,.T.);
#1061=FACE('',(#1060));
#1062=POLY_LOOP('',(#346,#347,#203,#204));
#1063=FACE_OUTER_BOUND('',#1062,.T.);
#1064=FACE('',(#1063));
#1065=POLY_LOOP('',(#347,#348,#202,#203));
#1066=FACE_OUTER_BOUND('',#1065,.T.);
#1067=FACE('',(#1066));
#1068=POLY_LOOP('',(#348,#349,#201,#202));
#1069=FACE_OUTER_BOUND('',#1068,.T.);
#1070=FACE('',(#1069));
#1071=POLY_LOOP('',(#349,#350,#251,#201));
#1072=FACE_OUTER_BOUND('',#1071,.T.);
#1073=FACE('',(#1072));
#1074=POLY_LOOP('',(#350,#351,#250,#251));
#1075=FACE_OUTER_BOUND('',#1074,.T.);
#1076=FACE('',(#1075));
#1077=POLY_LOOP('',(#351,#335,#249,#250));
#1078=FACE_OUTER_BOUND('',#1077,.T.);
#1079=FACE('',(#1078));
#1080=POLY_LOOP('',(#353,#352,#334,#335));
#1081=FACE_OUTER_BOUND('',#1080,.T.);
#1082=FACE('',(#1081));
#1083=POLY_LOOP('',(#352,#354,#336,#334));
#1084=FACE_OUTER_BOUND('',#1083,.T.);
#1085=FACE('',(#1084));
#1086=POLY_LOOP('',(#354,#355,#337,#336));
#1087=FACE_OUTER_BOUND('',#1086,.T.);
#1088=FACE('',(#1087));
#1089=POLY_LOOP('',(#355,#356,#338,#337));
#1090=FACE_OUTER_BOUND('',#1089,.T.);
#1091=FACE('',(#1090));
#1092=POLY_LOOP('',(#356,#357,#339,#338));
#1093=FACE_OUTER_BOUND('',#1092,.T.);
#1094=FACE('',(#1093));
#1095=POLY_LOOP('',(#357,#358,#340,#339));
#1096=FACE_OUTER_BOUND('',#1095,.T.);
#1097=FACE('',(#1096));
#1098=POLY_LOOP('',(#358,#359,#341,#340));
#1099=FACE_OUTER_BOUND('',#1098,.T.);
#1100=FACE('',(#1099));
#1101=POLY_LOOP('',(#359,#360,#342,#341));
#1102=FACE_OUTER_BOUND('',#1101,.T.);
#1103=FACE('',(#1102));
#1104=POLY_LOOP('',(#360,#361,#343,#342));
#1105=FACE_OUTER_BOUND('',#1104,.T.);
#1106=FACE('',(#1105));
#1107=POLY_LOOP('',(#361,#362,#344,#343));
#1108=FACE_OUTER_BOUND('',#1107,.T.);
#1109=FACE('',(#1108));
#1110=POLY_LOOP('',(#362,#363,#345,#344));
#1111=FACE_OUTER_BOUND('',#1110,.T.);
#1112=FACE('',(#1111));
#1113=POLY_LOOP('',(#363,#364,#346,#345));
#1114=FACE_OUTER_BOUND('',#1113,.T.);
#1115=FACE('',(#1114));
#1116=POLY_LOOP('',(#364,#365,#347,#346));
#1117=FACE_OUTER_BOUND('',#1116,.T.);
#1118=FACE('',(#1117));
#1119=POLY_LOOP('',(#365,#366,#348,#347));
#1120=FACE_OUTER_BOUND('',#1119,.T.);
#1121=FACE('',(#1120));
#1122=POLY_LOOP('',(#366,#367,#349,#348));
#1123=FACE_OUTER_BOUND('',#1122,.T.);
#1124=FACE('',(#1123));
#1125=POLY_LOOP('',(#367,#368,#350,#349));
#1126=FACE_OUTER_BOUND('',#1125,.T.);
#1127=FACE('',(#1126));
#1128=POLY_LOOP('',(#368,#369,#351,#350));
#1129=FACE_OUTER_BOUND('',#1128,.T.);
#1130=FACE('',(#1129));
#1131=POLY_LOOP('',(#369,#353,#335,#351));
#1132=FACE_OUTER_BOUND('',#1131,.T.);
#1133=FACE('',(#1132));
#1134=POLY_LOOP('',(#270,#271,#352,#353));
#1135=FACE_OUTER_BOUND('',#1134,.T.);
#1136=FACE('',(#1135));
#1137=POLY_LOOP('',(#271,#272,#354,#352));
#1138=FACE_OUTER_BOUND('',#1137,.T.);
#1139=FACE('',(#1138));
#1140=POLY_LOOP('',(#272,#292,#355,#354));
#1141=FACE_OUTER_BOUND('',#1140,.T.);
#1142=FACE('',(#1141));
#1143=POLY_LOOP('',(#292,#293,#356,#355));
#1144=FACE_OUTER_BOUND('',#1143,.T.);
#1145=FACE('',(#1144));
#1146=POLY_LOOP('',(#293,#294,#357,#356));
#1147=FACE_OUTER_BOUND('',#1146,.T.);
#1148=FACE('',(#1147));
#1149=POLY_LOOP('',(#294,#263,#358,#357));
#1150=FACE_OUTER_BOUND('',#1149,.T.);
#1151=FACE('',(#1150));
#1152=POLY_LOOP('',(#263,#264,#359,#358));
#1153=FACE_OUTER_BOUND('',#1152,.T.);
#1154=FACE('',(#1153));
#1155=POLY_LOOP('',(#264,#265,#360,#359));
#1156=FACE_OUTER_BOUND('',#1155,.T.);
#1157=FACE('',(#1156));
#1158=POLY_LOOP('',(#265,#266,#361,#360));
#1159=FACE_OUTER_BOUND('',#1158,.T.);
#1160=FACE('',(#1159));
#1161=POLY_LOOP('',(#266,#267,#362,#361));
#1162=FACE_OUTER_BOUND('',#1161,.T.);
#1163=FACE('',(#1162));
#1164=POLY_LOOP('',(#267,#218,#363,#362));
#1165=FACE_OUTER_BOUND('',#1164,.T.);
#1166=FACE('',(#1165));
#1167=POLY_LOOP('',(#218,#219,#364,#363));
#1168=FACE_OUTER_BOUND('',#1167,.T.);
#1169=FACE('',(#1168));
#1170=POLY_LOOP('',(#219,#220,#365,#364));
#1171=FACE_OUTER_BOUND('',#1170,.T.);
#1172=FACE('',(#1171));
#1173=POLY_LOOP('',(#220,#221,#366,#365));
#1174=FACE_OUTER_BOUND('',#1173,.T.);
#1175=FACE('',(#1174));
#1176=POLY_LOOP('',(#221,#222,#367,#366));
#1177=FACE_OUTER_BOUND('',#1176,.T.);
#1178=FACE('',(#1177));
#1179=POLY_LOOP('',(#222,#268,#368,#367));
#1180=FACE_OUTER_BOUND('',#1179,.T.);
#1181=FACE('',(#1180));
#1182=POLY_LOOP('',(#268,#269,#369,#368));
#1183=FACE_OUTER_BOUND('',#1182,.T.);
#1184=FACE('',(#1183));
#1185=POLY_LOOP('',(#269,#270,#353,#369));
#1186=FACE_OUTER_BOUND('',#1185,.T.);
#1187=FACE('',(#1186));
#1188=CLOSED_SHELL('',(#788,#791,#794,#797,#800,#803,#806,#809,#812,#815,#818,#821,#824,#827,#830,#833,#836,#839,#842,#845,#848,#851,#854,#857,#860,#863,#866,#869,#872,#875,#878,#881,#884,#887,#890,#893,#896,#899,#902,#905,#908,#911,#914,#917,#920,#923,#926,#929,#932,#935,#938,#941,#944,#947,#950,#953,#956,#959,#962,#965,#968,#971,#974,#977,#980,#983,#986,#989,#992,#995,#998,#1001,#1004,#1007,#1010,#1013,#1016,#1019,#1022,#1025,#1028,#1031,#1034,#1037,#1040,#1043,#1046,#1049,#1052,#1055,#1058,#1061,#1064,#1067,#1070,#1073,#1076,#1079,#1082,#1085,#1088,#1091,#1094,#1097,#1100,#1103,#1106,#1109,#1112,#1115,#1118,#1121,#1124,#1127,#1130,#1133,#1136,#1139,#1142,#1145,#1148,#1151,#1154,#1157,#1160,#1163,#1166,#1169,#1172,#1175,#1178,#1181,#1184,#1187));
#1189=FACETED_BREP('QA-41127 solid 2',#1188);
#1190=CARTESIAN_POINT('',(0.,0.,0.));
#1191=DIRECTION('',(0.,0.,1.));
#1192=DIRECTION('',(1.,0.,0.));
#1193=AXIS2_PLACEMENT_3D('',#1190,#1191,#1192);
#1194=FACETED_BREP_SHAPE_REPRESENTATION('QA-41127',(#1193,#785,#1189),#17);
#1195=SHAPE_DEFINITION_REPRESENTATION(#9,#1194);
ENDSEC;
END-ISO-10303-21;
