ISO-10303-21;
HEADER;
FILE_DESCRIPTION(('HOUSING, DRIVE ELECTRONICS','Faceted model for quoting'),'2;1');
FILE_NAME('CI-10442_RevC.step','2026-09-01T08:00:00',('lpruitt'),(''),'RFQ Router demo','Creo 10.0','');
FILE_SCHEMA(('AUTOMOTIVE_DESIGN { 1 0 10303 214 1 1 1 1 }'));
ENDSEC;
DATA;
#1=APPLICATION_CONTEXT('core data for automotive mechanical design processes');
#2=APPLICATION_PROTOCOL_DEFINITION('international standard','automotive_design',2000,#1);
#3=PRODUCT_CONTEXT('',#1,'mechanical');
#4=PRODUCT('CI-10442','HOUSING, DRIVE ELECTRONICS','Rev C',(#3));
#5=PRODUCT_RELATED_PRODUCT_CATEGORY('part',$,(#4));
#6=PRODUCT_DEFINITION_FORMATION('C','',#4);
#7=PRODUCT_DEFINITION_CONTEXT('part definition',#1,'design');
#8=PRODUCT_DEFINITION('design','',#6,#7);
#9=PRODUCT_DEFINITION_SHAPE('','',#8);
#10=(LENGTH_UNIT()NAMED_UNIT(*)SI_UNIT(.MILLI.,.METRE.));
#11=LENGTH_MEASURE_WITH_UNIT(LENGTH_MEASURE(25.4),#10);
#12=DIMENSIONAL_EXPONENTS(1.,0.,0.,0.,0.,0.,0.);
#13=(CONVERSION_BASED_UNIT('INCH',#11)LENGTH_UNIT()NAMED_UNIT(#12));
#14=(NAMED_UNIT(*)PLANE_ANGLE_UNIT()SI_UNIT($,.RADIAN.));
#15=(NAMED_UNIT(*)SI_UNIT($,.STERADIAN.)SOLID_ANGLE_UNIT());
#16=UNCERTAINTY_MEASURE_WITH_UNIT(LENGTH_MEASURE(1.E-05),#13,'distance_accuracy_value','confusion accuracy');
#17=(GEOMETRIC_REPRESENTATION_CONTEXT(3)GLOBAL_UNCERTAINTY_ASSIGNED_CONTEXT((#16))GLOBAL_UNIT_ASSIGNED_CONTEXT((#13,#14,#15))REPRESENTATION_CONTEXT('Context3D','3D'));
#18=CARTESIAN_POINT('',(0.00000,0.00000,2.75000));
#19=CARTESIAN_POINT('',(0.46750,0.00000,2.75000));
#20=CARTESIAN_POINT('',(7.53250,0.00000,2.75000));
#21=CARTESIAN_POINT('',(8.00000,0.00000,2.75000));
#22=CARTESIAN_POINT('',(8.00000,0.46750,2.75000));
#23=CARTESIAN_POINT('',(7.53250,0.46750,2.75000));
#24=CARTESIAN_POINT('',(0.46750,0.46750,2.75000));
#25=CARTESIAN_POINT('',(0.00000,0.46750,2.75000));
#26=CARTESIAN_POINT('',(0.00000,0.46750,0.00000));
#27=CARTESIAN_POINT('',(0.46750,0.46750,0.00000));
#28=CARTESIAN_POINT('',(7.53250,0.46750,0.00000));
#29=CARTESIAN_POINT('',(8.00000,0.46750,0.00000));
#30=CARTESIAN_POINT('',(8.00000,0.00000,0.00000));
#31=CARTESIAN_POINT('',(7.53250,0.00000,0.00000));
#32=CARTESIAN_POINT('',(0.46750,0.00000,0.00000));
#33=CARTESIAN_POINT('',(0.00000,0.00000,0.00000));
#34=CARTESIAN_POINT('',(0.46750,5.03250,2.75000));
#35=CARTESIAN_POINT('',(0.00000,5.03250,2.75000));
#36=CARTESIAN_POINT('',(0.46750,0.46750,0.44000));
#37=CARTESIAN_POINT('',(7.53250,0.46750,0.44000));
#38=CARTESIAN_POINT('',(7.53250,5.03250,0.44000));
#39=CARTESIAN_POINT('',(0.46750,5.03250,0.44000));
#40=CARTESIAN_POINT('',(8.00000,5.03250,2.75000));
#41=CARTESIAN_POINT('',(7.53250,5.03250,2.75000));
#42=CARTESIAN_POINT('',(0.00000,5.03250,0.00000));
#43=CARTESIAN_POINT('',(0.46750,5.03250,0.00000));
#44=CARTESIAN_POINT('',(7.53250,5.03250,0.00000));
#45=CARTESIAN_POINT('',(8.00000,5.03250,0.00000));
#46=CARTESIAN_POINT('',(8.00000,5.50000,2.75000));
#47=CARTESIAN_POINT('',(7.53250,5.50000,2.75000));
#48=CARTESIAN_POINT('',(0.46750,5.50000,2.75000));
#49=CARTESIAN_POINT('',(0.00000,5.50000,2.75000));
#50=CARTESIAN_POINT('',(0.00000,5.50000,0.00000));
#51=CARTESIAN_POINT('',(0.46750,5.50000,0.00000));
#52=CARTESIAN_POINT('',(7.53250,5.50000,0.00000));
#53=CARTESIAN_POINT('',(8.00000,5.50000,0.00000));
#54=POLY_LOOP('',(#18,#19,#20,#21,#22,#23,#24,#25));
#55=FACE_OUTER_BOUND('',#54,.T.);
#56=FACE('',(#55));
#57=POLY_LOOP('',(#26,#27,#28,#29,#30,#31,#32,#33));
#58=FACE_OUTER_BOUND('',#57,.T.);
#59=FACE('',(#58));
#60=POLY_LOOP('',(#25,#24,#34,#35));
#61=FACE_OUTER_BOUND('',#60,.T.);
#62=FACE('',(#61));
#63=POLY_LOOP('',(#36,#37,#38,#39));
#64=FACE_OUTER_BOUND('',#63,.T.);
#65=FACE('',(#64));
#66=POLY_LOOP('',(#23,#22,#40,#41));
#67=FACE_OUTER_BOUND('',#66,.T.);
#68=FACE('',(#67));
#69=POLY_LOOP('',(#42,#43,#44,#45,#29,#28,#27,#26));
#70=FACE_OUTER_BOUND('',#69,.T.);
#71=FACE('',(#70));
#72=POLY_LOOP('',(#35,#34,#41,#40,#46,#47,#48,#49));
#73=FACE_OUTER_BOUND('',#72,.T.);
#74=FACE('',(#73));
#75=POLY_LOOP('',(#50,#51,#52,#53,#45,#44,#43,#42));
#76=FACE_OUTER_BOUND('',#75,.T.);
#77=FACE('',(#76));
#78=POLY_LOOP('',(#33,#32,#19,#18));
#79=FACE_OUTER_BOUND('',#78,.T.);
#80=FACE('',(#79));
#81=POLY_LOOP('',(#32,#31,#20,#19));
#82=FACE_OUTER_BOUND('',#81,.T.);
#83=FACE('',(#82));
#84=POLY_LOOP('',(#31,#30,#21,#20));
#85=FACE_OUTER_BOUND('',#84,.T.);
#86=FACE('',(#85));
#87=POLY_LOOP('',(#49,#48,#51,#50));
#88=FACE_OUTER_BOUND('',#87,.T.);
#89=FACE('',(#88));
#90=POLY_LOOP('',(#48,#47,#52,#51));
#91=FACE_OUTER_BOUND('',#90,.T.);
#92=FACE('',(#91));
#93=POLY_LOOP('',(#47,#46,#53,#52));
#94=FACE_OUTER_BOUND('',#93,.T.);
#95=FACE('',(#94));
#96=POLY_LOOP('',(#18,#25,#26,#33));
#97=FACE_OUTER_BOUND('',#96,.T.);
#98=FACE('',(#97));
#99=POLY_LOOP('',(#25,#35,#42,#26));
#100=FACE_OUTER_BOUND('',#99,.T.);
#101=FACE('',(#100));
#102=POLY_LOOP('',(#35,#49,#50,#42));
#103=FACE_OUTER_BOUND('',#102,.T.);
#104=FACE('',(#103));
#105=POLY_LOOP('',(#30,#29,#22,#21));
#106=FACE_OUTER_BOUND('',#105,.T.);
#107=FACE('',(#106));
#108=POLY_LOOP('',(#29,#45,#40,#22));
#109=FACE_OUTER_BOUND('',#108,.T.);
#110=FACE('',(#109));
#111=POLY_LOOP('',(#45,#53,#46,#40));
#112=FACE_OUTER_BOUND('',#111,.T.);
#113=FACE('',(#112));
#114=POLY_LOOP('',(#24,#23,#37,#36));
#115=FACE_OUTER_BOUND('',#114,.T.);
#116=FACE('',(#115));
#117=POLY_LOOP('',(#39,#38,#41,#34));
#118=FACE_OUTER_BOUND('',#117,.T.);
#119=FACE('',(#118));
#120=POLY_LOOP('',(#36,#39,#34,#24));
#121=FACE_OUTER_BOUND('',#120,.T.);
#122=FACE('',(#121));
#123=POLY_LOOP('',(#23,#41,#38,#37));
#124=FACE_OUTER_BOUND('',#123,.T.);
#125=FACE('',(#124));
#126=CLOSED_SHELL('',(#56,#59,#62,#65,#68,#71,#74,#77,#80,#83,#86,#89,#92,#95,#98,#101,#104,#107,#110,#113,#116,#119,#122,#125));
#127=FACETED_BREP('CI-10442 solid 1',#126);
#128=CARTESIAN_POINT('',(0.,0.,0.));
#129=DIRECTION('',(0.,0.,1.));
#130=DIRECTION('',(1.,0.,0.));
#131=AXIS2_PLACEMENT_3D('',#128,#129,#130);
#132=FACETED_BREP_SHAPE_REPRESENTATION('CI-10442',(#131,#127),#17);
#133=SHAPE_DEFINITION_REPRESENTATION(#9,#132);
ENDSEC;
END-ISO-10303-21;
