ISO-10303-21;
HEADER;
FILE_DESCRIPTION(('MANIFOLD BLOCK, VALVE, 4-PORT','Faceted model for quoting'),'2;1');
FILE_NAME('HPV-2045_manifold_RevD.step','2026-09-01T08:00:00',('mholt'),(''),'RFQ Router demo','SolidWorks 2025','');
FILE_SCHEMA(('AUTOMOTIVE_DESIGN { 1 0 10303 214 1 1 1 1 }'));
ENDSEC;
DATA;
#1=APPLICATION_CONTEXT('core data for automotive mechanical design processes');
#2=APPLICATION_PROTOCOL_DEFINITION('international standard','automotive_design',2000,#1);
#3=PRODUCT_CONTEXT('',#1,'mechanical');
#4=PRODUCT('HPV-2045','MANIFOLD BLOCK, VALVE, 4-PORT','Rev D',(#3));
#5=PRODUCT_DEFINITION_FORMATION('D','',#4);
#6=PRODUCT_DEFINITION_CONTEXT('part definition',#1,'design');
#7=PRODUCT_DEFINITION('design','',#5,#6);
#8=PRODUCT_DEFINITION_SHAPE('','',#7);
#9=(LENGTH_UNIT()NAMED_UNIT(*)SI_UNIT(.MILLI.,.METRE.));
#10=LENGTH_MEASURE_WITH_UNIT(LENGTH_MEASURE(25.4),#9);
#11=DIMENSIONAL_EXPONENTS(1.,0.,0.,0.,0.,0.,0.);
#12=(CONVERSION_BASED_UNIT('INCH',#10)LENGTH_UNIT()NAMED_UNIT(#11));
#13=(NAMED_UNIT(*)PLANE_ANGLE_UNIT()SI_UNIT($,.RADIAN.));
#14=(NAMED_UNIT(*)SI_UNIT($,.STERADIAN.)SOLID_ANGLE_UNIT());
#15=UNCERTAINTY_MEASURE_WITH_UNIT(LENGTH_MEASURE(1.E-05),#12,'distance_accuracy_value','confusion accuracy');
#16=(GEOMETRIC_REPRESENTATION_CONTEXT(3)GLOBAL_UNCERTAINTY_ASSIGNED_CONTEXT((#15))GLOBAL_UNIT_ASSIGNED_CONTEXT((#12,#13,#14))REPRESENTATION_CONTEXT('Context3D','3D'));
#17=CARTESIAN_POINT('',(0.00000,0.00000,0.00000));
#18=CARTESIAN_POINT('',(4.00000,0.00000,0.00000));
#19=CARTESIAN_POINT('',(4.00000,3.00000,0.00000));
#20=CARTESIAN_POINT('',(0.00000,3.00000,0.00000));
#21=CARTESIAN_POINT('',(0.00000,0.00000,2.50000));
#22=CARTESIAN_POINT('',(4.00000,0.00000,2.50000));
#23=CARTESIAN_POINT('',(4.00000,3.00000,2.50000));
#24=CARTESIAN_POINT('',(0.00000,3.00000,2.50000));
#25=CARTESIAN_POINT('',(1.24000,1.50000,2.50000));
#26=CARTESIAN_POINT('',(1.22173,1.59184,2.50000));
#27=CARTESIAN_POINT('',(1.16971,1.66971,2.50000));
#28=CARTESIAN_POINT('',(1.09184,1.72173,2.50000));
#29=CARTESIAN_POINT('',(1.00000,1.74000,2.50000));
#30=CARTESIAN_POINT('',(0.90816,1.72173,2.50000));
#31=CARTESIAN_POINT('',(0.83029,1.66971,2.50000));
#32=CARTESIAN_POINT('',(0.77827,1.59184,2.50000));
#33=CARTESIAN_POINT('',(0.76000,1.50000,2.50000));
#34=CARTESIAN_POINT('',(0.77827,1.40816,2.50000));
#35=CARTESIAN_POINT('',(0.83029,1.33029,2.50000));
#36=CARTESIAN_POINT('',(0.90816,1.27827,2.50000));
#37=CARTESIAN_POINT('',(1.00000,1.26000,2.50000));
#38=CARTESIAN_POINT('',(1.09184,1.27827,2.50000));
#39=CARTESIAN_POINT('',(1.16971,1.33029,2.50000));
#40=CARTESIAN_POINT('',(1.22173,1.40816,2.50000));
#41=CARTESIAN_POINT('',(1.24000,1.50000,2.70000));
#42=CARTESIAN_POINT('',(1.22173,1.59184,2.70000));
#43=CARTESIAN_POINT('',(1.16971,1.66971,2.70000));
#44=CARTESIAN_POINT('',(1.09184,1.72173,2.70000));
#45=CARTESIAN_POINT('',(1.00000,1.74000,2.70000));
#46=CARTESIAN_POINT('',(0.90816,1.72173,2.70000));
#47=CARTESIAN_POINT('',(0.83029,1.66971,2.70000));
#48=CARTESIAN_POINT('',(0.77827,1.59184,2.70000));
#49=CARTESIAN_POINT('',(0.76000,1.50000,2.70000));
#50=CARTESIAN_POINT('',(0.77827,1.40816,2.70000));
#51=CARTESIAN_POINT('',(0.83029,1.33029,2.70000));
#52=CARTESIAN_POINT('',(0.90816,1.27827,2.70000));
#53=CARTESIAN_POINT('',(1.00000,1.26000,2.70000));
#54=CARTESIAN_POINT('',(1.09184,1.27827,2.70000));
#55=CARTESIAN_POINT('',(1.16971,1.33029,2.70000));
#56=CARTESIAN_POINT('',(1.22173,1.40816,2.70000));
#57=CARTESIAN_POINT('',(2.24000,1.50000,2.50000));
#58=CARTESIAN_POINT('',(2.22173,1.59184,2.50000));
#59=CARTESIAN_POINT('',(2.16971,1.66971,2.50000));
#60=CARTESIAN_POINT('',(2.09184,1.72173,2.50000));
#61=CARTESIAN_POINT('',(2.00000,1.74000,2.50000));
#62=CARTESIAN_POINT('',(1.90816,1.72173,2.50000));
#63=CARTESIAN_POINT('',(1.83029,1.66971,2.50000));
#64=CARTESIAN_POINT('',(1.77827,1.59184,2.50000));
#65=CARTESIAN_POINT('',(1.76000,1.50000,2.50000));
#66=CARTESIAN_POINT('',(1.77827,1.40816,2.50000));
#67=CARTESIAN_POINT('',(1.83029,1.33029,2.50000));
#68=CARTESIAN_POINT('',(1.90816,1.27827,2.50000));
#69=CARTESIAN_POINT('',(2.00000,1.26000,2.50000));
#70=CARTESIAN_POINT('',(2.09184,1.27827,2.50000));
#71=CARTESIAN_POINT('',(2.16971,1.33029,2.50000));
#72=CARTESIAN_POINT('',(2.22173,1.40816,2.50000));
#73=CARTESIAN_POINT('',(2.24000,1.50000,2.70000));
#74=CARTESIAN_POINT('',(2.22173,1.59184,2.70000));
#75=CARTESIAN_POINT('',(2.16971,1.66971,2.70000));
#76=CARTESIAN_POINT('',(2.09184,1.72173,2.70000));
#77=CARTESIAN_POINT('',(2.00000,1.74000,2.70000));
#78=CARTESIAN_POINT('',(1.90816,1.72173,2.70000));
#79=CARTESIAN_POINT('',(1.83029,1.66971,2.70000));
#80=CARTESIAN_POINT('',(1.77827,1.59184,2.70000));
#81=CARTESIAN_POINT('',(1.76000,1.50000,2.70000));
#82=CARTESIAN_POINT('',(1.77827,1.40816,2.70000));
#83=CARTESIAN_POINT('',(1.83029,1.33029,2.70000));
#84=CARTESIAN_POINT('',(1.90816,1.27827,2.70000));
#85=CARTESIAN_POINT('',(2.00000,1.26000,2.70000));
#86=CARTESIAN_POINT('',(2.09184,1.27827,2.70000));
#87=CARTESIAN_POINT('',(2.16971,1.33029,2.70000));
#88=CARTESIAN_POINT('',(2.22173,1.40816,2.70000));
#89=CARTESIAN_POINT('',(3.24000,1.50000,2.50000));
#90=CARTESIAN_POINT('',(3.22173,1.59184,2.50000));
#91=CARTESIAN_POINT('',(3.16971,1.66971,2.50000));
#92=CARTESIAN_POINT('',(3.09184,1.72173,2.50000));
#93=CARTESIAN_POINT('',(3.00000,1.74000,2.50000));
#94=CARTESIAN_POINT('',(2.90816,1.72173,2.50000));
#95=CARTESIAN_POINT('',(2.83029,1.66971,2.50000));
#96=CARTESIAN_POINT('',(2.77827,1.59184,2.50000));
#97=CARTESIAN_POINT('',(2.76000,1.50000,2.50000));
#98=CARTESIAN_POINT('',(2.77827,1.40816,2.50000));
#99=CARTESIAN_POINT('',(2.83029,1.33029,2.50000));
#100=CARTESIAN_POINT('',(2.90816,1.27827,2.50000));
#101=CARTESIAN_POINT('',(3.00000,1.26000,2.50000));
#102=CARTESIAN_POINT('',(3.09184,1.27827,2.50000));
#103=CARTESIAN_POINT('',(3.16971,1.33029,2.50000));
#104=CARTESIAN_POINT('',(3.22173,1.40816,2.50000));
#105=CARTESIAN_POINT('',(3.24000,1.50000,2.70000));
#106=CARTESIAN_POINT('',(3.22173,1.59184,2.70000));
#107=CARTESIAN_POINT('',(3.16971,1.66971,2.70000));
#108=CARTESIAN_POINT('',(3.09184,1.72173,2.70000));
#109=CARTESIAN_POINT('',(3.00000,1.74000,2.70000));
#110=CARTESIAN_POINT('',(2.90816,1.72173,2.70000));
#111=CARTESIAN_POINT('',(2.83029,1.66971,2.70000));
#112=CARTESIAN_POINT('',(2.77827,1.59184,2.70000));
#113=CARTESIAN_POINT('',(2.76000,1.50000,2.70000));
#114=CARTESIAN_POINT('',(2.77827,1.40816,2.70000));
#115=CARTESIAN_POINT('',(2.83029,1.33029,2.70000));
#116=CARTESIAN_POINT('',(2.90816,1.27827,2.70000));
#117=CARTESIAN_POINT('',(3.00000,1.26000,2.70000));
#118=CARTESIAN_POINT('',(3.09184,1.27827,2.70000));
#119=CARTESIAN_POINT('',(3.16971,1.33029,2.70000));
#120=CARTESIAN_POINT('',(3.22173,1.40816,2.70000));
#121=POLY_LOOP('',(#17,#20,#19,#18));
#122=FACE_OUTER_BOUND('',#121,.T.);
#123=FACE('',(#122));
#124=POLY_LOOP('',(#21,#22,#23,#24));
#125=FACE_OUTER_BOUND('',#124,.T.);
#126=FACE('',(#125));
#127=POLY_LOOP('',(#17,#18,#22,#21));
#128=FACE_OUTER_BOUND('',#127,.T.);
#129=FACE('',(#128));
#130=POLY_LOOP('',(#18,#19,#23,#22));
#131=FACE_OUTER_BOUND('',#130,.T.);
#132=FACE('',(#131));
#133=POLY_LOOP('',(#19,#20,#24,#23));
#134=FACE_OUTER_BOUND('',#133,.T.);
#135=FACE('',(#134));
#136=POLY_LOOP('',(#20,#17,#21,#24));
#137=FACE_OUTER_BOUND('',#136,.T.);
#138=FACE('',(#137));
#139=POLY_LOOP('',(#25,#26,#42,#41));
#140=FACE_OUTER_BOUND('',#139,.T.);
#141=FACE('',(#140));
#142=POLY_LOOP('',(#26,#27,#43,#42));
#143=FACE_OUTER_BOUND('',#142,.T.);
#144=FACE('',(#143));
#145=POLY_LOOP('',(#27,#28,#44,#43));
#146=FACE_OUTER_BOUND('',#145,.T.);
#147=FACE('',(#146));
#148=POLY_LOOP('',(#28,#29,#45,#44));
#149=FACE_OUTER_BOUND('',#148,.T.);
#150=FACE('',(#149));
#151=POLY_LOOP('',(#29,#30,#46,#45));
#152=FACE_OUTER_BOUND('',#151,.T.);
#153=FACE('',(#152));
#154=POLY_LOOP('',(#30,#31,#47,#46));
#155=FACE_OUTER_BOUND('',#154,.T.);
#156=FACE('',(#155));
#157=POLY_LOOP('',(#31,#32,#48,#47));
#158=FACE_OUTER_BOUND('',#157,.T.);
#159=FACE('',(#158));
#160=POLY_LOOP('',(#32,#33,#49,#48));
#161=FACE_OUTER_BOUND('',#160,.T.);
#162=FACE('',(#161));
#163=POLY_LOOP('',(#33,#34,#50,#49));
#164=FACE_OUTER_BOUND('',#163,.T.);
#165=FACE('',(#164));
#166=POLY_LOOP('',(#34,#35,#51,#50));
#167=FACE_OUTER_BOUND('',#166,.T.);
#168=FACE('',(#167));
#169=POLY_LOOP('',(#35,#36,#52,#51));
#170=FACE_OUTER_BOUND('',#169,.T.);
#171=FACE('',(#170));
#172=POLY_LOOP('',(#36,#37,#53,#52));
#173=FACE_OUTER_BOUND('',#172,.T.);
#174=FACE('',(#173));
#175=POLY_LOOP('',(#37,#38,#54,#53));
#176=FACE_OUTER_BOUND('',#175,.T.);
#177=FACE('',(#176));
#178=POLY_LOOP('',(#38,#39,#55,#54));
#179=FACE_OUTER_BOUND('',#178,.T.);
#180=FACE('',(#179));
#181=POLY_LOOP('',(#39,#40,#56,#55));
#182=FACE_OUTER_BOUND('',#181,.T.);
#183=FACE('',(#182));
#184=POLY_LOOP('',(#40,#25,#41,#56));
#185=FACE_OUTER_BOUND('',#184,.T.);
#186=FACE('',(#185));
#187=POLY_LOOP('',(#40,#39,#38,#37,#36,#35,#34,#33,#32,#31,#30,#29,#28,#27,#26,#25));
#188=FACE_OUTER_BOUND('',#187,.T.);
#189=FACE('',(#188));
#190=POLY_LOOP('',(#41,#42,#43,#44,#45,#46,#47,#48,#49,#50,#51,#52,#53,#54,#55,#56));
#191=FACE_OUTER_BOUND('',#190,.T.);
#192=FACE('',(#191));
#193=POLY_LOOP('',(#57,#58,#74,#73));
#194=FACE_OUTER_BOUND('',#193,.T.);
#195=FACE('',(#194));
#196=POLY_LOOP('',(#58,#59,#75,#74));
#197=FACE_OUTER_BOUND('',#196,.T.);
#198=FACE('',(#197));
#199=POLY_LOOP('',(#59,#60,#76,#75));
#200=FACE_OUTER_BOUND('',#199,.T.);
#201=FACE('',(#200));
#202=POLY_LOOP('',(#60,#61,#77,#76));
#203=FACE_OUTER_BOUND('',#202,.T.);
#204=FACE('',(#203));
#205=POLY_LOOP('',(#61,#62,#78,#77));
#206=FACE_OUTER_BOUND('',#205,.T.);
#207=FACE('',(#206));
#208=POLY_LOOP('',(#62,#63,#79,#78));
#209=FACE_OUTER_BOUND('',#208,.T.);
#210=FACE('',(#209));
#211=POLY_LOOP('',(#63,#64,#80,#79));
#212=FACE_OUTER_BOUND('',#211,.T.);
#213=FACE('',(#212));
#214=POLY_LOOP('',(#64,#65,#81,#80));
#215=FACE_OUTER_BOUND('',#214,.T.);
#216=FACE('',(#215));
#217=POLY_LOOP('',(#65,#66,#82,#81));
#218=FACE_OUTER_BOUND('',#217,.T.);
#219=FACE('',(#218));
#220=POLY_LOOP('',(#66,#67,#83,#82));
#221=FACE_OUTER_BOUND('',#220,.T.);
#222=FACE('',(#221));
#223=POLY_LOOP('',(#67,#68,#84,#83));
#224=FACE_OUTER_BOUND('',#223,.T.);
#225=FACE('',(#224));
#226=POLY_LOOP('',(#68,#69,#85,#84));
#227=FACE_OUTER_BOUND('',#226,.T.);
#228=FACE('',(#227));
#229=POLY_LOOP('',(#69,#70,#86,#85));
#230=FACE_OUTER_BOUND('',#229,.T.);
#231=FACE('',(#230));
#232=POLY_LOOP('',(#70,#71,#87,#86));
#233=FACE_OUTER_BOUND('',#232,.T.);
#234=FACE('',(#233));
#235=POLY_LOOP('',(#71,#72,#88,#87));
#236=FACE_OUTER_BOUND('',#235,.T.);
#237=FACE('',(#236));
#238=POLY_LOOP('',(#72,#57,#73,#88));
#239=FACE_OUTER_BOUND('',#238,.T.);
#240=FACE('',(#239));
#241=POLY_LOOP('',(#72,#71,#70,#69,#68,#67,#66,#65,#64,#63,#62,#61,#60,#59,#58,#57));
#242=FACE_OUTER_BOUND('',#241,.T.);
#243=FACE('',(#242));
#244=POLY_LOOP('',(#73,#74,#75,#76,#77,#78,#79,#80,#81,#82,#83,#84,#85,#86,#87,#88));
#245=FACE_OUTER_BOUND('',#244,.T.);
#246=FACE('',(#245));
#247=POLY_LOOP('',(#89,#90,#106,#105));
#248=FACE_OUTER_BOUND('',#247,.T.);
#249=FACE('',(#248));
#250=POLY_LOOP('',(#90,#91,#107,#106));
#251=FACE_OUTER_BOUND('',#250,.T.);
#252=FACE('',(#251));
#253=POLY_LOOP('',(#91,#92,#108,#107));
#254=FACE_OUTER_BOUND('',#253,.T.);
#255=FACE('',(#254));
#256=POLY_LOOP('',(#92,#93,#109,#108));
#257=FACE_OUTER_BOUND('',#256,.T.);
#258=FACE('',(#257));
#259=POLY_LOOP('',(#93,#94,#110,#109));
#260=FACE_OUTER_BOUND('',#259,.T.);
#261=FACE('',(#260));
#262=POLY_LOOP('',(#94,#95,#111,#110));
#263=FACE_OUTER_BOUND('',#262,.T.);
#264=FACE('',(#263));
#265=POLY_LOOP('',(#95,#96,#112,#111));
#266=FACE_OUTER_BOUND('',#265,.T.);
#267=FACE('',(#266));
#268=POLY_LOOP('',(#96,#97,#113,#112));
#269=FACE_OUTER_BOUND('',#268,.T.);
#270=FACE('',(#269));
#271=POLY_LOOP('',(#97,#98,#114,#113));
#272=FACE_OUTER_BOUND('',#271,.T.);
#273=FACE('',(#272));
#274=POLY_LOOP('',(#98,#99,#115,#114));
#275=FACE_OUTER_BOUND('',#274,.T.);
#276=FACE('',(#275));
#277=POLY_LOOP('',(#99,#100,#116,#115));
#278=FACE_OUTER_BOUND('',#277,.T.);
#279=FACE('',(#278));
#280=POLY_LOOP('',(#100,#101,#117,#116));
#281=FACE_OUTER_BOUND('',#280,.T.);
#282=FACE('',(#281));
#283=POLY_LOOP('',(#101,#102,#118,#117));
#284=FACE_OUTER_BOUND('',#283,.T.);
#285=FACE('',(#284));
#286=POLY_LOOP('',(#102,#103,#119,#118));
#287=FACE_OUTER_BOUND('',#286,.T.);
#288=FACE('',(#287));
#289=POLY_LOOP('',(#103,#104,#120,#119));
#290=FACE_OUTER_BOUND('',#289,.T.);
#291=FACE('',(#290));
#292=POLY_LOOP('',(#104,#89,#105,#120));
#293=FACE_OUTER_BOUND('',#292,.T.);
#294=FACE('',(#293));
#295=POLY_LOOP('',(#104,#103,#102,#101,#100,#99,#98,#97,#96,#95,#94,#93,#92,#91,#90,#89));
#296=FACE_OUTER_BOUND('',#295,.T.);
#297=FACE('',(#296));
#298=POLY_LOOP('',(#105,#106,#107,#108,#109,#110,#111,#112,#113,#114,#115,#116,#117,#118,#119,#120));
#299=FACE_OUTER_BOUND('',#298,.T.);
#300=FACE('',(#299));
#301=CLOSED_SHELL('',(#123,#126,#129,#132,#135,#138,#141,#144,#147,#150,#153,#156,#159,#162,#165,#168,#171,#174,#177,#180,#183,#186,#189,#192,#195,#198,#201,#204,#207,#210,#213,#216,#219,#222,#225,#228,#231,#234,#237,#240,#243,#246,#249,#252,#255,#258,#261,#264,#267,#270,#273,#276,#279,#282,#285,#288,#291,#294,#297,#300));
#302=FACETED_BREP('HPV-2045',#301);
#303=CARTESIAN_POINT('',(0.,0.,0.));
#304=DIRECTION('',(0.,0.,1.));
#305=DIRECTION('',(1.,0.,0.));
#306=AXIS2_PLACEMENT_3D('',#303,#304,#305);
#307=FACETED_BREP_SHAPE_REPRESENTATION('HPV-2045',(#306,#302),#16);
#308=SHAPE_DEFINITION_REPRESENTATION(#8,#307);
ENDSEC;
END-ISO-10303-21;
