ISO-10303-21;
HEADER;
FILE_DESCRIPTION(('CAGE, LUMBAR INTERBODY, TLIF','Faceted model for quoting'),'2;1');
FILE_NAME('BWM-3140_RevA.step','2026-09-01T08:00:00',('mhale'),(''),'RFQ Router demo','SolidWorks 2025','');
FILE_SCHEMA(('AP242_MANAGED_MODEL_BASED_3D_ENGINEERING_MIM_LF { 1 0 10303 442 1 1 4 }'));
ENDSEC;
DATA;
#1=APPLICATION_CONTEXT('core data for automotive mechanical design processes');
#2=APPLICATION_PROTOCOL_DEFINITION('international standard','ap242_managed_model_based_3d_engineering',2014,#1);
#3=PRODUCT_CONTEXT('',#1,'mechanical');
#4=PRODUCT('BWM-3140','CAGE, LUMBAR INTERBODY, TLIF','Rev A',(#3));
#5=PRODUCT_RELATED_PRODUCT_CATEGORY('part',$,(#4));
#6=PRODUCT_DEFINITION_FORMATION('A','',#4);
#7=PRODUCT_DEFINITION_CONTEXT('part definition',#1,'design');
#8=PRODUCT_DEFINITION('design','',#6,#7);
#9=PRODUCT_DEFINITION_SHAPE('','',#8);
#10=(LENGTH_UNIT()NAMED_UNIT(*)SI_UNIT(.MILLI.,.METRE.));
#11=(NAMED_UNIT(*)PLANE_ANGLE_UNIT()SI_UNIT($,.RADIAN.));
#12=(NAMED_UNIT(*)SI_UNIT($,.STERADIAN.)SOLID_ANGLE_UNIT());
#13=UNCERTAINTY_MEASURE_WITH_UNIT(LENGTH_MEASURE(1.E-05),#10,'distance_accuracy_value','confusion accuracy');
#14=(GEOMETRIC_REPRESENTATION_CONTEXT(3)GLOBAL_UNCERTAINTY_ASSIGNED_CONTEXT((#13))GLOBAL_UNIT_ASSIGNED_CONTEXT((#10,#11,#12))REPRESENTATION_CONTEXT('Context3D','3D'));
#15=CARTESIAN_POINT('',(0.00000,3.02500,9.24840));
#16=CARTESIAN_POINT('',(0.96000,1.56053,9.70615));
#17=CARTESIAN_POINT('',(0.96000,3.68784,9.70615));
#18=CARTESIAN_POINT('',(0.00000,4.36150,9.24840));
#19=CARTESIAN_POINT('',(1.92000,1.02415,9.91043));
#20=CARTESIAN_POINT('',(1.92000,3.44111,9.91043));
#21=CARTESIAN_POINT('',(3.20000,0.56800,10.11288));
#22=CARTESIAN_POINT('',(3.20000,3.23128,10.11288));
#23=CARTESIAN_POINT('',(4.48000,0.27510,10.27116));
#24=CARTESIAN_POINT('',(4.48000,3.09654,10.27116));
#25=CARTESIAN_POINT('',(4.75800,0.22750,10.30117));
#26=CARTESIAN_POINT('',(4.75800,3.07465,10.30117));
#27=CARTESIAN_POINT('',(6.08000,0.06637,10.42589));
#28=CARTESIAN_POINT('',(6.08000,3.00053,10.42589));
#29=CARTESIAN_POINT('',(6.12200,0.06290,10.42940));
#30=CARTESIAN_POINT('',(6.12200,2.99893,10.42940));
#31=CARTESIAN_POINT('',(7.68000,0.00000,10.54080));
#32=CARTESIAN_POINT('',(7.68000,2.97000,10.54080));
#33=CARTESIAN_POINT('',(10.88000,0.00000,10.73280));
#34=CARTESIAN_POINT('',(10.88000,2.97000,10.73280));
#35=CARTESIAN_POINT('',(23.68000,0.00000,11.50080));
#36=CARTESIAN_POINT('',(23.68000,2.97000,11.50080));
#37=CARTESIAN_POINT('',(27.15800,0.00000,11.70948));
#38=CARTESIAN_POINT('',(27.15800,2.97000,11.70948));
#39=CARTESIAN_POINT('',(28.52200,0.00000,11.79132));
#40=CARTESIAN_POINT('',(28.52200,2.97000,11.79132));
#41=CARTESIAN_POINT('',(32.00000,0.00000,12.00000));
#42=CARTESIAN_POINT('',(32.00000,2.97000,12.00000));
#43=CARTESIAN_POINT('',(0.00000,4.36150,0.83160));
#44=CARTESIAN_POINT('',(0.96000,3.68784,0.43145));
#45=CARTESIAN_POINT('',(0.96000,1.56053,0.43145));
#46=CARTESIAN_POINT('',(0.00000,3.02500,0.83160));
#47=CARTESIAN_POINT('',(1.92000,3.44111,0.28477));
#48=CARTESIAN_POINT('',(1.92000,1.02415,0.28477));
#49=CARTESIAN_POINT('',(3.20000,3.23128,0.15912));
#50=CARTESIAN_POINT('',(3.20000,0.56800,0.15912));
#51=CARTESIAN_POINT('',(4.48000,3.09654,0.07764));
#52=CARTESIAN_POINT('',(4.48000,0.27510,0.07764));
#53=CARTESIAN_POINT('',(4.75800,3.07465,0.06431));
#54=CARTESIAN_POINT('',(4.75800,0.22750,0.06431));
#55=CARTESIAN_POINT('',(6.08000,3.00053,0.01891));
#56=CARTESIAN_POINT('',(6.08000,0.06637,0.01891));
#57=CARTESIAN_POINT('',(6.12200,2.99893,0.01792));
#58=CARTESIAN_POINT('',(6.12200,0.06290,0.01792));
#59=CARTESIAN_POINT('',(7.68000,2.97000,0.00000));
#60=CARTESIAN_POINT('',(7.68000,0.00000,0.00000));
#61=CARTESIAN_POINT('',(10.88000,2.97000,0.00000));
#62=CARTESIAN_POINT('',(10.88000,0.00000,0.00000));
#63=CARTESIAN_POINT('',(23.68000,2.97000,0.00000));
#64=CARTESIAN_POINT('',(23.68000,0.00000,0.00000));
#65=CARTESIAN_POINT('',(27.15800,2.97000,0.00000));
#66=CARTESIAN_POINT('',(27.15800,0.00000,0.00000));
#67=CARTESIAN_POINT('',(28.52200,2.97000,0.00000));
#68=CARTESIAN_POINT('',(28.52200,0.00000,0.00000));
#69=CARTESIAN_POINT('',(32.00000,2.97000,0.00000));
#70=CARTESIAN_POINT('',(32.00000,0.00000,0.00000));
#71=CARTESIAN_POINT('',(0.96000,5.01151,9.70615));
#72=CARTESIAN_POINT('',(0.00000,5.19310,9.24840));
#73=CARTESIAN_POINT('',(1.92000,4.94499,9.91043));
#74=CARTESIAN_POINT('',(3.20000,4.88843,10.11288));
#75=CARTESIAN_POINT('',(4.48000,4.85211,10.27116));
#76=CARTESIAN_POINT('',(4.75800,4.84621,10.30117));
#77=CARTESIAN_POINT('',(6.08000,4.82623,10.42589));
#78=CARTESIAN_POINT('',(5.76843,4.82980,10.39904));
#79=CARTESIAN_POINT('',(5.44000,4.83431,10.36907));
#80=CARTESIAN_POINT('',(5.11157,4.83960,10.33735));
#81=CARTESIAN_POINT('',(6.12200,4.82580,10.42940));
#82=CARTESIAN_POINT('',(7.68000,4.81800,10.54080));
#83=CARTESIAN_POINT('',(10.88000,4.81800,10.73280));
#84=CARTESIAN_POINT('',(27.15800,4.81800,11.70948));
#85=CARTESIAN_POINT('',(23.68000,4.81800,11.50080));
#86=CARTESIAN_POINT('',(28.52200,4.81800,11.79132));
#87=CARTESIAN_POINT('',(28.16843,4.81800,11.77011));
#88=CARTESIAN_POINT('',(27.84000,4.81800,11.75040));
#89=CARTESIAN_POINT('',(27.51157,4.81800,11.73069));
#90=CARTESIAN_POINT('',(32.00000,4.81800,12.00000));
#91=CARTESIAN_POINT('',(0.00000,5.19310,0.83160));
#92=CARTESIAN_POINT('',(0.96000,5.01151,0.43145));
#93=CARTESIAN_POINT('',(1.92000,4.94499,0.28477));
#94=CARTESIAN_POINT('',(3.20000,4.88843,0.15912));
#95=CARTESIAN_POINT('',(4.48000,4.85211,0.07764));
#96=CARTESIAN_POINT('',(4.75800,4.84621,0.06431));
#97=CARTESIAN_POINT('',(5.11157,4.83960,0.04934));
#98=CARTESIAN_POINT('',(5.44000,4.83431,0.03733));
#99=CARTESIAN_POINT('',(5.76843,4.82980,0.02707));
#100=CARTESIAN_POINT('',(6.08000,4.82623,0.01891));
#101=CARTESIAN_POINT('',(6.12200,4.82580,0.01792));
#102=CARTESIAN_POINT('',(7.68000,4.81800,0.00000));
#103=CARTESIAN_POINT('',(10.88000,4.81800,0.00000));
#104=CARTESIAN_POINT('',(23.68000,4.81800,0.00000));
#105=CARTESIAN_POINT('',(27.15800,4.81800,0.00000));
#106=CARTESIAN_POINT('',(27.51157,4.81800,0.00000));
#107=CARTESIAN_POINT('',(27.84000,4.81800,0.00000));
#108=CARTESIAN_POINT('',(28.16843,4.81800,0.00000));
#109=CARTESIAN_POINT('',(28.52200,4.81800,0.00000));
#110=CARTESIAN_POINT('',(32.00000,4.81800,0.00000));
#111=CARTESIAN_POINT('',(0.96000,5.98849,9.70615));
#112=CARTESIAN_POINT('',(0.00000,5.80690,9.24840));
#113=CARTESIAN_POINT('',(1.92000,6.05501,9.91043));
#114=CARTESIAN_POINT('',(3.20000,6.11157,10.11288));
#115=CARTESIAN_POINT('',(4.48000,6.14789,10.27116));
#116=CARTESIAN_POINT('',(4.75800,4.97862,10.30117));
#117=CARTESIAN_POINT('',(4.75800,5.35078,10.30117));
#118=CARTESIAN_POINT('',(4.75800,5.64922,10.30117));
#119=CARTESIAN_POINT('',(4.75800,6.02138,10.30117));
#120=CARTESIAN_POINT('',(4.75800,6.15379,10.30117));
#121=CARTESIAN_POINT('',(7.68000,6.18200,10.54080));
#122=CARTESIAN_POINT('',(6.12200,6.17420,10.42940));
#123=CARTESIAN_POINT('',(6.12200,6.03766,10.42940));
#124=CARTESIAN_POINT('',(6.12200,5.65388,10.42940));
#125=CARTESIAN_POINT('',(6.12200,5.34612,10.42940));
#126=CARTESIAN_POINT('',(6.12200,4.96234,10.42940));
#127=CARTESIAN_POINT('',(10.88000,6.18200,10.73280));
#128=CARTESIAN_POINT('',(27.15800,4.95612,11.70948));
#129=CARTESIAN_POINT('',(27.15800,5.34434,11.70948));
#130=CARTESIAN_POINT('',(27.15800,5.65566,11.70948));
#131=CARTESIAN_POINT('',(27.15800,6.04388,11.70948));
#132=CARTESIAN_POINT('',(27.15800,6.18200,11.70948));
#133=CARTESIAN_POINT('',(23.68000,6.18200,11.50080));
#134=CARTESIAN_POINT('',(32.00000,6.18200,12.00000));
#135=CARTESIAN_POINT('',(28.52200,6.18200,11.79132));
#136=CARTESIAN_POINT('',(28.52200,6.04388,11.79132));
#137=CARTESIAN_POINT('',(28.52200,5.65566,11.79132));
#138=CARTESIAN_POINT('',(28.52200,5.34434,11.79132));
#139=CARTESIAN_POINT('',(28.52200,4.95612,11.79132));
#140=CARTESIAN_POINT('',(0.00000,5.80690,0.83160));
#141=CARTESIAN_POINT('',(0.96000,5.98849,0.43145));
#142=CARTESIAN_POINT('',(1.92000,6.05501,0.28477));
#143=CARTESIAN_POINT('',(3.20000,6.11157,0.15912));
#144=CARTESIAN_POINT('',(4.48000,6.14789,0.07764));
#145=CARTESIAN_POINT('',(4.75800,6.15379,0.06431));
#146=CARTESIAN_POINT('',(4.75800,6.02138,0.06431));
#147=CARTESIAN_POINT('',(4.75800,5.64922,0.06431));
#148=CARTESIAN_POINT('',(4.75800,5.35078,0.06431));
#149=CARTESIAN_POINT('',(4.75800,4.97862,0.06431));
#150=CARTESIAN_POINT('',(6.12200,4.96234,0.01792));
#151=CARTESIAN_POINT('',(6.12200,5.34612,0.01792));
#152=CARTESIAN_POINT('',(6.12200,5.65388,0.01792));
#153=CARTESIAN_POINT('',(6.12200,6.03766,0.01792));
#154=CARTESIAN_POINT('',(6.12200,6.17420,0.01792));
#155=CARTESIAN_POINT('',(7.68000,6.18200,0.00000));
#156=CARTESIAN_POINT('',(10.88000,6.18200,0.00000));
#157=CARTESIAN_POINT('',(23.68000,6.18200,0.00000));
#158=CARTESIAN_POINT('',(27.15800,6.18200,0.00000));
#159=CARTESIAN_POINT('',(27.15800,6.04388,0.00000));
#160=CARTESIAN_POINT('',(27.15800,5.65566,0.00000));
#161=CARTESIAN_POINT('',(27.15800,5.34434,0.00000));
#162=CARTESIAN_POINT('',(27.15800,4.95612,0.00000));
#163=CARTESIAN_POINT('',(28.52200,4.95612,0.00000));
#164=CARTESIAN_POINT('',(28.52200,5.34434,0.00000));
#165=CARTESIAN_POINT('',(28.52200,5.65566,0.00000));
#166=CARTESIAN_POINT('',(28.52200,6.04388,0.00000));
#167=CARTESIAN_POINT('',(28.52200,6.18200,0.00000));
#168=CARTESIAN_POINT('',(32.00000,6.18200,0.00000));
#169=CARTESIAN_POINT('',(0.96000,7.31216,9.70615));
#170=CARTESIAN_POINT('',(0.00000,6.63850,9.24840));
#171=CARTESIAN_POINT('',(1.92000,7.55889,9.91043));
#172=CARTESIAN_POINT('',(3.20000,7.76872,10.11288));
#173=CARTESIAN_POINT('',(4.48000,7.90346,10.27116));
#174=CARTESIAN_POINT('',(4.75800,7.92535,10.30117));
#175=CARTESIAN_POINT('',(5.11157,6.16040,10.33735));
#176=CARTESIAN_POINT('',(5.44000,6.16569,10.36907));
#177=CARTESIAN_POINT('',(5.76843,6.17020,10.39904));
#178=CARTESIAN_POINT('',(6.08000,6.17377,10.42589));
#179=CARTESIAN_POINT('',(6.08000,7.99947,10.42589));
#180=CARTESIAN_POINT('',(6.12200,8.00107,10.42940));
#181=CARTESIAN_POINT('',(7.68000,8.03000,10.54080));
#182=CARTESIAN_POINT('',(10.88000,8.03000,10.73280));
#183=CARTESIAN_POINT('',(27.15800,8.03000,11.70948));
#184=CARTESIAN_POINT('',(23.68000,8.03000,11.50080));
#185=CARTESIAN_POINT('',(27.51157,6.18200,11.73069));
#186=CARTESIAN_POINT('',(27.84000,6.18200,11.75040));
#187=CARTESIAN_POINT('',(28.16843,6.18200,11.77011));
#188=CARTESIAN_POINT('',(28.52200,8.03000,11.79132));
#189=CARTESIAN_POINT('',(32.00000,8.03000,12.00000));
#190=CARTESIAN_POINT('',(0.00000,6.63850,0.83160));
#191=CARTESIAN_POINT('',(0.96000,7.31216,0.43145));
#192=CARTESIAN_POINT('',(1.92000,7.55889,0.28477));
#193=CARTESIAN_POINT('',(3.20000,7.76872,0.15912));
#194=CARTESIAN_POINT('',(4.48000,7.90346,0.07764));
#195=CARTESIAN_POINT('',(4.75800,7.92535,0.06431));
#196=CARTESIAN_POINT('',(6.08000,7.99947,0.01891));
#197=CARTESIAN_POINT('',(6.08000,6.17377,0.01891));
#198=CARTESIAN_POINT('',(5.76843,6.17020,0.02707));
#199=CARTESIAN_POINT('',(5.44000,6.16569,0.03733));
#200=CARTESIAN_POINT('',(5.11157,6.16040,0.04934));
#201=CARTESIAN_POINT('',(6.12200,8.00107,0.01792));
#202=CARTESIAN_POINT('',(7.68000,8.03000,0.00000));
#203=CARTESIAN_POINT('',(10.88000,8.03000,0.00000));
#204=CARTESIAN_POINT('',(23.68000,8.03000,0.00000));
#205=CARTESIAN_POINT('',(27.15800,8.03000,0.00000));
#206=CARTESIAN_POINT('',(28.52200,8.03000,0.00000));
#207=CARTESIAN_POINT('',(28.16843,6.18200,0.00000));
#208=CARTESIAN_POINT('',(27.84000,6.18200,0.00000));
#209=CARTESIAN_POINT('',(27.51157,6.18200,0.00000));
#210=CARTESIAN_POINT('',(32.00000,8.03000,0.00000));
#211=CARTESIAN_POINT('',(0.96000,9.43947,9.70615));
#212=CARTESIAN_POINT('',(0.00000,7.97500,9.24840));
#213=CARTESIAN_POINT('',(1.92000,9.97585,9.91043));
#214=CARTESIAN_POINT('',(3.20000,10.43200,10.11288));
#215=CARTESIAN_POINT('',(4.48000,10.72490,10.27116));
#216=CARTESIAN_POINT('',(4.75800,10.77250,10.30117));
#217=CARTESIAN_POINT('',(6.08000,10.93363,10.42589));
#218=CARTESIAN_POINT('',(6.12200,10.93710,10.42940));
#219=CARTESIAN_POINT('',(7.68000,11.00000,10.54080));
#220=CARTESIAN_POINT('',(10.88000,11.00000,10.73280));
#221=CARTESIAN_POINT('',(23.68000,11.00000,11.50080));
#222=CARTESIAN_POINT('',(27.15800,11.00000,11.70948));
#223=CARTESIAN_POINT('',(28.52200,11.00000,11.79132));
#224=CARTESIAN_POINT('',(32.00000,11.00000,12.00000));
#225=CARTESIAN_POINT('',(0.00000,7.97500,0.83160));
#226=CARTESIAN_POINT('',(0.96000,9.43947,0.43145));
#227=CARTESIAN_POINT('',(1.92000,9.97585,0.28477));
#228=CARTESIAN_POINT('',(3.20000,10.43200,0.15912));
#229=CARTESIAN_POINT('',(4.48000,10.72490,0.07764));
#230=CARTESIAN_POINT('',(4.75800,10.77250,0.06431));
#231=CARTESIAN_POINT('',(6.08000,10.93363,0.01891));
#232=CARTESIAN_POINT('',(6.12200,10.93710,0.01792));
#233=CARTESIAN_POINT('',(7.68000,11.00000,0.00000));
#234=CARTESIAN_POINT('',(10.88000,11.00000,0.00000));
#235=CARTESIAN_POINT('',(23.68000,11.00000,0.00000));
#236=CARTESIAN_POINT('',(27.15800,11.00000,0.00000));
#237=CARTESIAN_POINT('',(28.52200,11.00000,0.00000));
#238=CARTESIAN_POINT('',(32.00000,11.00000,0.00000));
#239=CARTESIAN_POINT('',(5.78401,5.76967,10.40041));
#240=CARTESIAN_POINT('',(5.86897,5.59639,10.40787));
#241=CARTESIAN_POINT('',(5.75113,5.80564,10.39750));
#242=CARTESIAN_POINT('',(5.74109,5.81513,10.39661));
#243=CARTESIAN_POINT('',(5.63091,5.88852,10.38670));
#244=CARTESIAN_POINT('',(5.44000,5.92948,10.36907));
#245=CARTESIAN_POINT('',(5.24909,5.88522,10.35085));
#246=CARTESIAN_POINT('',(5.12887,5.80141,10.33907));
#247=CARTESIAN_POINT('',(5.09599,5.76554,10.33581));
#248=CARTESIAN_POINT('',(5.01103,5.59455,10.32728));
#249=CARTESIAN_POINT('',(5.01103,5.40545,10.32728));
#250=CARTESIAN_POINT('',(5.09599,5.23446,10.33581));
#251=CARTESIAN_POINT('',(5.12887,5.19859,10.33907));
#252=CARTESIAN_POINT('',(5.24909,5.11478,10.35085));
#253=CARTESIAN_POINT('',(5.44000,5.07052,10.36907));
#254=CARTESIAN_POINT('',(5.63091,5.11148,10.38670));
#255=CARTESIAN_POINT('',(5.74109,5.18487,10.39661));
#256=CARTESIAN_POINT('',(5.75113,5.19436,10.39750));
#257=CARTESIAN_POINT('',(5.78401,5.23033,10.40041));
#258=CARTESIAN_POINT('',(5.86897,5.40361,10.40787));
#259=CARTESIAN_POINT('',(5.78401,5.76967,0.02663));
#260=CARTESIAN_POINT('',(5.86897,5.59639,0.02427));
#261=CARTESIAN_POINT('',(5.75113,5.80564,0.02757));
#262=CARTESIAN_POINT('',(5.74109,5.81513,0.02786));
#263=CARTESIAN_POINT('',(5.63091,5.88852,0.03116));
#264=CARTESIAN_POINT('',(5.44000,5.92948,0.03733));
#265=CARTESIAN_POINT('',(5.24909,5.88522,0.04409));
#266=CARTESIAN_POINT('',(5.12887,5.80141,0.04866));
#267=CARTESIAN_POINT('',(5.09599,5.76554,0.04995));
#268=CARTESIAN_POINT('',(5.01103,5.59455,0.05338));
#269=CARTESIAN_POINT('',(5.01103,5.40545,0.05338));
#270=CARTESIAN_POINT('',(5.09599,5.23446,0.04995));
#271=CARTESIAN_POINT('',(5.12887,5.19859,0.04866));
#272=CARTESIAN_POINT('',(5.24909,5.11478,0.04409));
#273=CARTESIAN_POINT('',(5.44000,5.07052,0.03733));
#274=CARTESIAN_POINT('',(5.63091,5.11148,0.03116));
#275=CARTESIAN_POINT('',(5.74109,5.18487,0.02786));
#276=CARTESIAN_POINT('',(5.75113,5.19436,0.02757));
#277=CARTESIAN_POINT('',(5.78401,5.23033,0.02663));
#278=CARTESIAN_POINT('',(5.86897,5.40361,0.02427));
#279=CARTESIAN_POINT('',(28.18401,5.77434,11.77104));
#280=CARTESIAN_POINT('',(28.26897,5.59791,11.77614));
#281=CARTESIAN_POINT('',(28.15113,5.81113,11.76907));
#282=CARTESIAN_POINT('',(28.03091,5.89643,11.76185));
#283=CARTESIAN_POINT('',(27.84000,5.94000,11.75040));
#284=CARTESIAN_POINT('',(27.64909,5.89643,11.73895));
#285=CARTESIAN_POINT('',(27.52887,5.81113,11.73173));
#286=CARTESIAN_POINT('',(27.49599,5.77434,11.72976));
#287=CARTESIAN_POINT('',(27.41103,5.59791,11.72466));
#288=CARTESIAN_POINT('',(27.41103,5.40209,11.72466));
#289=CARTESIAN_POINT('',(27.49599,5.22566,11.72976));
#290=CARTESIAN_POINT('',(27.52887,5.18887,11.73173));
#291=CARTESIAN_POINT('',(27.64909,5.10357,11.73895));
#292=CARTESIAN_POINT('',(27.84000,5.06000,11.75040));
#293=CARTESIAN_POINT('',(28.03091,5.10357,11.76185));
#294=CARTESIAN_POINT('',(28.15113,5.18887,11.76907));
#295=CARTESIAN_POINT('',(28.18401,5.22566,11.77104));
#296=CARTESIAN_POINT('',(28.26897,5.40209,11.77614));
#297=CARTESIAN_POINT('',(28.18401,5.77434,0.00000));
#298=CARTESIAN_POINT('',(28.26897,5.59791,0.00000));
#299=CARTESIAN_POINT('',(28.15113,5.81113,0.00000));
#300=CARTESIAN_POINT('',(28.03091,5.89643,0.00000));
#301=CARTESIAN_POINT('',(27.84000,5.94000,0.00000));
#302=CARTESIAN_POINT('',(27.64909,5.89643,0.00000));
#303=CARTESIAN_POINT('',(27.52887,5.81113,0.00000));
#304=CARTESIAN_POINT('',(27.49599,5.77434,0.00000));
#305=CARTESIAN_POINT('',(27.41103,5.59791,0.00000));
#306=CARTESIAN_POINT('',(27.41103,5.40209,0.00000));
#307=CARTESIAN_POINT('',(27.49599,5.22566,0.00000));
#308=CARTESIAN_POINT('',(27.52887,5.18887,0.00000));
#309=CARTESIAN_POINT('',(27.64909,5.10357,0.00000));
#310=CARTESIAN_POINT('',(27.84000,5.06000,0.00000));
#311=CARTESIAN_POINT('',(28.03091,5.10357,0.00000));
#312=CARTESIAN_POINT('',(28.15113,5.18887,0.00000));
#313=CARTESIAN_POINT('',(28.18401,5.22566,0.00000));
#314=CARTESIAN_POINT('',(28.26897,5.40209,0.00000));
#315=CARTESIAN_POINT('',(10.04800,0.44000,11.20800));
#316=CARTESIAN_POINT('',(10.04800,0.44000,10.60800));
#317=CARTESIAN_POINT('',(8.48000,0.44000,10.60800));
#318=CARTESIAN_POINT('',(8.48000,10.56000,10.60800));
#319=CARTESIAN_POINT('',(10.04800,10.56000,10.60800));
#320=CARTESIAN_POINT('',(10.04800,10.56000,11.20800));
#321=CARTESIAN_POINT('',(8.48000,0.44000,0.04800));
#322=CARTESIAN_POINT('',(10.04800,0.44000,0.04800));
#323=CARTESIAN_POINT('',(10.04800,0.44000,-0.55200));
#324=CARTESIAN_POINT('',(10.04800,10.56000,-0.55200));
#325=CARTESIAN_POINT('',(10.04800,10.56000,0.04800));
#326=CARTESIAN_POINT('',(8.48000,10.56000,0.04800));
#327=CARTESIAN_POINT('',(14.01600,0.44000,11.44608));
#328=CARTESIAN_POINT('',(14.01600,0.44000,10.84608));
#329=CARTESIAN_POINT('',(12.44800,0.44000,10.84608));
#330=CARTESIAN_POINT('',(12.44800,2.86000,10.84608));
#331=CARTESIAN_POINT('',(14.01600,2.86000,10.84608));
#332=CARTESIAN_POINT('',(14.01600,2.86000,11.44608));
#333=CARTESIAN_POINT('',(14.01600,8.14000,11.44608));
#334=CARTESIAN_POINT('',(14.01600,8.14000,10.84608));
#335=CARTESIAN_POINT('',(12.44800,8.14000,10.84608));
#336=CARTESIAN_POINT('',(12.44800,10.56000,10.84608));
#337=CARTESIAN_POINT('',(14.01600,10.56000,10.84608));
#338=CARTESIAN_POINT('',(14.01600,10.56000,11.44608));
#339=CARTESIAN_POINT('',(12.44800,0.44000,0.04800));
#340=CARTESIAN_POINT('',(14.01600,0.44000,0.04800));
#341=CARTESIAN_POINT('',(14.01600,0.44000,-0.55200));
#342=CARTESIAN_POINT('',(14.01600,2.86000,-0.55200));
#343=CARTESIAN_POINT('',(14.01600,2.86000,0.04800));
#344=CARTESIAN_POINT('',(12.44800,2.86000,0.04800));
#345=CARTESIAN_POINT('',(12.44800,8.14000,0.04800));
#346=CARTESIAN_POINT('',(14.01600,8.14000,0.04800));
#347=CARTESIAN_POINT('',(14.01600,8.14000,-0.55200));
#348=CARTESIAN_POINT('',(14.01600,10.56000,-0.55200));
#349=CARTESIAN_POINT('',(14.01600,10.56000,0.04800));
#350=CARTESIAN_POINT('',(12.44800,10.56000,0.04800));
#351=CARTESIAN_POINT('',(17.98400,0.44000,11.68416));
#352=CARTESIAN_POINT('',(17.98400,0.44000,11.08416));
#353=CARTESIAN_POINT('',(16.41600,0.44000,11.08416));
#354=CARTESIAN_POINT('',(16.41600,2.86000,11.08416));
#355=CARTESIAN_POINT('',(17.98400,2.86000,11.08416));
#356=CARTESIAN_POINT('',(17.98400,2.86000,11.68416));
#357=CARTESIAN_POINT('',(17.98400,8.14000,11.68416));
#358=CARTESIAN_POINT('',(17.98400,8.14000,11.08416));
#359=CARTESIAN_POINT('',(16.41600,8.14000,11.08416));
#360=CARTESIAN_POINT('',(16.41600,10.56000,11.08416));
#361=CARTESIAN_POINT('',(17.98400,10.56000,11.08416));
#362=CARTESIAN_POINT('',(17.98400,10.56000,11.68416));
#363=CARTESIAN_POINT('',(16.41600,0.44000,0.04800));
#364=CARTESIAN_POINT('',(17.98400,0.44000,0.04800));
#365=CARTESIAN_POINT('',(17.98400,0.44000,-0.55200));
#366=CARTESIAN_POINT('',(17.98400,2.86000,-0.55200));
#367=CARTESIAN_POINT('',(17.98400,2.86000,0.04800));
#368=CARTESIAN_POINT('',(16.41600,2.86000,0.04800));
#369=CARTESIAN_POINT('',(16.41600,8.14000,0.04800));
#370=CARTESIAN_POINT('',(17.98400,8.14000,0.04800));
#371=CARTESIAN_POINT('',(17.98400,8.14000,-0.55200));
#372=CARTESIAN_POINT('',(17.98400,10.56000,-0.55200));
#373=CARTESIAN_POINT('',(17.98400,10.56000,0.04800));
#374=CARTESIAN_POINT('',(16.41600,10.56000,0.04800));
#375=CARTESIAN_POINT('',(21.95200,0.44000,11.92224));
#376=CARTESIAN_POINT('',(21.95200,0.44000,11.32224));
#377=CARTESIAN_POINT('',(20.38400,0.44000,11.32224));
#378=CARTESIAN_POINT('',(20.38400,2.86000,11.32224));
#379=CARTESIAN_POINT('',(21.95200,2.86000,11.32224));
#380=CARTESIAN_POINT('',(21.95200,2.86000,11.92224));
#381=CARTESIAN_POINT('',(21.95200,8.14000,11.92224));
#382=CARTESIAN_POINT('',(21.95200,8.14000,11.32224));
#383=CARTESIAN_POINT('',(20.38400,8.14000,11.32224));
#384=CARTESIAN_POINT('',(20.38400,10.56000,11.32224));
#385=CARTESIAN_POINT('',(21.95200,10.56000,11.32224));
#386=CARTESIAN_POINT('',(21.95200,10.56000,11.92224));
#387=CARTESIAN_POINT('',(20.38400,0.44000,0.04800));
#388=CARTESIAN_POINT('',(21.95200,0.44000,0.04800));
#389=CARTESIAN_POINT('',(21.95200,0.44000,-0.55200));
#390=CARTESIAN_POINT('',(21.95200,2.86000,-0.55200));
#391=CARTESIAN_POINT('',(21.95200,2.86000,0.04800));
#392=CARTESIAN_POINT('',(20.38400,2.86000,0.04800));
#393=CARTESIAN_POINT('',(20.38400,8.14000,0.04800));
#394=CARTESIAN_POINT('',(21.95200,8.14000,0.04800));
#395=CARTESIAN_POINT('',(21.95200,8.14000,-0.55200));
#396=CARTESIAN_POINT('',(21.95200,10.56000,-0.55200));
#397=CARTESIAN_POINT('',(21.95200,10.56000,0.04800));
#398=CARTESIAN_POINT('',(20.38400,10.56000,0.04800));
#399=CARTESIAN_POINT('',(25.92000,0.44000,12.16032));
#400=CARTESIAN_POINT('',(25.92000,0.44000,11.56032));
#401=CARTESIAN_POINT('',(24.35200,0.44000,11.56032));
#402=CARTESIAN_POINT('',(24.35200,10.56000,11.56032));
#403=CARTESIAN_POINT('',(25.92000,10.56000,11.56032));
#404=CARTESIAN_POINT('',(25.92000,10.56000,12.16032));
#405=CARTESIAN_POINT('',(24.35200,0.44000,0.04800));
#406=CARTESIAN_POINT('',(25.92000,0.44000,0.04800));
#407=CARTESIAN_POINT('',(25.92000,0.44000,-0.55200));
#408=CARTESIAN_POINT('',(25.92000,10.56000,-0.55200));
#409=CARTESIAN_POINT('',(25.92000,10.56000,0.04800));
#410=CARTESIAN_POINT('',(24.35200,10.56000,0.04800));
#411=CARTESIAN_POINT('',(29.88800,0.44000,12.39840));
#412=CARTESIAN_POINT('',(29.88800,0.44000,11.79840));
#413=CARTESIAN_POINT('',(28.32000,0.44000,11.79840));
#414=CARTESIAN_POINT('',(28.32000,10.56000,11.79840));
#415=CARTESIAN_POINT('',(29.88800,10.56000,11.79840));
#416=CARTESIAN_POINT('',(29.88800,10.56000,12.39840));
#417=CARTESIAN_POINT('',(28.32000,0.44000,0.04800));
#418=CARTESIAN_POINT('',(29.88800,0.44000,0.04800));
#419=CARTESIAN_POINT('',(29.88800,0.44000,-0.55200));
#420=CARTESIAN_POINT('',(29.88800,10.56000,-0.55200));
#421=CARTESIAN_POINT('',(29.88800,10.56000,0.04800));
#422=CARTESIAN_POINT('',(28.32000,10.56000,0.04800));
#423=POLY_LOOP('',(#15,#16,#17,#18));
#424=FACE_OUTER_BOUND('',#423,.T.);
#425=FACE('',(#424));
#426=POLY_LOOP('',(#16,#19,#20,#17));
#427=FACE_OUTER_BOUND('',#426,.T.);
#428=FACE('',(#427));
#429=POLY_LOOP('',(#19,#21,#22,#20));
#430=FACE_OUTER_BOUND('',#429,.T.);
#431=FACE('',(#430));
#432=POLY_LOOP('',(#21,#23,#24,#22));
#433=FACE_OUTER_BOUND('',#432,.T.);
#434=FACE('',(#433));
#435=POLY_LOOP('',(#23,#25,#26,#24));
#436=FACE_OUTER_BOUND('',#435,.T.);
#437=FACE('',(#436));
#438=POLY_LOOP('',(#25,#27,#28,#26));
#439=FACE_OUTER_BOUND('',#438,.T.);
#440=FACE('',(#439));
#441=POLY_LOOP('',(#27,#29,#30,#28));
#442=FACE_OUTER_BOUND('',#441,.T.);
#443=FACE('',(#442));
#444=POLY_LOOP('',(#29,#31,#32,#30));
#445=FACE_OUTER_BOUND('',#444,.T.);
#446=FACE('',(#445));
#447=POLY_LOOP('',(#31,#33,#34,#32));
#448=FACE_OUTER_BOUND('',#447,.T.);
#449=FACE('',(#448));
#450=POLY_LOOP('',(#33,#35,#36,#34));
#451=FACE_OUTER_BOUND('',#450,.T.);
#452=FACE('',(#451));
#453=POLY_LOOP('',(#35,#37,#38,#36));
#454=FACE_OUTER_BOUND('',#453,.T.);
#455=FACE('',(#454));
#456=POLY_LOOP('',(#37,#39,#40,#38));
#457=FACE_OUTER_BOUND('',#456,.T.);
#458=FACE('',(#457));
#459=POLY_LOOP('',(#39,#41,#42,#40));
#460=FACE_OUTER_BOUND('',#459,.T.);
#461=FACE('',(#460));
#462=POLY_LOOP('',(#43,#44,#45,#46));
#463=FACE_OUTER_BOUND('',#462,.T.);
#464=FACE('',(#463));
#465=POLY_LOOP('',(#44,#47,#48,#45));
#466=FACE_OUTER_BOUND('',#465,.T.);
#467=FACE('',(#466));
#468=POLY_LOOP('',(#47,#49,#50,#48));
#469=FACE_OUTER_BOUND('',#468,.T.);
#470=FACE('',(#469));
#471=POLY_LOOP('',(#49,#51,#52,#50));
#472=FACE_OUTER_BOUND('',#471,.T.);
#473=FACE('',(#472));
#474=POLY_LOOP('',(#51,#53,#54,#52));
#475=FACE_OUTER_BOUND('',#474,.T.);
#476=FACE('',(#475));
#477=POLY_LOOP('',(#53,#55,#56,#54));
#478=FACE_OUTER_BOUND('',#477,.T.);
#479=FACE('',(#478));
#480=POLY_LOOP('',(#55,#57,#58,#56));
#481=FACE_OUTER_BOUND('',#480,.T.);
#482=FACE('',(#481));
#483=POLY_LOOP('',(#57,#59,#60,#58));
#484=FACE_OUTER_BOUND('',#483,.T.);
#485=FACE('',(#484));
#486=POLY_LOOP('',(#59,#61,#62,#60));
#487=FACE_OUTER_BOUND('',#486,.T.);
#488=FACE('',(#487));
#489=POLY_LOOP('',(#61,#63,#64,#62));
#490=FACE_OUTER_BOUND('',#489,.T.);
#491=FACE('',(#490));
#492=POLY_LOOP('',(#63,#65,#66,#64));
#493=FACE_OUTER_BOUND('',#492,.T.);
#494=FACE('',(#493));
#495=POLY_LOOP('',(#65,#67,#68,#66));
#496=FACE_OUTER_BOUND('',#495,.T.);
#497=FACE('',(#496));
#498=POLY_LOOP('',(#67,#69,#70,#68));
#499=FACE_OUTER_BOUND('',#498,.T.);
#500=FACE('',(#499));
#501=POLY_LOOP('',(#18,#17,#71,#72));
#502=FACE_OUTER_BOUND('',#501,.T.);
#503=FACE('',(#502));
#504=POLY_LOOP('',(#17,#20,#73,#71));
#505=FACE_OUTER_BOUND('',#504,.T.);
#506=FACE('',(#505));
#507=POLY_LOOP('',(#20,#22,#74,#73));
#508=FACE_OUTER_BOUND('',#507,.T.);
#509=FACE('',(#508));
#510=POLY_LOOP('',(#22,#24,#75,#74));
#511=FACE_OUTER_BOUND('',#510,.T.);
#512=FACE('',(#511));
#513=POLY_LOOP('',(#24,#26,#76,#75));
#514=FACE_OUTER_BOUND('',#513,.T.);
#515=FACE('',(#514));
#516=POLY_LOOP('',(#26,#28,#77));
#517=FACE_OUTER_BOUND('',#516,.T.);
#518=FACE('',(#517));
#519=POLY_LOOP('',(#26,#77,#78));
#520=FACE_OUTER_BOUND('',#519,.T.);
#521=FACE('',(#520));
#522=POLY_LOOP('',(#26,#78,#79));
#523=FACE_OUTER_BOUND('',#522,.T.);
#524=FACE('',(#523));
#525=POLY_LOOP('',(#26,#79,#80));
#526=FACE_OUTER_BOUND('',#525,.T.);
#527=FACE('',(#526));
#528=POLY_LOOP('',(#26,#80,#76));
#529=FACE_OUTER_BOUND('',#528,.T.);
#530=FACE('',(#529));
#531=POLY_LOOP('',(#28,#30,#81,#77));
#532=FACE_OUTER_BOUND('',#531,.T.);
#533=FACE('',(#532));
#534=POLY_LOOP('',(#30,#32,#82,#81));
#535=FACE_OUTER_BOUND('',#534,.T.);
#536=FACE('',(#535));
#537=POLY_LOOP('',(#32,#34,#83,#82));
#538=FACE_OUTER_BOUND('',#537,.T.);
#539=FACE('',(#538));
#540=POLY_LOOP('',(#36,#38,#84,#85));
#541=FACE_OUTER_BOUND('',#540,.T.);
#542=FACE('',(#541));
#543=POLY_LOOP('',(#38,#40,#86,#87,#88,#89,#84));
#544=FACE_OUTER_BOUND('',#543,.T.);
#545=FACE('',(#544));
#546=POLY_LOOP('',(#40,#42,#90,#86));
#547=FACE_OUTER_BOUND('',#546,.T.);
#548=FACE('',(#547));
#549=POLY_LOOP('',(#91,#92,#44,#43));
#550=FACE_OUTER_BOUND('',#549,.T.);
#551=FACE('',(#550));
#552=POLY_LOOP('',(#92,#93,#47,#44));
#553=FACE_OUTER_BOUND('',#552,.T.);
#554=FACE('',(#553));
#555=POLY_LOOP('',(#93,#94,#49,#47));
#556=FACE_OUTER_BOUND('',#555,.T.);
#557=FACE('',(#556));
#558=POLY_LOOP('',(#94,#95,#51,#49));
#559=FACE_OUTER_BOUND('',#558,.T.);
#560=FACE('',(#559));
#561=POLY_LOOP('',(#95,#96,#53,#51));
#562=FACE_OUTER_BOUND('',#561,.T.);
#563=FACE('',(#562));
#564=POLY_LOOP('',(#96,#97,#98));
#565=FACE_OUTER_BOUND('',#564,.T.);
#566=FACE('',(#565));
#567=POLY_LOOP('',(#96,#98,#99));
#568=FACE_OUTER_BOUND('',#567,.T.);
#569=FACE('',(#568));
#570=POLY_LOOP('',(#96,#99,#100));
#571=FACE_OUTER_BOUND('',#570,.T.);
#572=FACE('',(#571));
#573=POLY_LOOP('',(#96,#100,#55));
#574=FACE_OUTER_BOUND('',#573,.T.);
#575=FACE('',(#574));
#576=POLY_LOOP('',(#96,#55,#53));
#577=FACE_OUTER_BOUND('',#576,.T.);
#578=FACE('',(#577));
#579=POLY_LOOP('',(#100,#101,#57,#55));
#580=FACE_OUTER_BOUND('',#579,.T.);
#581=FACE('',(#580));
#582=POLY_LOOP('',(#101,#102,#59,#57));
#583=FACE_OUTER_BOUND('',#582,.T.);
#584=FACE('',(#583));
#585=POLY_LOOP('',(#102,#103,#61,#59));
#586=FACE_OUTER_BOUND('',#585,.T.);
#587=FACE('',(#586));
#588=POLY_LOOP('',(#104,#105,#65,#63));
#589=FACE_OUTER_BOUND('',#588,.T.);
#590=FACE('',(#589));
#591=POLY_LOOP('',(#105,#106,#107,#108,#109,#67,#65));
#592=FACE_OUTER_BOUND('',#591,.T.);
#593=FACE('',(#592));
#594=POLY_LOOP('',(#109,#110,#69,#67));
#595=FACE_OUTER_BOUND('',#594,.T.);
#596=FACE('',(#595));
#597=POLY_LOOP('',(#72,#71,#111,#112));
#598=FACE_OUTER_BOUND('',#597,.T.);
#599=FACE('',(#598));
#600=POLY_LOOP('',(#71,#73,#113,#111));
#601=FACE_OUTER_BOUND('',#600,.T.);
#602=FACE('',(#601));
#603=POLY_LOOP('',(#73,#74,#114,#113));
#604=FACE_OUTER_BOUND('',#603,.T.);
#605=FACE('',(#604));
#606=POLY_LOOP('',(#74,#75,#115,#114));
#607=FACE_OUTER_BOUND('',#606,.T.);
#608=FACE('',(#607));
#609=POLY_LOOP('',(#75,#76,#116,#117,#118,#119,#120,#115));
#610=FACE_OUTER_BOUND('',#609,.T.);
#611=FACE('',(#610));
#612=POLY_LOOP('',(#81,#82,#121,#122,#123,#124,#125,#126));
#613=FACE_OUTER_BOUND('',#612,.T.);
#614=FACE('',(#613));
#615=POLY_LOOP('',(#82,#83,#127,#121));
#616=FACE_OUTER_BOUND('',#615,.T.);
#617=FACE('',(#616));
#618=POLY_LOOP('',(#85,#84,#128,#129,#130,#131,#132,#133));
#619=FACE_OUTER_BOUND('',#618,.T.);
#620=FACE('',(#619));
#621=POLY_LOOP('',(#86,#90,#134,#135,#136,#137,#138,#139));
#622=FACE_OUTER_BOUND('',#621,.T.);
#623=FACE('',(#622));
#624=POLY_LOOP('',(#140,#141,#92,#91));
#625=FACE_OUTER_BOUND('',#624,.T.);
#626=FACE('',(#625));
#627=POLY_LOOP('',(#141,#142,#93,#92));
#628=FACE_OUTER_BOUND('',#627,.T.);
#629=FACE('',(#628));
#630=POLY_LOOP('',(#142,#143,#94,#93));
#631=FACE_OUTER_BOUND('',#630,.T.);
#632=FACE('',(#631));
#633=POLY_LOOP('',(#143,#144,#95,#94));
#634=FACE_OUTER_BOUND('',#633,.T.);
#635=FACE('',(#634));
#636=POLY_LOOP('',(#144,#145,#146,#147,#148,#149,#96,#95));
#637=FACE_OUTER_BOUND('',#636,.T.);
#638=FACE('',(#637));
#639=POLY_LOOP('',(#150,#151,#152,#153,#154,#155,#102,#101));
#640=FACE_OUTER_BOUND('',#639,.T.);
#641=FACE('',(#640));
#642=POLY_LOOP('',(#155,#156,#103,#102));
#643=FACE_OUTER_BOUND('',#642,.T.);
#644=FACE('',(#643));
#645=POLY_LOOP('',(#157,#158,#159,#160,#161,#162,#105,#104));
#646=FACE_OUTER_BOUND('',#645,.T.);
#647=FACE('',(#646));
#648=POLY_LOOP('',(#163,#164,#165,#166,#167,#168,#110,#109));
#649=FACE_OUTER_BOUND('',#648,.T.);
#650=FACE('',(#649));
#651=POLY_LOOP('',(#112,#111,#169,#170));
#652=FACE_OUTER_BOUND('',#651,.T.);
#653=FACE('',(#652));
#654=POLY_LOOP('',(#111,#113,#171,#169));
#655=FACE_OUTER_BOUND('',#654,.T.);
#656=FACE('',(#655));
#657=POLY_LOOP('',(#113,#114,#172,#171));
#658=FACE_OUTER_BOUND('',#657,.T.);
#659=FACE('',(#658));
#660=POLY_LOOP('',(#114,#115,#173,#172));
#661=FACE_OUTER_BOUND('',#660,.T.);
#662=FACE('',(#661));
#663=POLY_LOOP('',(#115,#120,#174,#173));
#664=FACE_OUTER_BOUND('',#663,.T.);
#665=FACE('',(#664));
#666=POLY_LOOP('',(#120,#175,#176));
#667=FACE_OUTER_BOUND('',#666,.T.);
#668=FACE('',(#667));
#669=POLY_LOOP('',(#120,#176,#177));
#670=FACE_OUTER_BOUND('',#669,.T.);
#671=FACE('',(#670));
#672=POLY_LOOP('',(#120,#177,#178));
#673=FACE_OUTER_BOUND('',#672,.T.);
#674=FACE('',(#673));
#675=POLY_LOOP('',(#120,#178,#179));
#676=FACE_OUTER_BOUND('',#675,.T.);
#677=FACE('',(#676));
#678=POLY_LOOP('',(#120,#179,#174));
#679=FACE_OUTER_BOUND('',#678,.T.);
#680=FACE('',(#679));
#681=POLY_LOOP('',(#178,#122,#180,#179));
#682=FACE_OUTER_BOUND('',#681,.T.);
#683=FACE('',(#682));
#684=POLY_LOOP('',(#122,#121,#181,#180));
#685=FACE_OUTER_BOUND('',#684,.T.);
#686=FACE('',(#685));
#687=POLY_LOOP('',(#121,#127,#182,#181));
#688=FACE_OUTER_BOUND('',#687,.T.);
#689=FACE('',(#688));
#690=POLY_LOOP('',(#133,#132,#183,#184));
#691=FACE_OUTER_BOUND('',#690,.T.);
#692=FACE('',(#691));
#693=POLY_LOOP('',(#132,#185,#186,#187,#135,#188,#183));
#694=FACE_OUTER_BOUND('',#693,.T.);
#695=FACE('',(#694));
#696=POLY_LOOP('',(#135,#134,#189,#188));
#697=FACE_OUTER_BOUND('',#696,.T.);
#698=FACE('',(#697));
#699=POLY_LOOP('',(#190,#191,#141,#140));
#700=FACE_OUTER_BOUND('',#699,.T.);
#701=FACE('',(#700));
#702=POLY_LOOP('',(#191,#192,#142,#141));
#703=FACE_OUTER_BOUND('',#702,.T.);
#704=FACE('',(#703));
#705=POLY_LOOP('',(#192,#193,#143,#142));
#706=FACE_OUTER_BOUND('',#705,.T.);
#707=FACE('',(#706));
#708=POLY_LOOP('',(#193,#194,#144,#143));
#709=FACE_OUTER_BOUND('',#708,.T.);
#710=FACE('',(#709));
#711=POLY_LOOP('',(#194,#195,#145,#144));
#712=FACE_OUTER_BOUND('',#711,.T.);
#713=FACE('',(#712));
#714=POLY_LOOP('',(#195,#196,#197));
#715=FACE_OUTER_BOUND('',#714,.T.);
#716=FACE('',(#715));
#717=POLY_LOOP('',(#195,#197,#198));
#718=FACE_OUTER_BOUND('',#717,.T.);
#719=FACE('',(#718));
#720=POLY_LOOP('',(#195,#198,#199));
#721=FACE_OUTER_BOUND('',#720,.T.);
#722=FACE('',(#721));
#723=POLY_LOOP('',(#195,#199,#200));
#724=FACE_OUTER_BOUND('',#723,.T.);
#725=FACE('',(#724));
#726=POLY_LOOP('',(#195,#200,#145));
#727=FACE_OUTER_BOUND('',#726,.T.);
#728=FACE('',(#727));
#729=POLY_LOOP('',(#196,#201,#154,#197));
#730=FACE_OUTER_BOUND('',#729,.T.);
#731=FACE('',(#730));
#732=POLY_LOOP('',(#201,#202,#155,#154));
#733=FACE_OUTER_BOUND('',#732,.T.);
#734=FACE('',(#733));
#735=POLY_LOOP('',(#202,#203,#156,#155));
#736=FACE_OUTER_BOUND('',#735,.T.);
#737=FACE('',(#736));
#738=POLY_LOOP('',(#204,#205,#158,#157));
#739=FACE_OUTER_BOUND('',#738,.T.);
#740=FACE('',(#739));
#741=POLY_LOOP('',(#205,#206,#167,#207,#208,#209,#158));
#742=FACE_OUTER_BOUND('',#741,.T.);
#743=FACE('',(#742));
#744=POLY_LOOP('',(#206,#210,#168,#167));
#745=FACE_OUTER_BOUND('',#744,.T.);
#746=FACE('',(#745));
#747=POLY_LOOP('',(#170,#169,#211,#212));
#748=FACE_OUTER_BOUND('',#747,.T.);
#749=FACE('',(#748));
#750=POLY_LOOP('',(#169,#171,#213,#211));
#751=FACE_OUTER_BOUND('',#750,.T.);
#752=FACE('',(#751));
#753=POLY_LOOP('',(#171,#172,#214,#213));
#754=FACE_OUTER_BOUND('',#753,.T.);
#755=FACE('',(#754));
#756=POLY_LOOP('',(#172,#173,#215,#214));
#757=FACE_OUTER_BOUND('',#756,.T.);
#758=FACE('',(#757));
#759=POLY_LOOP('',(#173,#174,#216,#215));
#760=FACE_OUTER_BOUND('',#759,.T.);
#761=FACE('',(#760));
#762=POLY_LOOP('',(#174,#179,#217,#216));
#763=FACE_OUTER_BOUND('',#762,.T.);
#764=FACE('',(#763));
#765=POLY_LOOP('',(#179,#180,#218,#217));
#766=FACE_OUTER_BOUND('',#765,.T.);
#767=FACE('',(#766));
#768=POLY_LOOP('',(#180,#181,#219,#218));
#769=FACE_OUTER_BOUND('',#768,.T.);
#770=FACE('',(#769));
#771=POLY_LOOP('',(#181,#182,#220,#219));
#772=FACE_OUTER_BOUND('',#771,.T.);
#773=FACE('',(#772));
#774=POLY_LOOP('',(#182,#184,#221,#220));
#775=FACE_OUTER_BOUND('',#774,.T.);
#776=FACE('',(#775));
#777=POLY_LOOP('',(#184,#183,#222,#221));
#778=FACE_OUTER_BOUND('',#777,.T.);
#779=FACE('',(#778));
#780=POLY_LOOP('',(#183,#188,#223,#222));
#781=FACE_OUTER_BOUND('',#780,.T.);
#782=FACE('',(#781));
#783=POLY_LOOP('',(#188,#189,#224,#223));
#784=FACE_OUTER_BOUND('',#783,.T.);
#785=FACE('',(#784));
#786=POLY_LOOP('',(#225,#226,#191,#190));
#787=FACE_OUTER_BOUND('',#786,.T.);
#788=FACE('',(#787));
#789=POLY_LOOP('',(#226,#227,#192,#191));
#790=FACE_OUTER_BOUND('',#789,.T.);
#791=FACE('',(#790));
#792=POLY_LOOP('',(#227,#228,#193,#192));
#793=FACE_OUTER_BOUND('',#792,.T.);
#794=FACE('',(#793));
#795=POLY_LOOP('',(#228,#229,#194,#193));
#796=FACE_OUTER_BOUND('',#795,.T.);
#797=FACE('',(#796));
#798=POLY_LOOP('',(#229,#230,#195,#194));
#799=FACE_OUTER_BOUND('',#798,.T.);
#800=FACE('',(#799));
#801=POLY_LOOP('',(#230,#231,#196,#195));
#802=FACE_OUTER_BOUND('',#801,.T.);
#803=FACE('',(#802));
#804=POLY_LOOP('',(#231,#232,#201,#196));
#805=FACE_OUTER_BOUND('',#804,.T.);
#806=FACE('',(#805));
#807=POLY_LOOP('',(#232,#233,#202,#201));
#808=FACE_OUTER_BOUND('',#807,.T.);
#809=FACE('',(#808));
#810=POLY_LOOP('',(#233,#234,#203,#202));
#811=FACE_OUTER_BOUND('',#810,.T.);
#812=FACE('',(#811));
#813=POLY_LOOP('',(#234,#235,#204,#203));
#814=FACE_OUTER_BOUND('',#813,.T.);
#815=FACE('',(#814));
#816=POLY_LOOP('',(#235,#236,#205,#204));
#817=FACE_OUTER_BOUND('',#816,.T.);
#818=FACE('',(#817));
#819=POLY_LOOP('',(#236,#237,#206,#205));
#820=FACE_OUTER_BOUND('',#819,.T.);
#821=FACE('',(#820));
#822=POLY_LOOP('',(#237,#238,#210,#206));
#823=FACE_OUTER_BOUND('',#822,.T.);
#824=FACE('',(#823));
#825=POLY_LOOP('',(#46,#45,#16,#15));
#826=FACE_OUTER_BOUND('',#825,.T.);
#827=FACE('',(#826));
#828=POLY_LOOP('',(#45,#48,#19,#16));
#829=FACE_OUTER_BOUND('',#828,.T.);
#830=FACE('',(#829));
#831=POLY_LOOP('',(#48,#50,#21,#19));
#832=FACE_OUTER_BOUND('',#831,.T.);
#833=FACE('',(#832));
#834=POLY_LOOP('',(#50,#52,#23,#21));
#835=FACE_OUTER_BOUND('',#834,.T.);
#836=FACE('',(#835));
#837=POLY_LOOP('',(#52,#54,#25,#23));
#838=FACE_OUTER_BOUND('',#837,.T.);
#839=FACE('',(#838));
#840=POLY_LOOP('',(#54,#56,#27,#25));
#841=FACE_OUTER_BOUND('',#840,.T.);
#842=FACE('',(#841));
#843=POLY_LOOP('',(#56,#58,#29,#27));
#844=FACE_OUTER_BOUND('',#843,.T.);
#845=FACE('',(#844));
#846=POLY_LOOP('',(#58,#60,#31,#29));
#847=FACE_OUTER_BOUND('',#846,.T.);
#848=FACE('',(#847));
#849=POLY_LOOP('',(#60,#62,#33,#31));
#850=FACE_OUTER_BOUND('',#849,.T.);
#851=FACE('',(#850));
#852=POLY_LOOP('',(#62,#64,#35,#33));
#853=FACE_OUTER_BOUND('',#852,.T.);
#854=FACE('',(#853));
#855=POLY_LOOP('',(#64,#66,#37,#35));
#856=FACE_OUTER_BOUND('',#855,.T.);
#857=FACE('',(#856));
#858=POLY_LOOP('',(#66,#68,#39,#37));
#859=FACE_OUTER_BOUND('',#858,.T.);
#860=FACE('',(#859));
#861=POLY_LOOP('',(#68,#70,#41,#39));
#862=FACE_OUTER_BOUND('',#861,.T.);
#863=FACE('',(#862));
#864=POLY_LOOP('',(#212,#211,#226,#225));
#865=FACE_OUTER_BOUND('',#864,.T.);
#866=FACE('',(#865));
#867=POLY_LOOP('',(#211,#213,#227,#226));
#868=FACE_OUTER_BOUND('',#867,.T.);
#869=FACE('',(#868));
#870=POLY_LOOP('',(#213,#214,#228,#227));
#871=FACE_OUTER_BOUND('',#870,.T.);
#872=FACE('',(#871));
#873=POLY_LOOP('',(#214,#215,#229,#228));
#874=FACE_OUTER_BOUND('',#873,.T.);
#875=FACE('',(#874));
#876=POLY_LOOP('',(#215,#216,#230,#229));
#877=FACE_OUTER_BOUND('',#876,.T.);
#878=FACE('',(#877));
#879=POLY_LOOP('',(#216,#217,#231,#230));
#880=FACE_OUTER_BOUND('',#879,.T.);
#881=FACE('',(#880));
#882=POLY_LOOP('',(#217,#218,#232,#231));
#883=FACE_OUTER_BOUND('',#882,.T.);
#884=FACE('',(#883));
#885=POLY_LOOP('',(#218,#219,#233,#232));
#886=FACE_OUTER_BOUND('',#885,.T.);
#887=FACE('',(#886));
#888=POLY_LOOP('',(#219,#220,#234,#233));
#889=FACE_OUTER_BOUND('',#888,.T.);
#890=FACE('',(#889));
#891=POLY_LOOP('',(#220,#221,#235,#234));
#892=FACE_OUTER_BOUND('',#891,.T.);
#893=FACE('',(#892));
#894=POLY_LOOP('',(#221,#222,#236,#235));
#895=FACE_OUTER_BOUND('',#894,.T.);
#896=FACE('',(#895));
#897=POLY_LOOP('',(#222,#223,#237,#236));
#898=FACE_OUTER_BOUND('',#897,.T.);
#899=FACE('',(#898));
#900=POLY_LOOP('',(#223,#224,#238,#237));
#901=FACE_OUTER_BOUND('',#900,.T.);
#902=FACE('',(#901));
#903=POLY_LOOP('',(#15,#18,#43,#46));
#904=FACE_OUTER_BOUND('',#903,.T.);
#905=FACE('',(#904));
#906=POLY_LOOP('',(#18,#72,#91,#43));
#907=FACE_OUTER_BOUND('',#906,.T.);
#908=FACE('',(#907));
#909=POLY_LOOP('',(#72,#112,#140,#91));
#910=FACE_OUTER_BOUND('',#909,.T.);
#911=FACE('',(#910));
#912=POLY_LOOP('',(#112,#170,#190,#140));
#913=FACE_OUTER_BOUND('',#912,.T.);
#914=FACE('',(#913));
#915=POLY_LOOP('',(#170,#212,#225,#190));
#916=FACE_OUTER_BOUND('',#915,.T.);
#917=FACE('',(#916));
#918=POLY_LOOP('',(#70,#69,#42,#41));
#919=FACE_OUTER_BOUND('',#918,.T.);
#920=FACE('',(#919));
#921=POLY_LOOP('',(#69,#110,#90,#42));
#922=FACE_OUTER_BOUND('',#921,.T.);
#923=FACE('',(#922));
#924=POLY_LOOP('',(#110,#168,#134,#90));
#925=FACE_OUTER_BOUND('',#924,.T.);
#926=FACE('',(#925));
#927=POLY_LOOP('',(#168,#210,#189,#134));
#928=FACE_OUTER_BOUND('',#927,.T.);
#929=FACE('',(#928));
#930=POLY_LOOP('',(#210,#238,#224,#189));
#931=FACE_OUTER_BOUND('',#930,.T.);
#932=FACE('',(#931));
#933=POLY_LOOP('',(#34,#36,#63,#61));
#934=FACE_OUTER_BOUND('',#933,.T.);
#935=FACE('',(#934));
#936=POLY_LOOP('',(#203,#204,#184,#182));
#937=FACE_OUTER_BOUND('',#936,.T.);
#938=FACE('',(#937));
#939=POLY_LOOP('',(#61,#103,#83,#34));
#940=FACE_OUTER_BOUND('',#939,.T.);
#941=FACE('',(#940));
#942=POLY_LOOP('',(#103,#156,#127,#83));
#943=FACE_OUTER_BOUND('',#942,.T.);
#944=FACE('',(#943));
#945=POLY_LOOP('',(#156,#203,#182,#127));
#946=FACE_OUTER_BOUND('',#945,.T.);
#947=FACE('',(#946));
#948=POLY_LOOP('',(#36,#85,#104,#63));
#949=FACE_OUTER_BOUND('',#948,.T.);
#950=FACE('',(#949));
#951=POLY_LOOP('',(#85,#133,#157,#104));
#952=FACE_OUTER_BOUND('',#951,.T.);
#953=FACE('',(#952));
#954=POLY_LOOP('',(#133,#184,#204,#157));
#955=FACE_OUTER_BOUND('',#954,.T.);
#956=FACE('',(#955));
#957=POLY_LOOP('',(#124,#123,#239));
#958=FACE_OUTER_BOUND('',#957,.T.);
#959=FACE('',(#958));
#960=POLY_LOOP('',(#124,#239,#240));
#961=FACE_OUTER_BOUND('',#960,.T.);
#962=FACE('',(#961));
#963=POLY_LOOP('',(#123,#122,#241));
#964=FACE_OUTER_BOUND('',#963,.T.);
#965=FACE('',(#964));
#966=POLY_LOOP('',(#123,#241,#239));
#967=FACE_OUTER_BOUND('',#966,.T.);
#968=FACE('',(#967));
#969=POLY_LOOP('',(#122,#178,#242));
#970=FACE_OUTER_BOUND('',#969,.T.);
#971=FACE('',(#970));
#972=POLY_LOOP('',(#122,#242,#241));
#973=FACE_OUTER_BOUND('',#972,.T.);
#974=FACE('',(#973));
#975=POLY_LOOP('',(#178,#177,#243));
#976=FACE_OUTER_BOUND('',#975,.T.);
#977=FACE('',(#976));
#978=POLY_LOOP('',(#178,#243,#242));
#979=FACE_OUTER_BOUND('',#978,.T.);
#980=FACE('',(#979));
#981=POLY_LOOP('',(#177,#176,#244));
#982=FACE_OUTER_BOUND('',#981,.T.);
#983=FACE('',(#982));
#984=POLY_LOOP('',(#177,#244,#243));
#985=FACE_OUTER_BOUND('',#984,.T.);
#986=FACE('',(#985));
#987=POLY_LOOP('',(#176,#175,#245));
#988=FACE_OUTER_BOUND('',#987,.T.);
#989=FACE('',(#988));
#990=POLY_LOOP('',(#176,#245,#244));
#991=FACE_OUTER_BOUND('',#990,.T.);
#992=FACE('',(#991));
#993=POLY_LOOP('',(#175,#120,#246));
#994=FACE_OUTER_BOUND('',#993,.T.);
#995=FACE('',(#994));
#996=POLY_LOOP('',(#175,#246,#245));
#997=FACE_OUTER_BOUND('',#996,.T.);
#998=FACE('',(#997));
#999=POLY_LOOP('',(#120,#119,#247));
#1000=FACE_OUTER_BOUND('',#999,.T.);
#1001=FACE('',(#1000));
#1002=POLY_LOOP('',(#120,#247,#246));
#1003=FACE_OUTER_BOUND('',#1002,.T.);
#1004=FACE('',(#1003));
#1005=POLY_LOOP('',(#119,#118,#248));
#1006=FACE_OUTER_BOUND('',#1005,.T.);
#1007=FACE('',(#1006));
#1008=POLY_LOOP('',(#119,#248,#247));
#1009=FACE_OUTER_BOUND('',#1008,.T.);
#1010=FACE('',(#1009));
#1011=POLY_LOOP('',(#118,#117,#249,#248));
#1012=FACE_OUTER_BOUND('',#1011,.T.);
#1013=FACE('',(#1012));
#1014=POLY_LOOP('',(#117,#116,#250));
#1015=FACE_OUTER_BOUND('',#1014,.T.);
#1016=FACE('',(#1015));
#1017=POLY_LOOP('',(#117,#250,#249));
#1018=FACE_OUTER_BOUND('',#1017,.T.);
#1019=FACE('',(#1018));
#1020=POLY_LOOP('',(#116,#76,#251));
#1021=FACE_OUTER_BOUND('',#1020,.T.);
#1022=FACE('',(#1021));
#1023=POLY_LOOP('',(#116,#251,#250));
#1024=FACE_OUTER_BOUND('',#1023,.T.);
#1025=FACE('',(#1024));
#1026=POLY_LOOP('',(#76,#80,#252));
#1027=FACE_OUTER_BOUND('',#1026,.T.);
#1028=FACE('',(#1027));
#1029=POLY_LOOP('',(#76,#252,#251));
#1030=FACE_OUTER_BOUND('',#1029,.T.);
#1031=FACE('',(#1030));
#1032=POLY_LOOP('',(#80,#79,#253));
#1033=FACE_OUTER_BOUND('',#1032,.T.);
#1034=FACE('',(#1033));
#1035=POLY_LOOP('',(#80,#253,#252));
#1036=FACE_OUTER_BOUND('',#1035,.T.);
#1037=FACE('',(#1036));
#1038=POLY_LOOP('',(#79,#78,#254));
#1039=FACE_OUTER_BOUND('',#1038,.T.);
#1040=FACE('',(#1039));
#1041=POLY_LOOP('',(#79,#254,#253));
#1042=FACE_OUTER_BOUND('',#1041,.T.);
#1043=FACE('',(#1042));
#1044=POLY_LOOP('',(#78,#77,#255));
#1045=FACE_OUTER_BOUND('',#1044,.T.);
#1046=FACE('',(#1045));
#1047=POLY_LOOP('',(#78,#255,#254));
#1048=FACE_OUTER_BOUND('',#1047,.T.);
#1049=FACE('',(#1048));
#1050=POLY_LOOP('',(#77,#81,#256));
#1051=FACE_OUTER_BOUND('',#1050,.T.);
#1052=FACE('',(#1051));
#1053=POLY_LOOP('',(#77,#256,#255));
#1054=FACE_OUTER_BOUND('',#1053,.T.);
#1055=FACE('',(#1054));
#1056=POLY_LOOP('',(#81,#126,#257));
#1057=FACE_OUTER_BOUND('',#1056,.T.);
#1058=FACE('',(#1057));
#1059=POLY_LOOP('',(#81,#257,#256));
#1060=FACE_OUTER_BOUND('',#1059,.T.);
#1061=FACE('',(#1060));
#1062=POLY_LOOP('',(#126,#125,#258));
#1063=FACE_OUTER_BOUND('',#1062,.T.);
#1064=FACE('',(#1063));
#1065=POLY_LOOP('',(#126,#258,#257));
#1066=FACE_OUTER_BOUND('',#1065,.T.);
#1067=FACE('',(#1066));
#1068=POLY_LOOP('',(#125,#124,#240,#258));
#1069=FACE_OUTER_BOUND('',#1068,.T.);
#1070=FACE('',(#1069));
#1071=POLY_LOOP('',(#240,#239,#259,#260));
#1072=FACE_OUTER_BOUND('',#1071,.T.);
#1073=FACE('',(#1072));
#1074=POLY_LOOP('',(#239,#241,#261,#259));
#1075=FACE_OUTER_BOUND('',#1074,.T.);
#1076=FACE('',(#1075));
#1077=POLY_LOOP('',(#241,#242,#262,#261));
#1078=FACE_OUTER_BOUND('',#1077,.T.);
#1079=FACE('',(#1078));
#1080=POLY_LOOP('',(#242,#243,#263,#262));
#1081=FACE_OUTER_BOUND('',#1080,.T.);
#1082=FACE('',(#1081));
#1083=POLY_LOOP('',(#243,#244,#264,#263));
#1084=FACE_OUTER_BOUND('',#1083,.T.);
#1085=FACE('',(#1084));
#1086=POLY_LOOP('',(#244,#245,#265,#264));
#1087=FACE_OUTER_BOUND('',#1086,.T.);
#1088=FACE('',(#1087));
#1089=POLY_LOOP('',(#245,#246,#266,#265));
#1090=FACE_OUTER_BOUND('',#1089,.T.);
#1091=FACE('',(#1090));
#1092=POLY_LOOP('',(#246,#247,#267,#266));
#1093=FACE_OUTER_BOUND('',#1092,.T.);
#1094=FACE('',(#1093));
#1095=POLY_LOOP('',(#247,#248,#268,#267));
#1096=FACE_OUTER_BOUND('',#1095,.T.);
#1097=FACE('',(#1096));
#1098=POLY_LOOP('',(#248,#249,#269,#268));
#1099=FACE_OUTER_BOUND('',#1098,.T.);
#1100=FACE('',(#1099));
#1101=POLY_LOOP('',(#249,#250,#270,#269));
#1102=FACE_OUTER_BOUND('',#1101,.T.);
#1103=FACE('',(#1102));
#1104=POLY_LOOP('',(#250,#251,#271,#270));
#1105=FACE_OUTER_BOUND('',#1104,.T.);
#1106=FACE('',(#1105));
#1107=POLY_LOOP('',(#251,#252,#272,#271));
#1108=FACE_OUTER_BOUND('',#1107,.T.);
#1109=FACE('',(#1108));
#1110=POLY_LOOP('',(#252,#253,#273,#272));
#1111=FACE_OUTER_BOUND('',#1110,.T.);
#1112=FACE('',(#1111));
#1113=POLY_LOOP('',(#253,#254,#274,#273));
#1114=FACE_OUTER_BOUND('',#1113,.T.);
#1115=FACE('',(#1114));
#1116=POLY_LOOP('',(#254,#255,#275,#274));
#1117=FACE_OUTER_BOUND('',#1116,.T.);
#1118=FACE('',(#1117));
#1119=POLY_LOOP('',(#255,#256,#276,#275));
#1120=FACE_OUTER_BOUND('',#1119,.T.);
#1121=FACE('',(#1120));
#1122=POLY_LOOP('',(#256,#257,#277,#276));
#1123=FACE_OUTER_BOUND('',#1122,.T.);
#1124=FACE('',(#1123));
#1125=POLY_LOOP('',(#257,#258,#278,#277));
#1126=FACE_OUTER_BOUND('',#1125,.T.);
#1127=FACE('',(#1126));
#1128=POLY_LOOP('',(#258,#240,#260,#278));
#1129=FACE_OUTER_BOUND('',#1128,.T.);
#1130=FACE('',(#1129));
#1131=POLY_LOOP('',(#260,#259,#153));
#1132=FACE_OUTER_BOUND('',#1131,.T.);
#1133=FACE('',(#1132));
#1134=POLY_LOOP('',(#260,#153,#152));
#1135=FACE_OUTER_BOUND('',#1134,.T.);
#1136=FACE('',(#1135));
#1137=POLY_LOOP('',(#259,#261,#154));
#1138=FACE_OUTER_BOUND('',#1137,.T.);
#1139=FACE('',(#1138));
#1140=POLY_LOOP('',(#259,#154,#153));
#1141=FACE_OUTER_BOUND('',#1140,.T.);
#1142=FACE('',(#1141));
#1143=POLY_LOOP('',(#261,#262,#197));
#1144=FACE_OUTER_BOUND('',#1143,.T.);
#1145=FACE('',(#1144));
#1146=POLY_LOOP('',(#261,#197,#154));
#1147=FACE_OUTER_BOUND('',#1146,.T.);
#1148=FACE('',(#1147));
#1149=POLY_LOOP('',(#262,#263,#198));
#1150=FACE_OUTER_BOUND('',#1149,.T.);
#1151=FACE('',(#1150));
#1152=POLY_LOOP('',(#262,#198,#197));
#1153=FACE_OUTER_BOUND('',#1152,.T.);
#1154=FACE('',(#1153));
#1155=POLY_LOOP('',(#263,#264,#199));
#1156=FACE_OUTER_BOUND('',#1155,.T.);
#1157=FACE('',(#1156));
#1158=POLY_LOOP('',(#263,#199,#198));
#1159=FACE_OUTER_BOUND('',#1158,.T.);
#1160=FACE('',(#1159));
#1161=POLY_LOOP('',(#264,#265,#200));
#1162=FACE_OUTER_BOUND('',#1161,.T.);
#1163=FACE('',(#1162));
#1164=POLY_LOOP('',(#264,#200,#199));
#1165=FACE_OUTER_BOUND('',#1164,.T.);
#1166=FACE('',(#1165));
#1167=POLY_LOOP('',(#265,#266,#145));
#1168=FACE_OUTER_BOUND('',#1167,.T.);
#1169=FACE('',(#1168));
#1170=POLY_LOOP('',(#265,#145,#200));
#1171=FACE_OUTER_BOUND('',#1170,.T.);
#1172=FACE('',(#1171));
#1173=POLY_LOOP('',(#266,#267,#146));
#1174=FACE_OUTER_BOUND('',#1173,.T.);
#1175=FACE('',(#1174));
#1176=POLY_LOOP('',(#266,#146,#145));
#1177=FACE_OUTER_BOUND('',#1176,.T.);
#1178=FACE('',(#1177));
#1179=POLY_LOOP('',(#267,#268,#147));
#1180=FACE_OUTER_BOUND('',#1179,.T.);
#1181=FACE('',(#1180));
#1182=POLY_LOOP('',(#267,#147,#146));
#1183=FACE_OUTER_BOUND('',#1182,.T.);
#1184=FACE('',(#1183));
#1185=POLY_LOOP('',(#268,#269,#148,#147));
#1186=FACE_OUTER_BOUND('',#1185,.T.);
#1187=FACE('',(#1186));
#1188=POLY_LOOP('',(#269,#270,#149));
#1189=FACE_OUTER_BOUND('',#1188,.T.);
#1190=FACE('',(#1189));
#1191=POLY_LOOP('',(#269,#149,#148));
#1192=FACE_OUTER_BOUND('',#1191,.T.);
#1193=FACE('',(#1192));
#1194=POLY_LOOP('',(#270,#271,#96));
#1195=FACE_OUTER_BOUND('',#1194,.T.);
#1196=FACE('',(#1195));
#1197=POLY_LOOP('',(#270,#96,#149));
#1198=FACE_OUTER_BOUND('',#1197,.T.);
#1199=FACE('',(#1198));
#1200=POLY_LOOP('',(#271,#272,#97));
#1201=FACE_OUTER_BOUND('',#1200,.T.);
#1202=FACE('',(#1201));
#1203=POLY_LOOP('',(#271,#97,#96));
#1204=FACE_OUTER_BOUND('',#1203,.T.);
#1205=FACE('',(#1204));
#1206=POLY_LOOP('',(#272,#273,#98));
#1207=FACE_OUTER_BOUND('',#1206,.T.);
#1208=FACE('',(#1207));
#1209=POLY_LOOP('',(#272,#98,#97));
#1210=FACE_OUTER_BOUND('',#1209,.T.);
#1211=FACE('',(#1210));
#1212=POLY_LOOP('',(#273,#274,#99));
#1213=FACE_OUTER_BOUND('',#1212,.T.);
#1214=FACE('',(#1213));
#1215=POLY_LOOP('',(#273,#99,#98));
#1216=FACE_OUTER_BOUND('',#1215,.T.);
#1217=FACE('',(#1216));
#1218=POLY_LOOP('',(#274,#275,#100));
#1219=FACE_OUTER_BOUND('',#1218,.T.);
#1220=FACE('',(#1219));
#1221=POLY_LOOP('',(#274,#100,#99));
#1222=FACE_OUTER_BOUND('',#1221,.T.);
#1223=FACE('',(#1222));
#1224=POLY_LOOP('',(#275,#276,#101));
#1225=FACE_OUTER_BOUND('',#1224,.T.);
#1226=FACE('',(#1225));
#1227=POLY_LOOP('',(#275,#101,#100));
#1228=FACE_OUTER_BOUND('',#1227,.T.);
#1229=FACE('',(#1228));
#1230=POLY_LOOP('',(#276,#277,#150));
#1231=FACE_OUTER_BOUND('',#1230,.T.);
#1232=FACE('',(#1231));
#1233=POLY_LOOP('',(#276,#150,#101));
#1234=FACE_OUTER_BOUND('',#1233,.T.);
#1235=FACE('',(#1234));
#1236=POLY_LOOP('',(#277,#278,#151));
#1237=FACE_OUTER_BOUND('',#1236,.T.);
#1238=FACE('',(#1237));
#1239=POLY_LOOP('',(#277,#151,#150));
#1240=FACE_OUTER_BOUND('',#1239,.T.);
#1241=FACE('',(#1240));
#1242=POLY_LOOP('',(#278,#260,#152,#151));
#1243=FACE_OUTER_BOUND('',#1242,.T.);
#1244=FACE('',(#1243));
#1245=POLY_LOOP('',(#137,#136,#279,#280));
#1246=FACE_OUTER_BOUND('',#1245,.T.);
#1247=FACE('',(#1246));
#1248=POLY_LOOP('',(#136,#135,#281,#279));
#1249=FACE_OUTER_BOUND('',#1248,.T.);
#1250=FACE('',(#1249));
#1251=POLY_LOOP('',(#135,#187,#282,#281));
#1252=FACE_OUTER_BOUND('',#1251,.T.);
#1253=FACE('',(#1252));
#1254=POLY_LOOP('',(#187,#186,#283,#282));
#1255=FACE_OUTER_BOUND('',#1254,.T.);
#1256=FACE('',(#1255));
#1257=POLY_LOOP('',(#186,#185,#284,#283));
#1258=FACE_OUTER_BOUND('',#1257,.T.);
#1259=FACE('',(#1258));
#1260=POLY_LOOP('',(#185,#132,#285,#284));
#1261=FACE_OUTER_BOUND('',#1260,.T.);
#1262=FACE('',(#1261));
#1263=POLY_LOOP('',(#132,#131,#286,#285));
#1264=FACE_OUTER_BOUND('',#1263,.T.);
#1265=FACE('',(#1264));
#1266=POLY_LOOP('',(#131,#130,#287,#286));
#1267=FACE_OUTER_BOUND('',#1266,.T.);
#1268=FACE('',(#1267));
#1269=POLY_LOOP('',(#130,#129,#288,#287));
#1270=FACE_OUTER_BOUND('',#1269,.T.);
#1271=FACE('',(#1270));
#1272=POLY_LOOP('',(#129,#128,#289,#288));
#1273=FACE_OUTER_BOUND('',#1272,.T.);
#1274=FACE('',(#1273));
#1275=POLY_LOOP('',(#128,#84,#290,#289));
#1276=FACE_OUTER_BOUND('',#1275,.T.);
#1277=FACE('',(#1276));
#1278=POLY_LOOP('',(#84,#89,#291,#290));
#1279=FACE_OUTER_BOUND('',#1278,.T.);
#1280=FACE('',(#1279));
#1281=POLY_LOOP('',(#89,#88,#292,#291));
#1282=FACE_OUTER_BOUND('',#1281,.T.);
#1283=FACE('',(#1282));
#1284=POLY_LOOP('',(#88,#87,#293,#292));
#1285=FACE_OUTER_BOUND('',#1284,.T.);
#1286=FACE('',(#1285));
#1287=POLY_LOOP('',(#87,#86,#294,#293));
#1288=FACE_OUTER_BOUND('',#1287,.T.);
#1289=FACE('',(#1288));
#1290=POLY_LOOP('',(#86,#139,#295,#294));
#1291=FACE_OUTER_BOUND('',#1290,.T.);
#1292=FACE('',(#1291));
#1293=POLY_LOOP('',(#139,#138,#296,#295));
#1294=FACE_OUTER_BOUND('',#1293,.T.);
#1295=FACE('',(#1294));
#1296=POLY_LOOP('',(#138,#137,#280,#296));
#1297=FACE_OUTER_BOUND('',#1296,.T.);
#1298=FACE('',(#1297));
#1299=POLY_LOOP('',(#280,#279,#297,#298));
#1300=FACE_OUTER_BOUND('',#1299,.T.);
#1301=FACE('',(#1300));
#1302=POLY_LOOP('',(#279,#281,#299,#297));
#1303=FACE_OUTER_BOUND('',#1302,.T.);
#1304=FACE('',(#1303));
#1305=POLY_LOOP('',(#281,#282,#300,#299));
#1306=FACE_OUTER_BOUND('',#1305,.T.);
#1307=FACE('',(#1306));
#1308=POLY_LOOP('',(#282,#283,#301,#300));
#1309=FACE_OUTER_BOUND('',#1308,.T.);
#1310=FACE('',(#1309));
#1311=POLY_LOOP('',(#283,#284,#302,#301));
#1312=FACE_OUTER_BOUND('',#1311,.T.);
#1313=FACE('',(#1312));
#1314=POLY_LOOP('',(#284,#285,#303,#302));
#1315=FACE_OUTER_BOUND('',#1314,.T.);
#1316=FACE('',(#1315));
#1317=POLY_LOOP('',(#285,#286,#304,#303));
#1318=FACE_OUTER_BOUND('',#1317,.T.);
#1319=FACE('',(#1318));
#1320=POLY_LOOP('',(#286,#287,#305,#304));
#1321=FACE_OUTER_BOUND('',#1320,.T.);
#1322=FACE('',(#1321));
#1323=POLY_LOOP('',(#287,#288,#306,#305));
#1324=FACE_OUTER_BOUND('',#1323,.T.);
#1325=FACE('',(#1324));
#1326=POLY_LOOP('',(#288,#289,#307,#306));
#1327=FACE_OUTER_BOUND('',#1326,.T.);
#1328=FACE('',(#1327));
#1329=POLY_LOOP('',(#289,#290,#308,#307));
#1330=FACE_OUTER_BOUND('',#1329,.T.);
#1331=FACE('',(#1330));
#1332=POLY_LOOP('',(#290,#291,#309,#308));
#1333=FACE_OUTER_BOUND('',#1332,.T.);
#1334=FACE('',(#1333));
#1335=POLY_LOOP('',(#291,#292,#310,#309));
#1336=FACE_OUTER_BOUND('',#1335,.T.);
#1337=FACE('',(#1336));
#1338=POLY_LOOP('',(#292,#293,#311,#310));
#1339=FACE_OUTER_BOUND('',#1338,.T.);
#1340=FACE('',(#1339));
#1341=POLY_LOOP('',(#293,#294,#312,#311));
#1342=FACE_OUTER_BOUND('',#1341,.T.);
#1343=FACE('',(#1342));
#1344=POLY_LOOP('',(#294,#295,#313,#312));
#1345=FACE_OUTER_BOUND('',#1344,.T.);
#1346=FACE('',(#1345));
#1347=POLY_LOOP('',(#295,#296,#314,#313));
#1348=FACE_OUTER_BOUND('',#1347,.T.);
#1349=FACE('',(#1348));
#1350=POLY_LOOP('',(#296,#280,#298,#314));
#1351=FACE_OUTER_BOUND('',#1350,.T.);
#1352=FACE('',(#1351));
#1353=POLY_LOOP('',(#298,#297,#166,#165));
#1354=FACE_OUTER_BOUND('',#1353,.T.);
#1355=FACE('',(#1354));
#1356=POLY_LOOP('',(#297,#299,#167,#166));
#1357=FACE_OUTER_BOUND('',#1356,.T.);
#1358=FACE('',(#1357));
#1359=POLY_LOOP('',(#299,#300,#207,#167));
#1360=FACE_OUTER_BOUND('',#1359,.T.);
#1361=FACE('',(#1360));
#1362=POLY_LOOP('',(#300,#301,#208,#207));
#1363=FACE_OUTER_BOUND('',#1362,.T.);
#1364=FACE('',(#1363));
#1365=POLY_LOOP('',(#301,#302,#209,#208));
#1366=FACE_OUTER_BOUND('',#1365,.T.);
#1367=FACE('',(#1366));
#1368=POLY_LOOP('',(#302,#303,#158,#209));
#1369=FACE_OUTER_BOUND('',#1368,.T.);
#1370=FACE('',(#1369));
#1371=POLY_LOOP('',(#303,#304,#159,#158));
#1372=FACE_OUTER_BOUND('',#1371,.T.);
#1373=FACE('',(#1372));
#1374=POLY_LOOP('',(#304,#305,#160,#159));
#1375=FACE_OUTER_BOUND('',#1374,.T.);
#1376=FACE('',(#1375));
#1377=POLY_LOOP('',(#305,#306,#161,#160));
#1378=FACE_OUTER_BOUND('',#1377,.T.);
#1379=FACE('',(#1378));
#1380=POLY_LOOP('',(#306,#307,#162,#161));
#1381=FACE_OUTER_BOUND('',#1380,.T.);
#1382=FACE('',(#1381));
#1383=POLY_LOOP('',(#307,#308,#105,#162));
#1384=FACE_OUTER_BOUND('',#1383,.T.);
#1385=FACE('',(#1384));
#1386=POLY_LOOP('',(#308,#309,#106,#105));
#1387=FACE_OUTER_BOUND('',#1386,.T.);
#1388=FACE('',(#1387));
#1389=POLY_LOOP('',(#309,#310,#107,#106));
#1390=FACE_OUTER_BOUND('',#1389,.T.);
#1391=FACE('',(#1390));
#1392=POLY_LOOP('',(#310,#311,#108,#107));
#1393=FACE_OUTER_BOUND('',#1392,.T.);
#1394=FACE('',(#1393));
#1395=POLY_LOOP('',(#311,#312,#109,#108));
#1396=FACE_OUTER_BOUND('',#1395,.T.);
#1397=FACE('',(#1396));
#1398=POLY_LOOP('',(#312,#313,#163,#109));
#1399=FACE_OUTER_BOUND('',#1398,.T.);
#1400=FACE('',(#1399));
#1401=POLY_LOOP('',(#313,#314,#164,#163));
#1402=FACE_OUTER_BOUND('',#1401,.T.);
#1403=FACE('',(#1402));
#1404=POLY_LOOP('',(#314,#298,#165,#164));
#1405=FACE_OUTER_BOUND('',#1404,.T.);
#1406=FACE('',(#1405));
#1407=CLOSED_SHELL('',(#425,#428,#431,#434,#437,#440,#443,#446,#449,#452,#455,#458,#461,#464,#467,#470,#473,#476,#479,#482,#485,#488,#491,#494,#497,#500,#503,#506,#509,#512,#515,#518,#521,#524,#527,#530,#533,#536,#539,#542,#545,#548,#551,#554,#557,#560,#563,#566,#569,#572,#575,#578,#581,#584,#587,#590,#593,#596,#599,#602,#605,#608,#611,#614,#617,#620,#623,#626,#629,#632,#635,#638,#641,#644,#647,#650,#653,#656,#659,#662,#665,#668,#671,#674,#677,#680,#683,#686,#689,#692,#695,#698,#701,#704,#707,#710,#713,#716,#719,#722,#725,#728,#731,#734,#737,#740,#743,#746,#749,#752,#755,#758,#761,#764,#767,#770,#773,#776,#779,#782,#785,#788,#791,#794,#797,#800,#803,#806,#809,#812,#815,#818,#821,#824,#827,#830,#833,#836,#839,#842,#845,#848,#851,#854,#857,#860,#863,#866,#869,#872,#875,#878,#881,#884,#887,#890,#893,#896,#899,#902,#905,#908,#911,#914,#917,#920,#923,#926,#929,#932,#935,#938,#941,#944,#947,#950,#953,#956,#959,#962,#965,#968,#971,#974,#977,#980,#983,#986,#989,#992,#995,#998,#1001,#1004,#1007,#1010,#1013,#1016,#1019,#1022,#1025,#1028,#1031,#1034,#1037,#1040,#1043,#1046,#1049,#1052,#1055,#1058,#1061,#1064,#1067,#1070,#1073,#1076,#1079,#1082,#1085,#1088,#1091,#1094,#1097,#1100,#1103,#1106,#1109,#1112,#1115,#1118,#1121,#1124,#1127,#1130,#1133,#1136,#1139,#1142,#1145,#1148,#1151,#1154,#1157,#1160,#1163,#1166,#1169,#1172,#1175,#1178,#1181,#1184,#1187,#1190,#1193,#1196,#1199,#1202,#1205,#1208,#1211,#1214,#1217,#1220,#1223,#1226,#1229,#1232,#1235,#1238,#1241,#1244,#1247,#1250,#1253,#1256,#1259,#1262,#1265,#1268,#1271,#1274,#1277,#1280,#1283,#1286,#1289,#1292,#1295,#1298,#1301,#1304,#1307,#1310,#1313,#1316,#1319,#1322,#1325,#1328,#1331,#1334,#1337,#1340,#1343,#1346,#1349,#1352,#1355,#1358,#1361,#1364,#1367,#1370,#1373,#1376,#1379,#1382,#1385,#1388,#1391,#1394,#1397,#1400,#1403,#1406));
#1408=FACETED_BREP('BWM-3140 solid 1',#1407);
#1409=POLY_LOOP('',(#317,#316,#315));
#1410=FACE_OUTER_BOUND('',#1409,.T.);
#1411=FACE('',(#1410));
#1412=POLY_LOOP('',(#320,#319,#318));
#1413=FACE_OUTER_BOUND('',#1412,.T.);
#1414=FACE('',(#1413));
#1415=POLY_LOOP('',(#318,#319,#316,#317));
#1416=FACE_OUTER_BOUND('',#1415,.T.);
#1417=FACE('',(#1416));
#1418=POLY_LOOP('',(#319,#320,#315,#316));
#1419=FACE_OUTER_BOUND('',#1418,.T.);
#1420=FACE('',(#1419));
#1421=POLY_LOOP('',(#320,#318,#317,#315));
#1422=FACE_OUTER_BOUND('',#1421,.T.);
#1423=FACE('',(#1422));
#1424=CLOSED_SHELL('',(#1411,#1414,#1417,#1420,#1423));
#1425=FACETED_BREP('BWM-3140 solid 2',#1424);
#1426=POLY_LOOP('',(#323,#322,#321));
#1427=FACE_OUTER_BOUND('',#1426,.T.);
#1428=FACE('',(#1427));
#1429=POLY_LOOP('',(#326,#325,#324));
#1430=FACE_OUTER_BOUND('',#1429,.T.);
#1431=FACE('',(#1430));
#1432=POLY_LOOP('',(#324,#325,#322,#323));
#1433=FACE_OUTER_BOUND('',#1432,.T.);
#1434=FACE('',(#1433));
#1435=POLY_LOOP('',(#325,#326,#321,#322));
#1436=FACE_OUTER_BOUND('',#1435,.T.);
#1437=FACE('',(#1436));
#1438=POLY_LOOP('',(#326,#324,#323,#321));
#1439=FACE_OUTER_BOUND('',#1438,.T.);
#1440=FACE('',(#1439));
#1441=CLOSED_SHELL('',(#1428,#1431,#1434,#1437,#1440));
#1442=FACETED_BREP('BWM-3140 solid 3',#1441);
#1443=POLY_LOOP('',(#329,#328,#327));
#1444=FACE_OUTER_BOUND('',#1443,.T.);
#1445=FACE('',(#1444));
#1446=POLY_LOOP('',(#332,#331,#330));
#1447=FACE_OUTER_BOUND('',#1446,.T.);
#1448=FACE('',(#1447));
#1449=POLY_LOOP('',(#330,#331,#328,#329));
#1450=FACE_OUTER_BOUND('',#1449,.T.);
#1451=FACE('',(#1450));
#1452=POLY_LOOP('',(#331,#332,#327,#328));
#1453=FACE_OUTER_BOUND('',#1452,.T.);
#1454=FACE('',(#1453));
#1455=POLY_LOOP('',(#332,#330,#329,#327));
#1456=FACE_OUTER_BOUND('',#1455,.T.);
#1457=FACE('',(#1456));
#1458=CLOSED_SHELL('',(#1445,#1448,#1451,#1454,#1457));
#1459=FACETED_BREP('BWM-3140 solid 4',#1458);
#1460=POLY_LOOP('',(#335,#334,#333));
#1461=FACE_OUTER_BOUND('',#1460,.T.);
#1462=FACE('',(#1461));
#1463=POLY_LOOP('',(#338,#337,#336));
#1464=FACE_OUTER_BOUND('',#1463,.T.);
#1465=FACE('',(#1464));
#1466=POLY_LOOP('',(#336,#337,#334,#335));
#1467=FACE_OUTER_BOUND('',#1466,.T.);
#1468=FACE('',(#1467));
#1469=POLY_LOOP('',(#337,#338,#333,#334));
#1470=FACE_OUTER_BOUND('',#1469,.T.);
#1471=FACE('',(#1470));
#1472=POLY_LOOP('',(#338,#336,#335,#333));
#1473=FACE_OUTER_BOUND('',#1472,.T.);
#1474=FACE('',(#1473));
#1475=CLOSED_SHELL('',(#1462,#1465,#1468,#1471,#1474));
#1476=FACETED_BREP('BWM-3140 solid 5',#1475);
#1477=POLY_LOOP('',(#341,#340,#339));
#1478=FACE_OUTER_BOUND('',#1477,.T.);
#1479=FACE('',(#1478));
#1480=POLY_LOOP('',(#344,#343,#342));
#1481=FACE_OUTER_BOUND('',#1480,.T.);
#1482=FACE('',(#1481));
#1483=POLY_LOOP('',(#342,#343,#340,#341));
#1484=FACE_OUTER_BOUND('',#1483,.T.);
#1485=FACE('',(#1484));
#1486=POLY_LOOP('',(#343,#344,#339,#340));
#1487=FACE_OUTER_BOUND('',#1486,.T.);
#1488=FACE('',(#1487));
#1489=POLY_LOOP('',(#344,#342,#341,#339));
#1490=FACE_OUTER_BOUND('',#1489,.T.);
#1491=FACE('',(#1490));
#1492=CLOSED_SHELL('',(#1479,#1482,#1485,#1488,#1491));
#1493=FACETED_BREP('BWM-3140 solid 6',#1492);
#1494=POLY_LOOP('',(#347,#346,#345));
#1495=FACE_OUTER_BOUND('',#1494,.T.);
#1496=FACE('',(#1495));
#1497=POLY_LOOP('',(#350,#349,#348));
#1498=FACE_OUTER_BOUND('',#1497,.T.);
#1499=FACE('',(#1498));
#1500=POLY_LOOP('',(#348,#349,#346,#347));
#1501=FACE_OUTER_BOUND('',#1500,.T.);
#1502=FACE('',(#1501));
#1503=POLY_LOOP('',(#349,#350,#345,#346));
#1504=FACE_OUTER_BOUND('',#1503,.T.);
#1505=FACE('',(#1504));
#1506=POLY_LOOP('',(#350,#348,#347,#345));
#1507=FACE_OUTER_BOUND('',#1506,.T.);
#1508=FACE('',(#1507));
#1509=CLOSED_SHELL('',(#1496,#1499,#1502,#1505,#1508));
#1510=FACETED_BREP('BWM-3140 solid 7',#1509);
#1511=POLY_LOOP('',(#353,#352,#351));
#1512=FACE_OUTER_BOUND('',#1511,.T.);
#1513=FACE('',(#1512));
#1514=POLY_LOOP('',(#356,#355,#354));
#1515=FACE_OUTER_BOUND('',#1514,.T.);
#1516=FACE('',(#1515));
#1517=POLY_LOOP('',(#354,#355,#352,#353));
#1518=FACE_OUTER_BOUND('',#1517,.T.);
#1519=FACE('',(#1518));
#1520=POLY_LOOP('',(#355,#356,#351,#352));
#1521=FACE_OUTER_BOUND('',#1520,.T.);
#1522=FACE('',(#1521));
#1523=POLY_LOOP('',(#356,#354,#353,#351));
#1524=FACE_OUTER_BOUND('',#1523,.T.);
#1525=FACE('',(#1524));
#1526=CLOSED_SHELL('',(#1513,#1516,#1519,#1522,#1525));
#1527=FACETED_BREP('BWM-3140 solid 8',#1526);
#1528=POLY_LOOP('',(#359,#358,#357));
#1529=FACE_OUTER_BOUND('',#1528,.T.);
#1530=FACE('',(#1529));
#1531=POLY_LOOP('',(#362,#361,#360));
#1532=FACE_OUTER_BOUND('',#1531,.T.);
#1533=FACE('',(#1532));
#1534=POLY_LOOP('',(#360,#361,#358,#359));
#1535=FACE_OUTER_BOUND('',#1534,.T.);
#1536=FACE('',(#1535));
#1537=POLY_LOOP('',(#361,#362,#357,#358));
#1538=FACE_OUTER_BOUND('',#1537,.T.);
#1539=FACE('',(#1538));
#1540=POLY_LOOP('',(#362,#360,#359,#357));
#1541=FACE_OUTER_BOUND('',#1540,.T.);
#1542=FACE('',(#1541));
#1543=CLOSED_SHELL('',(#1530,#1533,#1536,#1539,#1542));
#1544=FACETED_BREP('BWM-3140 solid 9',#1543);
#1545=POLY_LOOP('',(#365,#364,#363));
#1546=FACE_OUTER_BOUND('',#1545,.T.);
#1547=FACE('',(#1546));
#1548=POLY_LOOP('',(#368,#367,#366));
#1549=FACE_OUTER_BOUND('',#1548,.T.);
#1550=FACE('',(#1549));
#1551=POLY_LOOP('',(#366,#367,#364,#365));
#1552=FACE_OUTER_BOUND('',#1551,.T.);
#1553=FACE('',(#1552));
#1554=POLY_LOOP('',(#367,#368,#363,#364));
#1555=FACE_OUTER_BOUND('',#1554,.T.);
#1556=FACE('',(#1555));
#1557=POLY_LOOP('',(#368,#366,#365,#363));
#1558=FACE_OUTER_BOUND('',#1557,.T.);
#1559=FACE('',(#1558));
#1560=CLOSED_SHELL('',(#1547,#1550,#1553,#1556,#1559));
#1561=FACETED_BREP('BWM-3140 solid 10',#1560);
#1562=POLY_LOOP('',(#371,#370,#369));
#1563=FACE_OUTER_BOUND('',#1562,.T.);
#1564=FACE('',(#1563));
#1565=POLY_LOOP('',(#374,#373,#372));
#1566=FACE_OUTER_BOUND('',#1565,.T.);
#1567=FACE('',(#1566));
#1568=POLY_LOOP('',(#372,#373,#370,#371));
#1569=FACE_OUTER_BOUND('',#1568,.T.);
#1570=FACE('',(#1569));
#1571=POLY_LOOP('',(#373,#374,#369,#370));
#1572=FACE_OUTER_BOUND('',#1571,.T.);
#1573=FACE('',(#1572));
#1574=POLY_LOOP('',(#374,#372,#371,#369));
#1575=FACE_OUTER_BOUND('',#1574,.T.);
#1576=FACE('',(#1575));
#1577=CLOSED_SHELL('',(#1564,#1567,#1570,#1573,#1576));
#1578=FACETED_BREP('BWM-3140 solid 11',#1577);
#1579=POLY_LOOP('',(#377,#376,#375));
#1580=FACE_OUTER_BOUND('',#1579,.T.);
#1581=FACE('',(#1580));
#1582=POLY_LOOP('',(#380,#379,#378));
#1583=FACE_OUTER_BOUND('',#1582,.T.);
#1584=FACE('',(#1583));
#1585=POLY_LOOP('',(#378,#379,#376,#377));
#1586=FACE_OUTER_BOUND('',#1585,.T.);
#1587=FACE('',(#1586));
#1588=POLY_LOOP('',(#379,#380,#375,#376));
#1589=FACE_OUTER_BOUND('',#1588,.T.);
#1590=FACE('',(#1589));
#1591=POLY_LOOP('',(#380,#378,#377,#375));
#1592=FACE_OUTER_BOUND('',#1591,.T.);
#1593=FACE('',(#1592));
#1594=CLOSED_SHELL('',(#1581,#1584,#1587,#1590,#1593));
#1595=FACETED_BREP('BWM-3140 solid 12',#1594);
#1596=POLY_LOOP('',(#383,#382,#381));
#1597=FACE_OUTER_BOUND('',#1596,.T.);
#1598=FACE('',(#1597));
#1599=POLY_LOOP('',(#386,#385,#384));
#1600=FACE_OUTER_BOUND('',#1599,.T.);
#1601=FACE('',(#1600));
#1602=POLY_LOOP('',(#384,#385,#382,#383));
#1603=FACE_OUTER_BOUND('',#1602,.T.);
#1604=FACE('',(#1603));
#1605=POLY_LOOP('',(#385,#386,#381,#382));
#1606=FACE_OUTER_BOUND('',#1605,.T.);
#1607=FACE('',(#1606));
#1608=POLY_LOOP('',(#386,#384,#383,#381));
#1609=FACE_OUTER_BOUND('',#1608,.T.);
#1610=FACE('',(#1609));
#1611=CLOSED_SHELL('',(#1598,#1601,#1604,#1607,#1610));
#1612=FACETED_BREP('BWM-3140 solid 13',#1611);
#1613=POLY_LOOP('',(#389,#388,#387));
#1614=FACE_OUTER_BOUND('',#1613,.T.);
#1615=FACE('',(#1614));
#1616=POLY_LOOP('',(#392,#391,#390));
#1617=FACE_OUTER_BOUND('',#1616,.T.);
#1618=FACE('',(#1617));
#1619=POLY_LOOP('',(#390,#391,#388,#389));
#1620=FACE_OUTER_BOUND('',#1619,.T.);
#1621=FACE('',(#1620));
#1622=POLY_LOOP('',(#391,#392,#387,#388));
#1623=FACE_OUTER_BOUND('',#1622,.T.);
#1624=FACE('',(#1623));
#1625=POLY_LOOP('',(#392,#390,#389,#387));
#1626=FACE_OUTER_BOUND('',#1625,.T.);
#1627=FACE('',(#1626));
#1628=CLOSED_SHELL('',(#1615,#1618,#1621,#1624,#1627));
#1629=FACETED_BREP('BWM-3140 solid 14',#1628);
#1630=POLY_LOOP('',(#395,#394,#393));
#1631=FACE_OUTER_BOUND('',#1630,.T.);
#1632=FACE('',(#1631));
#1633=POLY_LOOP('',(#398,#397,#396));
#1634=FACE_OUTER_BOUND('',#1633,.T.);
#1635=FACE('',(#1634));
#1636=POLY_LOOP('',(#396,#397,#394,#395));
#1637=FACE_OUTER_BOUND('',#1636,.T.);
#1638=FACE('',(#1637));
#1639=POLY_LOOP('',(#397,#398,#393,#394));
#1640=FACE_OUTER_BOUND('',#1639,.T.);
#1641=FACE('',(#1640));
#1642=POLY_LOOP('',(#398,#396,#395,#393));
#1643=FACE_OUTER_BOUND('',#1642,.T.);
#1644=FACE('',(#1643));
#1645=CLOSED_SHELL('',(#1632,#1635,#1638,#1641,#1644));
#1646=FACETED_BREP('BWM-3140 solid 15',#1645);
#1647=POLY_LOOP('',(#401,#400,#399));
#1648=FACE_OUTER_BOUND('',#1647,.T.);
#1649=FACE('',(#1648));
#1650=POLY_LOOP('',(#404,#403,#402));
#1651=FACE_OUTER_BOUND('',#1650,.T.);
#1652=FACE('',(#1651));
#1653=POLY_LOOP('',(#402,#403,#400,#401));
#1654=FACE_OUTER_BOUND('',#1653,.T.);
#1655=FACE('',(#1654));
#1656=POLY_LOOP('',(#403,#404,#399,#400));
#1657=FACE_OUTER_BOUND('',#1656,.T.);
#1658=FACE('',(#1657));
#1659=POLY_LOOP('',(#404,#402,#401,#399));
#1660=FACE_OUTER_BOUND('',#1659,.T.);
#1661=FACE('',(#1660));
#1662=CLOSED_SHELL('',(#1649,#1652,#1655,#1658,#1661));
#1663=FACETED_BREP('BWM-3140 solid 16',#1662);
#1664=POLY_LOOP('',(#407,#406,#405));
#1665=FACE_OUTER_BOUND('',#1664,.T.);
#1666=FACE('',(#1665));
#1667=POLY_LOOP('',(#410,#409,#408));
#1668=FACE_OUTER_BOUND('',#1667,.T.);
#1669=FACE('',(#1668));
#1670=POLY_LOOP('',(#408,#409,#406,#407));
#1671=FACE_OUTER_BOUND('',#1670,.T.);
#1672=FACE('',(#1671));
#1673=POLY_LOOP('',(#409,#410,#405,#406));
#1674=FACE_OUTER_BOUND('',#1673,.T.);
#1675=FACE('',(#1674));
#1676=POLY_LOOP('',(#410,#408,#407,#405));
#1677=FACE_OUTER_BOUND('',#1676,.T.);
#1678=FACE('',(#1677));
#1679=CLOSED_SHELL('',(#1666,#1669,#1672,#1675,#1678));
#1680=FACETED_BREP('BWM-3140 solid 17',#1679);
#1681=POLY_LOOP('',(#413,#412,#411));
#1682=FACE_OUTER_BOUND('',#1681,.T.);
#1683=FACE('',(#1682));
#1684=POLY_LOOP('',(#416,#415,#414));
#1685=FACE_OUTER_BOUND('',#1684,.T.);
#1686=FACE('',(#1685));
#1687=POLY_LOOP('',(#414,#415,#412,#413));
#1688=FACE_OUTER_BOUND('',#1687,.T.);
#1689=FACE('',(#1688));
#1690=POLY_LOOP('',(#415,#416,#411,#412));
#1691=FACE_OUTER_BOUND('',#1690,.T.);
#1692=FACE('',(#1691));
#1693=POLY_LOOP('',(#416,#414,#413,#411));
#1694=FACE_OUTER_BOUND('',#1693,.T.);
#1695=FACE('',(#1694));
#1696=CLOSED_SHELL('',(#1683,#1686,#1689,#1692,#1695));
#1697=FACETED_BREP('BWM-3140 solid 18',#1696);
#1698=POLY_LOOP('',(#419,#418,#417));
#1699=FACE_OUTER_BOUND('',#1698,.T.);
#1700=FACE('',(#1699));
#1701=POLY_LOOP('',(#422,#421,#420));
#1702=FACE_OUTER_BOUND('',#1701,.T.);
#1703=FACE('',(#1702));
#1704=POLY_LOOP('',(#420,#421,#418,#419));
#1705=FACE_OUTER_BOUND('',#1704,.T.);
#1706=FACE('',(#1705));
#1707=POLY_LOOP('',(#421,#422,#417,#418));
#1708=FACE_OUTER_BOUND('',#1707,.T.);
#1709=FACE('',(#1708));
#1710=POLY_LOOP('',(#422,#420,#419,#417));
#1711=FACE_OUTER_BOUND('',#1710,.T.);
#1712=FACE('',(#1711));
#1713=CLOSED_SHELL('',(#1700,#1703,#1706,#1709,#1712));
#1714=FACETED_BREP('BWM-3140 solid 19',#1713);
#1715=CARTESIAN_POINT('',(0.,0.,0.));
#1716=DIRECTION('',(0.,0.,1.));
#1717=DIRECTION('',(1.,0.,0.));
#1718=AXIS2_PLACEMENT_3D('',#1715,#1716,#1717);
#1719=FACETED_BREP_SHAPE_REPRESENTATION('BWM-3140',(#1718,#1408,#1425,#1442,#1459,#1476,#1493,#1510,#1527,#1544,#1561,#1578,#1595,#1612,#1629,#1646,#1663,#1680,#1697,#1714),#14);
#1720=SHAPE_DEFINITION_REPRESENTATION(#9,#1719);
ENDSEC;
END-ISO-10303-21;
